<svg width="1512" height="1077" viewBox="0 0 1512 1077" fill="none" xmlns="http://www.w3.org/2000/svg">
<g clip-path="url(#clip0_276_5558)">
<path d="M0 120C0 53.7259 53.7258 0 120 0H1392C1458.27 0 1512 53.7258 1512 120V1077H0V120Z" fill="#B3FAFB"/>
<g clip-path="url(#clip1_276_5558)">
<g style="mix-blend-mode:color-burn">
<path d="M1409.36 436.23C1409.36 434.035 1408.21 433.617 1406.43 433.669C1404.18 433.721 1401.94 433.408 1399.74 433.721C1394.88 434.401 1393.47 432.78 1393.16 427.658C1391.07 391.753 1378.94 359.401 1357.72 330.446C1354.95 326.683 1349.99 323.233 1349.67 319.314C1349.31 315.185 1355.21 312.415 1358.45 309.122C1360.7 306.875 1360.23 305.516 1358.19 303.739C1356.68 302.432 1355.06 301.125 1353.91 299.505C1349.88 293.965 1346.48 293.756 1341.78 299.296C1335.98 306.091 1335.61 305.672 1328.61 299.767C1301.33 276.665 1269.81 263.024 1234.48 258.373C1221.31 256.648 1221.26 257.066 1220.73 244.627C1220.37 236.16 1214.15 241.439 1210.75 240.55C1204.06 238.773 1200.77 241.7 1202.23 248.808C1203.64 255.916 1200.19 257.537 1193.66 258.111C1156.82 261.3 1124.31 275.307 1095.82 298.669C1087.83 305.202 1087.98 305.254 1080.61 298.094C1079.15 296.631 1077.53 293.181 1075.7 294.54C1071.41 297.676 1067.02 301.282 1064.41 305.725C1062.63 308.704 1067.39 311.16 1069.69 312.99C1074.65 316.909 1074.39 319.732 1070.37 324.645C1046.48 353.704 1033.16 387.206 1030.23 424.732C1029.55 433.617 1029.76 433.93 1020.98 433.512C1015.75 433.251 1013.61 434.139 1013.87 440.15C1014.45 451.753 1014.03 451.857 1025.63 452.118C1028.92 452.171 1030.33 452.85 1030.49 456.456C1030.65 461.108 1031.48 465.76 1032.32 470.359C1038.28 503.861 1052.49 533.442 1074.97 558.948C1077.79 562.188 1077.74 563.861 1074.65 566.787C1066.55 574.523 1066.97 574.47 1074.86 582.99C1078.68 587.118 1081.24 587.537 1084.59 582.99C1086.52 580.376 1088.87 578.077 1090.65 575.986C1092.32 576.77 1092.79 576.875 1093.1 577.136C1094.52 578.233 1095.87 579.331 1097.29 580.481C1124.1 602.275 1154.78 615.08 1188.85 619.732C1201.61 621.456 1201.61 621.3 1202.29 633.739C1202.39 635.672 1201.76 638.077 1204.9 638.129C1209.34 638.181 1213.84 638.129 1218.28 638.129C1220.42 638.129 1220.84 636.822 1220.79 635.045C1220.79 632.798 1221.1 630.55 1220.73 628.355C1219.79 622.345 1222.2 620.463 1228.21 619.993C1263.85 617.223 1295.63 604.157 1323.75 582.258C1332.11 575.777 1332.37 575.359 1339.43 583.303C1343.92 588.373 1346.75 588.895 1351.45 583.46C1358.19 575.725 1358.98 575.62 1351.08 568.878C1345.33 563.965 1346.33 561.091 1350.82 555.864C1373.24 529.941 1386.36 499.575 1391.85 465.812C1392.53 461.631 1391.64 456.456 1393.78 453.425C1396.19 450.028 1401.62 452.641 1405.75 452.171C1407.58 451.962 1409.41 452.171 1409.41 449.505C1409.41 445.063 1409.36 440.568 1409.41 436.125L1409.36 436.23ZM1277.13 452.223C1307.76 452.223 1338.33 452.327 1368.96 452.118C1373.71 452.118 1374.76 453.059 1374.13 458.024C1369.9 490.742 1357.3 519.697 1336.14 544.993C1333.05 548.704 1331.48 549.383 1327.72 545.516C1305.35 522.728 1282.62 500.254 1260.09 477.624C1258.37 475.899 1257.06 473.808 1255.7 472.084C1250.63 477.049 1243.63 480.76 1243.1 485.254C1242.58 489.801 1250 493.617 1254.03 497.693C1273.52 517.345 1293.17 536.892 1312.77 556.491C1318.84 562.554 1318.94 562.658 1311.88 568.146C1286.17 588.111 1257.06 599.244 1224.71 602.171C1219.27 602.693 1220.84 599.192 1220.84 596.735C1220.79 568.146 1220.84 539.557 1220.84 510.969V506.265C1220.84 493.355 1220.84 493.617 1207.98 493.408C1202.91 493.355 1202.23 495.289 1202.29 499.627C1202.44 531.352 1202.29 563.077 1202.49 594.801C1202.49 600.655 1201.76 602.537 1195.02 601.805C1163.35 598.303 1135.23 586.7 1110.09 567.206C1105.75 563.861 1105.07 562.188 1109.36 558.007C1132.36 535.481 1154.88 512.537 1177.83 490.01C1181.48 486.404 1181.48 484.47 1177.72 481.387C1174.64 478.826 1172.18 475.585 1168.26 471.404C1166.27 474.07 1164.92 476.474 1163.03 478.355C1140.51 500.986 1117.88 523.512 1095.35 546.195C1092.69 548.861 1091.33 549.854 1088.3 546.3C1066.34 520.638 1053.38 491.16 1049.15 457.711C1048.57 453.373 1049.62 452.066 1054.17 452.118C1086.78 452.327 1119.39 452.118 1152.01 452.327C1157.02 452.327 1158.49 451.073 1158.33 446.003C1158.07 433.617 1158.33 433.617 1145.73 433.617C1115.11 433.617 1084.53 433.512 1053.91 433.721C1049.1 433.721 1048.21 432.624 1048.57 427.815C1050.98 393.582 1063.1 363.321 1084.32 336.509C1085.32 335.307 1086.31 334.104 1087.36 332.955C1087.62 332.641 1088.09 332.432 1088.56 332.171C1113.02 356.578 1137.58 380.986 1161.88 405.603C1165.33 409.104 1167.01 409.366 1170.51 405.655C1179.13 396.509 1179.34 396.665 1170.3 387.676C1148.66 366.038 1127.13 344.244 1105.33 322.815C1101.52 319.052 1102.04 317.537 1105.8 314.401C1132.56 291.875 1163.4 279.331 1198.1 275.829C1202.96 275.359 1202.39 277.92 1202.39 280.899C1202.39 313.512 1202.6 346.125 1202.18 378.739C1202.08 385.429 1204.11 387.571 1210.39 386.526C1211.9 386.265 1213.52 386.317 1215.09 386.526C1219.85 387.258 1221.05 385.272 1221 380.672C1220.79 348.739 1220.89 316.805 1220.89 284.819C1220.89 278.721 1223.91 275.986 1229.93 276.613C1264.27 280.272 1294.17 293.965 1320.09 316.596C1320.77 317.171 1321.5 317.641 1323.64 319.209C1321.34 320.934 1319.46 321.979 1317.95 323.495C1294.69 346.648 1271.54 369.958 1248.23 393.059C1245.3 395.934 1244.78 397.502 1248.07 400.69C1257.63 409.941 1257.48 410.15 1267.04 400.585C1288.52 379.104 1310.06 357.676 1331.43 336.038C1334.67 332.746 1336.08 332.484 1339.22 336.404C1360.28 363.059 1372.2 393.164 1374.97 427.031C1375.39 432.101 1374.39 433.773 1368.85 433.721C1336.45 433.408 1304.1 433.721 1271.69 433.46C1266.57 433.46 1264.85 434.557 1265.06 439.941C1265.47 452.118 1265.16 452.118 1277.44 452.118L1277.13 452.223Z" fill="#87D1EA"/>
<path d="M984.394 482.432C987.582 500.307 992.913 517.449 1000.44 533.965C1004.31 542.432 1004.25 542.432 1012.67 538.251C1020.72 534.279 1020.61 534.331 1017.01 525.498C988.993 457.659 993.227 392.014 1030.44 328.617C1032.32 325.429 1034.67 323.077 1037.91 321.3C1047.74 315.812 1053.85 307.345 1057.36 296.787C1058.09 294.54 1058.56 292.24 1060.49 290.307C1096.92 254.453 1140.35 232.972 1191.41 228.53C1257.79 222.78 1314.76 243.843 1362.53 290.202C1365.3 292.92 1367.18 295.847 1368.38 299.662C1374.08 317.537 1391.64 329.767 1410.2 329.192C1429.38 328.617 1445.74 315.76 1450.96 297.206C1455.93 279.54 1448.35 259.784 1432.83 249.854C1416.57 239.453 1395.82 240.864 1381.19 253.251C1375.7 257.902 1372.15 263.861 1368.75 270.08C1321.24 232.554 1320.2 232.031 1244.88 210.603C1259.25 184.627 1257.27 163.93 1238.92 148.826C1222.88 135.603 1200.04 135.655 1184.1 148.983C1165.86 164.192 1164.03 184.836 1178.56 210.864C1177.04 211.23 1175.58 211.7 1174.06 211.962C1131.05 219.226 1093 237.101 1060.02 265.585C1056.89 268.303 1055.94 267.624 1054.12 264.226C1043.45 244.575 1021.82 236.474 1000.96 243.895C981.781 250.742 969.707 271.491 973.732 292.136C977.495 311.474 990.038 322.659 1009.69 327.362C995.84 352.711 986.746 379.47 982.721 408.007C956.328 395.098 936.572 398.077 921.676 416.892C909.76 431.996 910.23 454.941 922.774 470.15C937.46 487.92 958.105 490.376 983.087 477.206C983.558 478.983 984.133 480.655 984.446 482.38L984.394 482.432ZM1410.25 310.533C1399.95 310.951 1391.17 305.307 1387.36 295.585H1430.74C1428.33 304.157 1420.13 310.115 1410.25 310.533ZM1408.63 261.352C1417.83 260.62 1426.87 266.683 1431.57 276.822H1386.57C1391.12 266.578 1398.75 262.136 1408.63 261.352ZM1211.38 206.84C1201.5 206.213 1193.71 201.875 1189.22 191.787H1233.59C1229.52 201.247 1220.84 207.415 1211.38 206.84ZM1211.22 157.659C1221.52 157.449 1228.84 162.624 1234.12 172.24H1189.22C1194.03 162.571 1201.4 157.815 1211.28 157.659H1211.22ZM1014.76 259.732C1024.27 258.948 1033.68 264.906 1038.17 275.045H994.324C996.99 266.265 1004.67 260.568 1014.76 259.732ZM994.167 293.965H1037.76C1036.29 302.484 1025.16 308.861 1016.38 309.07C1008.38 309.226 996.415 303.739 994.167 293.965ZM957.425 467.327C947.181 468.007 938.871 462.833 933.906 452.589H978.383C973.941 461.996 967.042 466.7 957.425 467.327ZM934.011 433.251C938.192 423.686 946.711 417.676 956.223 418.199C966.153 418.773 973.889 423.164 978.436 433.251H934.011Z" fill="#87D1EA"/>
<path d="M1502.96 416.631C1487.65 397.554 1466.54 394.888 1440.67 409.314C1437.95 389.557 1433.14 370.847 1425.61 352.868C1420.7 341.108 1420.75 341.474 1409.1 346.491C1404.29 348.582 1404.18 350.516 1406.17 354.801C1414.95 373.983 1420.33 394.209 1422.69 415.167C1427.81 460.638 1419.34 503.547 1397.18 543.582C1393 551.108 1388.98 558.53 1380.51 562.92C1374.18 566.212 1369.06 572.327 1367.13 579.174C1364.57 588.321 1358.35 593.861 1351.76 599.505C1299.34 644.505 1238.82 660.603 1171.08 648.582C1131.52 641.578 1097.13 623.39 1067.39 596.317C1064.88 594.017 1063.94 591.509 1063.31 588.321C1058.82 565.219 1034.36 549.749 1011.62 555.446C991.92 560.359 978.435 576.927 977.913 596.892C977.442 615.707 990.561 633.32 1009.17 638.861C1028.03 644.453 1047.48 636.979 1058.14 619.418C1060.65 615.237 1062.16 616.178 1064.93 618.634C1072.88 625.533 1081.5 631.439 1090.44 636.979C1117.09 653.495 1146.05 663.791 1176.99 668.651C1163.92 696.352 1166.43 715.115 1185.04 730.063C1199.78 741.875 1222.2 742.084 1237.25 730.481C1256.12 715.951 1258.78 697.293 1246.08 668.965C1306.29 654.331 1311.83 651.822 1362.06 615.08C1365.87 612.31 1366.24 614.61 1367.55 617.014C1377.27 634.993 1396.71 644.192 1415.26 639.645C1435.07 634.836 1448.92 617.693 1449.29 597.676C1449.6 578.599 1436.38 561.247 1416.94 555.916C1412.6 554.714 1412.81 553.303 1414.59 550.063C1421.59 537.362 1427.23 524.035 1431.68 510.237C1435.28 499.052 1437.48 487.449 1440.09 475.794C1463.45 490.324 1485.4 488.808 1500.51 471.927C1514.57 456.195 1515.56 432.519 1502.86 416.631H1502.96ZM1021.76 622.031C1011.78 622.293 1003.47 616.805 999.341 606.927H1043.24C1039.48 616.439 1031.85 621.77 1021.76 622.031ZM999.916 587.85C1001.54 580.481 1008.75 574.418 1017.16 573.216C1028.92 571.596 1037.6 576.195 1043.71 587.85C1028.66 587.85 1014.29 587.85 999.864 587.85H999.916ZM1213.26 720.498C1203.12 721.387 1193.3 715.219 1189.85 705.446H1233.02C1231.5 713.286 1223.3 719.61 1213.26 720.498ZM1192.72 686.787C1188.8 686.787 1189.32 685.219 1190.84 682.868C1195.96 674.819 1203.54 671.003 1212.79 671.369C1222.93 671.735 1230.25 677.537 1233.44 686.787C1219.74 686.787 1206.21 686.735 1192.67 686.787H1192.72ZM1406.17 621.927C1396.08 621.979 1388.4 617.118 1383.54 607.188H1428.44C1423.89 617.066 1416.21 621.875 1406.17 621.927ZM1428.17 587.902H1384.32C1387.15 579.226 1394.57 573.686 1404.13 573.059C1415 572.327 1423.16 577.188 1428.17 587.902ZM1468.57 418.199C1478.14 417.676 1486.66 423.686 1490.84 433.355H1446.31C1450.91 423.164 1458.64 418.773 1468.57 418.199ZM1467.27 467.275C1457.65 466.857 1450.13 461.265 1447.09 452.484H1491.31C1485.93 462.833 1478.14 467.746 1467.27 467.275Z" fill="#87D1EA"/>
<path d="M1212.53 401.317C1191 400.742 1173.02 417.99 1172.7 439.627C1172.34 460.533 1189.9 478.355 1211.22 478.774C1232.02 479.139 1249.64 462.101 1250.21 440.986C1250.79 419.505 1234.12 401.944 1212.58 401.369L1212.53 401.317ZM1211.48 460.272C1200.67 460.272 1191.41 451.021 1191.21 440.202C1191 429.122 1200.4 419.61 1211.59 419.61C1222.51 419.61 1231.66 428.652 1231.82 439.627C1231.97 450.812 1222.62 460.324 1211.48 460.272Z" fill="#87D1EA"/>
</g>
<g clip-path="url(#clip2_276_5558)">
<path d="M1426.62 233.747C1422.58 226.104 1421.14 220.943 1412.17 207.578C1400.97 190.973 1381.52 171.006 1365.8 165.764C1353.43 161.643 1336.59 158.602 1321.54 160.122C1309.5 161.323 1292.41 163.564 1274.25 166.765C1256.08 169.926 1252.72 176.608 1252 183.37C1251.32 190.132 1263.2 214.661 1268.65 222.383C1274.09 230.106 1285.89 229.105 1291.37 234.147C1296.85 239.189 1320.42 243.71 1325.18 247.872C1329.95 252.033 1353.39 257.875 1361.36 259.596C1369.32 261.316 1378.48 271.96 1384.6 272.92C1390.73 273.88 1417.21 261.196 1426.5 255.874C1435.78 250.553 1430.86 241.67 1426.62 233.707V233.747Z" fill="#DF3133"/>
<path d="M1367.2 158.562C1368.84 160.683 1365.8 165.764 1365.8 165.764L1368.92 166.525C1368.92 166.525 1372.16 161.403 1371.84 158.722C1371.52 156.041 1368.32 152.52 1367 153.08C1365.68 153.6 1365.56 156.441 1367.2 158.602V158.562Z" fill="#B5282B"/>
<path d="M1399.05 251.953C1392.09 243.59 1393.61 239.149 1386.64 235.868C1379.72 232.586 1366.4 248.672 1352.03 245.871C1337.67 243.07 1342.07 221.663 1327.9 216.501C1317.14 212.58 1305.3 224.384 1293.93 218.702C1279.73 211.62 1290.49 200.256 1285.01 198.655C1279.53 197.055 1278.45 204.377 1268.73 199.936C1259.04 195.494 1265.52 178.248 1258.68 176.448C1256.48 175.888 1254.48 177.248 1252.76 179.409C1252.32 180.729 1252.08 182.05 1251.96 183.41C1251.28 190.172 1263.16 214.701 1268.61 222.423C1274.05 230.146 1281.89 230.186 1294.41 236.828C1304.62 242.23 1309.38 246.111 1323.18 252.233C1333.63 256.835 1344.79 259.916 1356.43 260.836C1369.96 261.916 1373.96 272.28 1384.52 272.96C1390.69 273.36 1417.13 261.236 1426.42 255.914C1426.42 255.914 1405.93 260.276 1398.97 251.953H1399.05Z" fill="#9E2427"/>
<path d="M1399.05 251.953C1392.09 243.59 1393.61 239.149 1386.64 235.868C1379.72 232.586 1366.4 248.672 1352.03 245.871C1337.67 243.07 1342.07 221.663 1327.9 216.501C1317.14 212.58 1305.3 224.384 1293.93 218.702C1279.73 211.62 1290.49 200.256 1285.01 198.655C1279.53 197.055 1278.45 204.377 1268.73 199.936C1259.04 195.494 1265.52 178.248 1258.68 176.448C1256.48 175.888 1254.48 177.248 1252.76 179.409C1252.32 180.729 1252.08 182.05 1251.96 183.41C1251.28 190.172 1263.16 214.701 1268.61 222.423C1274.05 230.146 1282.13 229.786 1294.41 236.828C1303.94 242.31 1310.02 249.352 1323.78 255.554C1340.95 263.277 1345.95 260.876 1357.59 261.796C1371.12 262.877 1373.92 272.28 1384.48 272.96C1390.65 273.36 1417.09 261.236 1426.38 255.914C1426.38 255.914 1405.89 260.276 1398.93 251.953H1399.05Z" fill="#C4222A"/>
</g>
</g>
<g clip-path="url(#clip3_276_5558)">
<g style="mix-blend-mode:color-burn">
<path d="M1547.57 1090.75H1437.4V823.299L1155.1 541L871.979 824.211V1263.79H726V1741H1882.9V1088.83L1547.57 1090.75Z" fill="#87D1EA"/>
</g>
</g>
<g clip-path="url(#clip4_276_5558)">
<g style="mix-blend-mode:color-burn">
<path d="M-520 995.459H-86.5212V767.289C-86.5212 737.992 -62.739 714.21 -33.4421 714.21H13.8925V442.266C13.8925 414.922 36.0661 392.748 63.4099 392.748H120.05V150.101C120.05 133.442 133.493 120 150.152 120H330.988C347.647 120 361.089 133.442 361.089 150.101V395.62H424.278C448.061 395.62 467.362 414.922 467.362 438.704V708.58H492.523C535.721 708.58 570.763 743.621 570.763 786.82V2120.11" fill="#87D1EA"/>
</g>
</g>
<path d="M155.624 145.125C156.473 145.831 157.323 146.536 158.172 147.242C158.451 148.132 159.291 148.737 159.35 149.725C160.081 154.139 158.694 158.204 157.253 162.222C153.791 172.127 148.49 181.068 143.034 189.974C131.212 209.379 116.532 226.596 101.792 243.717C95.9301 250.547 89.5795 257.018 82.8643 263.091C82.2234 263.639 81.6373 264.233 80.6812 263.767C79.171 261.572 76.783 260.433 74.6533 259.039C68.6162 255.102 63.3688 250.271 58.4218 245.078C57.4459 244.079 56.405 243.214 55.1793 242.571C54.4962 241.722 54.9727 241.037 55.3671 240.284C61.6117 230.764 68.0755 221.427 75.3524 212.672C83.7425 202.633 91.7722 192.248 100.902 182.824C112.349 171.002 124.101 159.481 137.972 150.426C142.508 147.476 147.15 144.566 152.908 144.325C153.923 144.275 154.671 144.99 155.624 145.125Z" fill="#E44C3C"/>
<path d="M82.3021 262.765C87.8731 257.009 93.5769 251.317 99.011 245.447C108.804 234.836 117.989 223.672 126.71 212.122C132.202 204.845 137.426 197.39 142.242 189.645C148.096 180.317 153.524 170.777 157.118 160.324C158.341 156.735 159.17 153.006 158.688 149.128C159.107 148.067 159.738 149.202 160.281 148.995C160.555 149.223 160.856 149.473 161.13 149.701C161.734 150.814 162.84 151.545 163.42 152.685C167.743 157.124 169.747 162.737 171.204 168.507C174.148 180.4 173.368 192.205 170.437 203.867C166.945 217.931 160.805 230.78 152.78 242.72C144.39 255.155 134.288 266.027 122.562 275.455C122.055 275.786 121.513 275.992 120.938 276.126C110.561 275.349 100.673 272.535 91.1741 268.306C88.8451 267.263 86.5118 266.17 84.3129 264.859C83.4304 264.36 82.4281 263.95 82.3021 262.765Z" fill="#EAEEEF"/>
<path d="M153.648 144.939C145.693 145.706 139.51 150.248 133.396 154.706C123.039 162.264 113.784 171.114 104.78 180.22C93.1544 192.034 82.6518 204.781 72.3958 217.734C66.9234 224.652 61.7566 231.872 57.0195 239.354C56.6816 239.872 56.2384 240.35 55.8456 240.822C54.4002 240.89 53.8427 239.722 53.1048 238.826C45.6159 229.782 40.3408 219.523 36.529 208.507C36.1864 207.47 35.8944 206.429 35.5013 205.397C35.3719 204.773 35.4762 204.201 35.7868 203.661C41.5948 193.496 48.0011 183.783 55.842 175.073C70.2217 159.11 86.9085 146.333 107.698 139.597C119.244 135.847 130.981 134.653 143.004 138.019C145.221 138.64 147.266 139.635 149.204 140.869C150.21 141.33 151.175 141.897 152.2 142.279C152.611 142.621 153.049 142.985 153.46 143.326C153.379 143.87 154.615 144.333 153.648 144.939Z" fill="#EAEEEF"/>
<path d="M163.058 152.619C162.343 151.696 161.315 150.983 161.13 149.701C161.979 150.407 162.828 151.113 163.677 151.818C163.612 151.952 163.52 152.063 163.377 152.18C163.445 152.377 163.407 152.534 163.283 152.571C163.186 152.632 163.085 152.642 163.058 152.619Z" fill="#E57D73"/>
<path d="M152.227 142.302C151.14 142.385 150.285 141.909 149.444 141.304C149.376 141.107 149.418 141.001 149.515 140.94C149.639 140.902 149.717 140.92 149.744 140.943C149.887 140.827 150.003 140.688 150.091 140.526C150.803 141.118 151.515 141.71 152.227 142.302Z" fill="#E57D73"/>
<path d="M153.649 144.939C153.578 144.411 153.559 143.877 153.488 143.349C154.2 143.941 154.913 144.533 155.597 145.102C154.912 145.425 154.295 145.053 153.649 144.939Z" fill="#E5D8D6"/>
<path d="M160.281 148.995C159.749 149.023 159.221 149.101 158.688 149.128C158.458 148.514 157.98 147.975 158.145 147.219C158.857 147.811 159.569 148.403 160.281 148.995Z" fill="#E5D8D7"/>
<path d="M163.058 152.619C163.173 152.48 163.289 152.341 163.404 152.202C176.745 165.406 185.144 181.268 188.826 199.461C192.95 219.854 190.331 239.388 181.262 257.933C180.677 259.139 179.932 260.258 179.269 261.446C173.572 265.124 167.69 268.412 161.358 270.903C149.706 275.505 137.62 277.397 125.078 276.606C123.927 276.542 122.406 276.923 121.925 275.161C130.819 267.749 139.123 259.707 146.187 250.54C159.806 232.816 169.66 213.326 171.886 190.644C173.204 177.078 171.39 164.103 163.058 152.619Z" fill="#E44C3C"/>
<path d="M149.745 140.943C149.629 141.082 149.537 141.193 149.394 141.309C135.577 134.807 121.675 135.988 107.813 140.351C92.9119 145.072 80.0411 153.314 68.4382 163.596C55.8163 174.77 45.5457 187.851 37.4032 202.607C37.0926 203.148 36.622 203.603 36.2567 204.098C34.6802 203.822 34.6884 202.419 34.4194 201.349C31.4119 189.31 30.8914 177.175 33.3252 165.052C34.2374 160.5 35.2822 156.011 36.8996 151.669C37.8362 149.205 38.6675 146.7 40.377 144.643C46.4804 138.86 53.7524 134.847 61.432 131.737C89.6439 120.362 117.204 122.309 144.074 137.123C146.049 138.201 148.103 139.296 149.745 140.943Z" fill="#E44C3C"/>
<path d="M27.4893 325.202C24.9145 323.062 22.3901 320.917 19.8153 318.777C19.8988 317.06 21.375 316.454 22.4993 315.603C30.7466 309.581 38.9981 303.61 47.2453 297.588C49.8346 295.698 49.8405 295.468 47.4027 293.442C41.29 288.314 35.108 283.27 29.0227 278.165C27.1713 277.049 27.0647 278.794 26.6558 279.676C23.382 286.401 20.1861 293.144 16.9902 299.886C15.583 302.805 14.2306 305.77 12.796 308.666C12.299 309.71 11.9159 310.895 10.5337 311.109C8.53413 309.447 6.56191 307.808 4.5623 306.146C4.35999 304.662 5.12828 303.515 5.7134 302.309C10.1591 292.893 14.6869 283.544 19.1369 274.178C20.5398 271.209 20.4764 271.062 17.9247 268.894C16.3634 267.597 14.8294 266.322 13.2681 265.024C10.5837 262.793 10.5837 262.793 9.13456 265.818C4.66149 275.212 0.161027 284.583 -4.28894 293.949C-4.80476 295.071 -5.17932 296.357 -6.37136 297.012C-8.66535 295.481 -10.5059 293.293 -13.1233 292.152C-7.75356 281.623 -2.86401 270.837 2.31827 260.199C3.05652 258.698 3.59279 257.217 2.96508 255.521C2.96508 255.521 2.98819 255.493 2.9608 255.47C6.5917 257.454 9.49195 260.428 12.6651 263.019C33.6661 280.38 54.5747 297.852 75.5064 315.296C76.4103 316.048 77.4298 316.66 78.4073 317.379C78.1865 317.477 77.9426 317.603 77.6945 317.679C74.3642 316.838 72.4174 313.998 69.8366 312.088C67.1205 309.783 64.2616 307.595 61.6105 305.157C59.7624 303.48 58.2433 303.58 56.3539 305.017C47.9955 311.229 39.5463 317.271 31.1288 323.386C29.9727 324.164 28.9853 325.129 27.4893 325.202Z" fill="#F7E8AE"/>
<path d="M69.8335 311.145C72.4357 313.308 75.038 315.471 77.6633 317.606C68.0521 324.656 58.4135 331.683 48.8023 338.733C47.5813 339.645 46.415 340.603 45.1982 341.565C43.924 338.25 40.8323 336.621 38.4697 334.281C38.5139 333.002 39.563 332.464 40.4016 331.845C49.3214 325.348 58.2181 318.879 67.1379 312.382C67.9807 311.814 68.7962 311.223 69.8335 311.145Z" fill="#F7E8AE"/>
<path d="M2.91078 255.475C4.4609 256.341 4.42691 257.44 3.71176 258.914C-1.29 269.278 -6.26436 279.665 -11.1839 290.097C-11.6347 291.086 -12.1618 291.775 -13.2007 292.134C-13.7459 292.01 -14.268 291.858 -14.8406 291.711C-10.5959 282.926 -6.37858 274.119 -2.05599 265.352C-0.403263 262.026 0.828359 258.538 2.91078 255.475Z" fill="#F7E8AE"/>
<path d="M29.2935 277.45C23.9941 288.507 18.6716 299.591 13.3447 310.625C13.0428 311.267 12.6355 311.869 12.2788 312.465C11.7036 311.987 11.1283 311.509 10.53 311.059C13.9084 305.267 16.4317 298.999 19.3847 292.994C21.8826 287.927 24.33 282.865 26.6679 277.711C27.5276 275.841 28.25 276.254 29.2935 277.45Z" fill="#F7E8AE"/>
<path d="M14.7814 370.47C8.96743 376.964 0.572662 377.647 -6.16145 372.097C-15.9361 364.019 -25.6876 355.914 -35.416 347.782C-42.0765 342.199 -42.9719 333.747 -37.6467 326.895C-36.6068 327.148 -35.9553 327.924 -35.1884 328.562C-28.2856 334.299 -21.3828 340.036 -14.4801 345.774C-13.1379 346.889 -11.7726 347.977 -10.1155 348.602C-8.29844 349.314 -6.64076 349.047 -5.47546 347.477C-4.37946 345.992 -4.69562 344.366 -5.68701 342.884C-6.35564 341.905 -7.33317 341.187 -8.26449 340.413C-15.1673 334.675 -22.0931 328.966 -28.9497 323.173C-30.0453 322.263 -31.4585 321.511 -31.476 319.805C-28.8553 316.484 -26.0198 313.296 -23.3991 309.975C-22.3219 308.568 -21.253 308.563 -19.9236 309.527C-19.1652 310.064 -18.4805 310.633 -17.7683 311.225C-3.03143 323.473 11.7328 335.745 26.4696 347.993C26.9627 348.403 27.4558 348.813 27.9257 349.25C30.1342 351.274 30.1685 351.679 28.3204 353.902C25.8486 356.876 23.3536 359.878 20.8818 362.852C19.5323 363.751 18.6489 362.641 17.7766 361.963C15.2968 360.043 12.9599 358.006 10.5494 356.003C9.78248 355.365 9.01122 354.677 8.08254 354.235C6.4948 353.526 5.01168 353.75 3.78467 354.892C2.50716 356.039 2.27812 357.54 2.94774 359.131C3.59855 360.8 4.96815 361.938 6.26415 363.109C9.071 365.583 12.2518 367.663 14.7814 370.47Z" fill="#A36A43"/>
<path d="M20.3949 363.104C23.0054 359.964 25.5379 356.805 28.2032 353.71C29.2932 352.454 29.5044 351.643 28.0253 350.413C11.8726 337.082 -4.2338 323.695 -20.294 310.253C-21.7732 309.023 -22.5553 309.407 -23.5675 310.681C-26.1232 313.867 -28.7653 316.934 -31.3758 320.075C-31.5735 320.146 -31.683 320.055 -31.7276 319.83C-29.0521 316.555 -26.3767 313.28 -23.6738 310.028C-22.9807 309.195 -22.6514 308.575 -23.5811 307.521C-26.3153 304.402 -26.8767 300.787 -25.0708 297.165C-23.2042 293.359 -20.0047 291.46 -15.6022 291.736C-15.3454 291.761 -15.0425 291.731 -14.79 291.706C-13.9993 291.423 -13.2607 291.426 -12.4921 291.783C-9.79085 292.712 -8.01961 294.983 -5.74444 296.592C-2.18349 299.552 1.47416 302.451 4.9427 305.522C6.96112 307.106 8.93333 308.745 10.832 310.417C11.5125 310.935 12.1699 311.482 12.8042 312.056C15.3935 314.067 17.8631 316.167 20.3369 318.317C22.9306 320.379 25.4506 322.473 27.9519 324.646C31.6138 327.596 35.2253 330.55 38.7717 333.639C40.274 334.841 41.7993 336.014 43.1861 337.355C44.4042 338.508 45.5025 339.75 45.253 341.611C47.6761 350.063 40.6252 355.481 34.9105 354.444C34.3927 354.343 33.732 354.358 33.3254 354.067C30.2199 351.673 28.6662 353.766 26.9696 355.974C25.0231 358.539 22.807 360.927 20.7279 363.428C20.4712 363.403 20.3616 363.312 20.3949 363.104Z" fill="#C98152"/>
<path d="M20.3947 363.104C20.4811 363.223 20.5907 363.314 20.6729 363.383C18.7093 365.745 16.7457 368.108 14.7589 370.498C10.0178 367.732 5.82689 364.249 2.33755 360.033C1.00294 358.407 1.62533 355.54 3.21602 354.184C5.13872 352.539 7.34163 352.396 9.39173 354.053C13.1042 356.998 16.7242 360.054 20.3947 363.104Z" fill="#805333"/>
<path d="M2.9058 255.425C4.53806 248.557 6.17031 241.69 7.82566 234.794C9.18898 234.658 10.0091 235.622 10.913 236.373C38.9306 259.613 66.9252 282.881 94.8966 306.176C95.8005 306.928 96.8978 307.558 97.0137 308.923C91.6644 311.291 86.3382 313.632 81.0162 316.023C80.1331 316.416 79.2312 316.889 78.3754 317.305C76.6458 317.325 75.5706 316.055 74.3927 315.076C59.7192 302.974 45.2118 290.728 30.5152 278.654C22.6349 272.198 14.9856 265.465 6.96673 259.176C5.49615 258.047 4.09488 256.836 2.9058 255.425Z" fill="#802F34"/>
<path d="M40.4555 144.661C37.815 151.348 35.3851 158.117 34.0311 165.263C31.7385 177.55 32.1897 189.767 35.3616 201.944C35.5543 202.715 35.6041 203.602 36.3394 204.166C36.218 204.535 35.6292 204.798 36.0068 205.347C36.2124 206.27 35.9781 207.109 35.5418 207.968C29.6391 219.416 26.1911 231.589 25.2252 244.509C25.145 245.664 25.48 247.211 23.6751 247.544C18.3379 243.155 12.8203 239.039 7.90327 234.2C2.69145 208.486 7.47632 185.064 22.2998 163.83C27.3844 156.543 33.2951 149.988 40.4555 144.661Z" fill="#BE3A2B"/>
<path d="M121.871 275.115C125.426 276.801 129.215 276.143 132.821 276.039C148.211 275.578 162.371 271.134 175.305 263.039C176.295 262.405 177.258 261.748 178.193 261.069C178.746 260.682 178.974 260.966 179.214 261.401C161.04 292.35 134.252 308.81 97.662 308.756C92.0288 304.779 86.9732 300.107 81.6866 295.713C81.4757 294.128 82.7928 294.048 83.7076 293.728C86.4564 292.817 89.277 292.153 92.0215 291.192C101.491 287.878 110.117 283.016 118.08 276.946C118.919 276.327 119.865 276.08 120.748 275.686C121.167 275.517 121.508 275.33 121.871 275.115Z" fill="#BE3A2B"/>
<path d="M43.7483 262.677C43.1621 263.271 42.6589 263.041 42.0836 262.563C36.3587 257.804 30.6338 253.046 24.932 248.26C24.6033 247.987 24.4594 247.491 24.2231 247.107C25.1039 232.284 28.9066 218.291 35.9473 205.251C38.1446 210.743 40.1211 216.333 42.8105 221.623C46.3526 228.562 50.5212 235.081 55.8689 240.795C55.6362 241.353 55.4035 241.912 55.1709 242.47C55.391 243.264 54.9838 243.866 54.6039 244.49C51.3341 249.761 48.3613 255.233 45.5211 260.767C45.131 261.571 44.7453 262.425 43.7483 262.677Z" fill="#CFD2CF"/>
<path d="M81.8826 295.031C80.883 294.952 80.2401 294.277 79.5553 293.708C74.4604 289.473 69.3698 285.289 64.3211 280.999C63.6637 280.452 62.308 280.077 63.0548 278.677C63.106 277.78 63.7469 277.232 64.3921 276.734C69.4569 272.814 74.4122 268.802 79.1123 264.484C79.5598 264.057 80.0852 263.648 80.7819 263.757C81.2885 263.426 81.795 263.096 82.3016 262.765C88.9156 266.899 96.0137 269.838 103.437 272.107C109.111 273.862 114.96 274.682 120.775 275.709C110.199 284.589 98.0801 290.588 84.7136 294.188C83.7945 294.458 82.8249 294.733 81.8826 295.031Z" fill="#CFD2CF"/>
<path d="M80.7827 263.757C75.4007 269.341 69.2851 274.08 63.0282 278.655C61.9114 278.995 61.1488 278.408 60.3544 277.748C55.31 273.508 50.2425 269.297 45.1519 265.113C44.3575 264.452 43.6179 263.838 43.7717 262.65C47.125 255.662 50.6932 248.805 55.1712 242.47C56.6088 241.409 57.4316 242.704 58.1335 243.476C61.8925 247.869 66.164 251.701 70.7127 255.2C73.302 257.211 76.1643 258.838 78.7956 260.743C79.7731 261.461 81.5602 261.819 80.7827 263.757Z" fill="#BE3A2B"/>
<path d="M81.8834 295.031C82.0557 296.161 83.0854 296.594 83.8019 297.236C88.408 301.112 93.0603 304.932 97.6895 308.779C97.4645 308.827 97.2394 308.875 97.0143 308.923C67.2941 284.221 37.5465 259.496 7.82631 234.794C7.83225 234.564 7.83819 234.334 7.84413 234.104C12.4734 237.952 17.1026 241.799 21.7318 245.647C22.4714 246.262 23.0852 247.195 24.2278 247.157C25.2865 247.332 25.9654 248.132 26.7049 248.746C31.252 252.526 35.8264 256.328 40.3735 260.107C41.4418 260.995 42.5708 261.698 43.8196 262.313C49.8075 268.371 56.3225 273.739 63.35 278.546C66.6981 282.598 71.1593 285.366 74.9694 288.862C77.2832 290.926 80.0591 292.434 81.8834 295.031Z" fill="#802F34"/>
<path d="M501.196 368.043C501.196 368.043 513.155 321.34 494.085 310.336C475.015 299.332 456.566 317.174 456.083 340.158C455.6 363.143 475.698 400.177 456 434C456 434 549.571 432.221 570.71 394.855C590.49 359.89 552.054 329.119 501.196 368.043Z" fill="#623298"/>
<g clip-path="url(#clip5_276_5558)">
<path d="M84.8662 1118.67L92.6451 1129.6C92.6451 1129.6 104.539 1137.01 132.142 1117.47C160.848 1097.17 158.489 1085.4 156.783 1082.99C155.077 1080.59 147.448 1069.86 147.448 1069.86L84.8662 1118.67Z" fill="#C4222A"/>
<path d="M146.495 953.2C146.495 953.2 159.343 944.079 161.25 942.776C163.157 941.474 173.345 937.715 180.27 947.487C187.196 957.259 188.099 958.512 189.003 959.815C189.906 961.068 211.586 991.887 181.776 1017.9C177.861 1021.3 160.999 1032.58 160.999 1032.58L162.705 1019.35C162.705 1019.35 171.538 1013.49 174.449 1010.93C179.919 1006.12 189.454 995.896 187.096 980.461C185.389 969.386 174.499 956.507 173.094 954.553C171.689 952.548 167.322 949.943 163.709 952.498C160.096 955.054 150.711 961.92 150.711 961.92L146.495 953.2Z" fill="#C4222A"/>
<path d="M-40.0967 1074.87C-40.0967 1074.87 -19.2193 1109.25 24.0412 1119.32C65.2439 1128.95 99.7218 1118.72 118.843 1103.89C140.222 1087.3 153.672 1074.17 164.01 1044.96C174.298 1015.74 172.341 981.163 156.583 953.3C152.467 946.034 148.754 940.822 148.754 940.822L-40.0967 1074.87Z" fill="#FE4B34"/>
<path d="M148.804 940.822C153.32 947.136 114.326 983.217 62.3831 1020C10.4404 1056.78 -36.1323 1080.39 -40.649 1074.07C-45.1658 1067.76 -6.27152 1033.33 45.7213 996.547C97.7141 959.765 144.287 934.508 148.804 940.822Z" fill="white"/>
<path d="M46.8756 998.251C71.266 981.013 95.255 965.728 114.476 955.204C140.774 940.822 146.344 941.824 147.047 942.075C147.047 942.827 146.244 948.439 124.062 968.685C107.651 983.618 85.2679 1001.26 61.1284 1018.4C37.1896 1035.33 13.1505 1050.37 -6.57264 1060.74C-33.0207 1074.62 -38.3404 1073.22 -38.9929 1072.97C-39.0431 1072.27 -38.491 1067.11 -16.0076 1047.21C-0.0484505 1032.98 22.2844 1015.64 46.8756 998.251ZM45.7213 996.547C-6.27152 1033.33 -45.1658 1067.76 -40.649 1074.07C-36.1323 1080.39 10.3903 1056.78 62.3329 1020C114.275 983.217 153.27 947.186 148.804 940.822C144.337 934.458 97.6639 959.765 45.7213 996.547Z" fill="#A81B29"/>
<path d="M-39.8461 1074.72L-40.0469 1074.87C-40.0469 1074.87 -19.1695 1109.25 24.091 1119.32C65.2938 1128.95 99.7716 1118.72 118.893 1103.89C132.844 1093.06 143.434 1083.69 152.015 1070.36C53.9517 1101.13 0.403122 1075.48 -14.0003 1066.76C-27.4 1073.22 -36.7346 1076.23 -39.8461 1074.72Z" fill="#C4222A"/>
<path d="M154.575 949.792C154.575 950.093 154.425 957.61 131.088 978.908C114.778 993.791 92.4951 1011.38 68.3556 1028.47C10.9929 1069.01 -30.4609 1085.45 -34.3252 1082.69C-33.2211 1084.04 -31.9163 1085.55 -30.4609 1087.1C-26.0947 1087.1 -17.2619 1084.65 1.25675 1075.02C21.281 1064.6 45.9726 1049.27 70.6641 1031.78C95.6568 1014.09 118.491 995.996 135.003 980.812C150.611 966.43 155.93 958.963 157.386 954.854C157.085 954.353 156.834 953.801 156.533 953.3C155.88 952.097 155.228 950.895 154.575 949.792Z" fill="#C4222A"/>
<path d="M-26.0448 1069.86C-26.0448 1069.86 -32.3181 1066 11.6951 1036.54C54.4035 1007.97 81.3534 998.752 105.744 949.592C123.56 913.761 154.224 937.765 138.616 954.353C131.439 961.97 119.344 974.498 88.3795 998.201C61.2288 1019 12.7992 1053.73 -26.0448 1069.86Z" fill="#D77D41"/>
<path d="M72.3202 988.529C71.6176 988.83 70.8146 988.129 71.1659 987.377C72.822 983.518 75.9336 979.659 69.7607 971.241C58.0171 955.305 84.666 947.036 85.3184 968.334C85.5693 975.45 78.2421 986.024 72.3202 988.529Z" fill="#D77D41"/>
</g>
<path d="M1742.55 1154.28C1721.5 1112.28 1649.31 986.858 1601.27 805.667C1567.68 679.078 1560.24 524.958 1560.24 494.055C1560.48 486.206 1545.1 482.588 1528.25 482.312C1525.71 482.282 1521.54 482.282 1519 482.312C1502.14 482.588 1486.76 486.206 1487.01 494.055C1487.01 524.958 1479.56 679.078 1445.98 805.667C1397.93 986.888 1325.74 1112.28 1304.69 1154.28C1302.67 1158.3 1304.88 1163.66 1308.49 1163.66H1407.89C1409.98 1163.66 1411.78 1161.83 1412.3 1159.16C1417.82 1131.5 1450.18 985.693 1522.06 979.009C1522.58 978.948 1523.07 978.978 1523.59 978.978C1524.11 979.009 1524.6 978.978 1525.12 979.009C1597.01 985.662 1629.4 1131.5 1634.88 1159.16C1635.4 1161.83 1637.21 1163.66 1639.29 1163.66H1738.69C1742.37 1163.66 1744.58 1158.3 1742.55 1154.28Z" fill="#FBEB62"/>
<path d="M1331.32 1154.28C1352.37 1112.28 1441.44 984.834 1477.45 840.464C1516.21 685.026 1509.83 524.958 1509.83 494.055C1509.62 487.279 1521.05 483.661 1535.02 482.619C1532.82 482.466 1530.55 482.343 1528.22 482.312C1525.68 482.282 1521.51 482.282 1518.97 482.312C1502.11 482.588 1486.73 486.206 1486.98 494.055C1486.98 524.958 1479.53 679.078 1445.95 805.667C1397.93 986.888 1325.74 1112.28 1304.69 1154.28C1302.67 1158.3 1304.88 1163.66 1308.49 1163.66H1335.12C1331.47 1163.66 1329.3 1158.3 1331.32 1154.28Z" fill="#FBCA47"/>
<path d="M1496.51 499.696H1536.77C1543.57 499.696 1549.12 506.992 1549.12 516.037C1549.12 525.05 1543.6 532.377 1536.77 532.377H1496.51C1489.7 532.377 1490.38 525.081 1490.38 516.037C1490.38 506.992 1489.7 499.696 1496.51 499.696Z" fill="#FBCA47"/>
<path d="M1504.81 571.866H1538.85C1547.4 571.866 1554.32 578.795 1554.32 587.348V589.065C1554.32 597.619 1547.4 604.548 1538.85 604.548H1504.81C1496.26 604.548 1489.33 597.619 1489.33 589.065V587.348C1489.36 578.795 1496.29 571.866 1504.81 571.866Z" fill="#FBCA47"/>
<path d="M1510.39 642.595H1544.43C1552.98 642.595 1559.9 649.524 1559.9 658.077V659.794C1559.9 668.348 1552.98 675.277 1544.43 675.277H1510.39C1501.84 675.277 1494.91 668.348 1494.91 659.794V658.077C1494.94 649.524 1501.87 642.595 1510.39 642.595Z" fill="#FBCA47"/>
<path d="M1489.03 715.347H1551.94C1560.48 715.347 1567.41 722.276 1567.41 730.83V732.547C1567.41 741.1 1560.48 748.029 1551.94 748.029H1489.03C1484.59 748.029 1480.97 744.411 1480.97 739.966V723.441C1480.97 718.965 1484.59 715.347 1489.03 715.347Z" fill="#FBCA47"/>
<path d="M1421.19 930.906H1589.47C1597.07 930.906 1603.26 937.068 1603.26 944.702V949.791C1603.26 957.395 1597.1 963.588 1589.47 963.588H1421.19C1417.63 963.588 1414.75 960.706 1414.75 957.15V937.375C1414.75 933.788 1417.63 930.906 1421.19 930.906Z" fill="#FBCA47"/>
<path d="M1398.3 997.22H1424.65C1433.2 997.22 1440.13 1004.15 1440.13 1012.7V1014.42C1440.13 1022.97 1433.2 1029.9 1424.65 1029.9H1398.3C1389.75 1029.9 1382.83 1022.97 1382.83 1014.42V1012.7C1382.83 1004.15 1389.75 997.22 1398.3 997.22Z" fill="#FBCA47"/>
<path d="M1365.79 1063.17H1399.83C1408.38 1063.17 1415.3 1070.09 1415.3 1078.65V1080.37C1415.3 1088.92 1408.38 1095.85 1399.83 1095.85H1365.79C1357.24 1095.85 1350.31 1088.92 1350.31 1080.37V1078.65C1350.35 1070.06 1357.27 1063.17 1365.79 1063.17Z" fill="#FBCA47"/>
<path d="M1560.51 502.578H1486.73C1479.41 502.578 1473.49 496.63 1473.49 489.333V459.84C1473.49 452.513 1479.44 446.595 1486.73 446.595H1560.51C1567.84 446.595 1573.75 452.543 1573.75 459.84V489.333C1573.75 496.63 1567.84 502.578 1560.51 502.578Z" fill="#F79F23"/>
<path d="M1495.19 484.796V464.346C1495.19 454.536 1501.19 446.565 1508.64 446.565H1483.42C1477.93 446.565 1473.46 452.451 1473.46 459.717V489.425C1473.46 496.691 1477.9 502.577 1483.42 502.577H1508.64C1501.22 502.577 1495.19 494.606 1495.19 484.796Z" fill="#CF6B13"/>
<path d="M1578.26 796.346H1470.43V828.997H1492.77L1497.88 803.49C1498.62 799.78 1501.16 797.205 1504.07 797.205H1542.87C1545.75 797.205 1548.29 799.78 1549.05 803.459L1554.26 828.997H1578.26C1585.06 828.997 1590.6 821.701 1590.6 812.657C1590.6 803.643 1585.09 796.346 1578.26 796.346Z" fill="#FBCA47"/>
<path d="M1480.51 887.157L1497.45 802.724C1498.22 798.953 1500.79 796.316 1503.74 796.316H1543.2C1546.14 796.316 1548.72 798.922 1549.48 802.693L1566.73 887.126C1567.87 892.614 1564.74 897.979 1560.45 897.979H1486.79C1482.53 897.979 1479.41 892.645 1480.51 887.157Z" fill="url(#paint0_linear_276_5558)"/>
<path d="M1612.64 796.346H1444.48C1435.87 796.346 1428.91 789.356 1428.91 780.772V779.024C1428.91 770.409 1435.9 763.45 1444.48 763.45H1612.64C1616.74 763.45 1620.08 766.791 1620.08 770.9V788.896C1620.08 793.004 1616.74 796.346 1612.64 796.346Z" fill="#F79F23"/>
<path d="M1646.8 930.906H1406.63C1398.02 930.906 1391.07 923.916 1391.07 915.331V913.584C1391.07 904.969 1398.05 898.009 1406.63 898.009H1646.8C1650.9 898.009 1654.24 901.351 1654.24 905.459V923.456C1654.24 927.564 1650.9 930.906 1646.8 930.906Z" fill="#F79F23"/>
<path d="M1444.08 914.442C1444.08 905.368 1449.65 897.979 1456.52 897.979H1403.51C1396.65 897.979 1391.07 905.337 1391.07 914.442C1391.07 923.517 1396.65 930.906 1403.51 930.906H1456.52C1449.62 930.906 1444.08 923.517 1444.08 914.442Z" fill="#CF6B13"/>
<path d="M1481.92 779.883C1481.92 770.808 1487.5 763.419 1494.36 763.419H1441.35C1434.49 763.419 1428.91 770.777 1428.91 779.883C1428.91 788.958 1434.49 796.346 1441.35 796.346H1494.36C1487.5 796.346 1481.92 788.958 1481.92 779.883Z" fill="#CF6B13"/>
<path d="M1562.84 505.674H1489.06C1481.74 505.674 1475.82 499.726 1475.82 492.43V462.936C1475.82 455.609 1481.77 449.692 1489.06 449.692H1562.84C1570.17 449.692 1576.08 455.639 1576.08 462.936V492.43C1576.11 499.726 1570.17 505.674 1562.84 505.674Z" stroke="#BF610C" stroke-width="0.6" stroke-miterlimit="10" stroke-linecap="round" stroke-linejoin="round"/>
<path d="M1456.83 786.904C1456.4 788.682 1456.09 789.877 1455.29 792.943C1446.59 827.373 1437.12 859.871 1427.29 890.314" stroke="#BF610C" stroke-width="0.6" stroke-miterlimit="10" stroke-linecap="round" stroke-linejoin="round"/>
<path d="M1488.32 594.522C1483.54 641.46 1476.25 695.541 1465.37 748.274" stroke="#BF610C" stroke-width="0.6" stroke-miterlimit="10" stroke-linecap="round" stroke-linejoin="round"/>
<path d="M1489.55 582.167C1489.36 584.006 1489.18 585.846 1489 587.716" stroke="#BF610C" stroke-width="0.6" stroke-miterlimit="10" stroke-linecap="round" stroke-linejoin="round"/>
<path d="M1493.16 538.847C1492.43 549.025 1491.57 559.878 1490.53 571.345" stroke="#BF610C" stroke-width="0.6" stroke-miterlimit="10" stroke-linecap="round" stroke-linejoin="round"/>
<path d="M1495.25 505.674C1494.85 512.971 1494.39 520.942 1493.81 529.526" stroke="#BF610C" stroke-width="0.6" stroke-miterlimit="10" stroke-linecap="round" stroke-linejoin="round"/>
<path d="M1414.26 929.097C1372.53 1048.7 1328.84 1128.41 1313 1161.61C1310.97 1165.87 1313.15 1171.54 1316.83 1171.54L1409.91 1171.57C1412 1171.57 1413.84 1169.61 1414.36 1166.82C1419.9 1137.57 1456.43 983.363 1528.8 976.342C1529.32 976.28 1529.84 976.311 1530.33 976.311C1530.85 976.342 1531.34 976.311 1531.86 976.372C1604.24 983.454 1639.84 1137.67 1645.36 1166.91C1645.88 1169.73 1647.72 1171.67 1649.8 1171.67L1749.88 1171.7C1753.55 1171.7 1755.76 1166.03 1753.71 1161.79C1747.73 1149.26 1737.65 1129.7 1725.18 1103.76" stroke="#BF610C" stroke-width="0.6" stroke-miterlimit="10" stroke-linecap="round" stroke-linejoin="round"/>
<path d="M1580.28 925.142L1409.42 925.081C1402.5 925.081 1396.92 917.294 1396.92 907.667C1396.92 898.071 1402.53 890.284 1409.45 890.284H1421.53" stroke="#BF610C" stroke-width="0.6" stroke-miterlimit="10" stroke-linecap="round" stroke-linejoin="round"/>
<path d="M1468.5 890.314L1655.87 890.376C1659.18 890.376 1661.84 894.116 1661.84 898.684V916.834C1661.84 921.433 1659.15 925.142 1655.87 925.142H1628.17H1606.97" stroke="#BF610C" stroke-width="0.6" stroke-miterlimit="10" stroke-linecap="round" stroke-linejoin="round"/>
<path d="M1428.45 890.314H1460.44" stroke="#BF610C" stroke-width="0.6" stroke-miterlimit="10" stroke-linecap="round" stroke-linejoin="round"/>
<path d="M1566.79 786.689L1446.53 786.658C1441.66 786.658 1437.7 780.649 1437.73 773.23C1437.73 765.811 1441.69 759.802 1446.56 759.802H1455.08" stroke="#BF610C" stroke-width="0.6" stroke-miterlimit="10" stroke-linecap="round" stroke-linejoin="round"/>
<path d="M1488.11 759.832L1619.99 759.863C1622.32 759.863 1624.19 762.745 1624.19 766.271V780.282C1624.19 783.838 1622.29 786.689 1619.96 786.689H1600.44H1585.52" stroke="#BF610C" stroke-width="0.6" stroke-miterlimit="10" stroke-linecap="round" stroke-linejoin="round"/>
<path d="M1459.92 759.802L1482.44 759.832" stroke="#BF610C" stroke-width="0.6" stroke-miterlimit="10" stroke-linecap="round" stroke-linejoin="round"/>
</g>
<defs>
<linearGradient id="paint0_linear_276_5558" x1="1480.28" y1="847.162" x2="1566.96" y2="847.162" gradientUnits="userSpaceOnUse">
<stop stop-color="#BCFBFB"/>
<stop offset="0.2616" stop-color="#A6F9FC"/>
<stop offset="1" stop-color="#66F4FF"/>
</linearGradient>
<clipPath id="clip0_276_5558">
<rect width="1512" height="1077" fill="white"/>
</clipPath>
<clipPath id="clip1_276_5558">
<rect width="598.902" height="600" fill="white" transform="translate(913 139)"/>
</clipPath>
<clipPath id="clip2_276_5558">
<rect width="179.78" height="120" fill="white" transform="translate(1252 153)"/>
</clipPath>
<clipPath id="clip3_276_5558">
<rect width="1156.9" height="1200" fill="white" transform="translate(726 541)"/>
</clipPath>
<clipPath id="clip4_276_5558">
<rect width="1090.76" height="2000" fill="white" transform="translate(-520 120)"/>
</clipPath>
<clipPath id="clip5_276_5558">
<rect width="238.434" height="200" fill="white" transform="translate(-41 931)"/>
</clipPath>
</defs>
</svg>
