<svg width="1512" height="982" viewBox="0 0 1512 982" fill="none" xmlns="http://www.w3.org/2000/svg">
<g clip-path="url(#clip0_348_23135)">
<rect width="1512" height="982" fill="#C0F8FB"/>
<g style="mix-blend-mode:hard-light">
<path d="M604.298 731.494V693.094C604.298 683.108 588.563 675.021 569.133 675.021H394.47C390.774 675.021 387.764 676.568 387.764 678.467V770.952C387.764 772.852 384.755 774.399 381.059 774.399H363.582C359.886 774.399 356.876 772.852 356.876 770.952V510.866C356.876 508.342 352.916 506.306 348.006 506.306H329.103C324.087 506.306 319.969 504.217 319.969 501.612V456.536C319.916 453.47 315.058 451 309.092 451H166.637C162.941 451 159.932 452.547 159.932 454.446V476.916C159.932 478.816 156.922 480.363 153.226 480.363H141.346C137.65 480.363 134.64 481.91 134.64 483.809V890.873C134.64 893.478 130.522 895.622 125.4 895.622H0V981.676H610" fill="#1841BC" fill-opacity="0.1"/>
</g>
<g style="mix-blend-mode:hard-light">
<path d="M1506.3 731.494V693.094C1506.3 683.108 1490.56 675.021 1471.13 675.021H1296.47C1292.77 675.021 1289.76 676.568 1289.76 678.467V770.952C1289.76 772.852 1286.75 774.399 1283.06 774.399H1265.58C1261.89 774.399 1258.88 772.852 1258.88 770.952V510.866C1258.88 508.342 1254.92 506.306 1250.01 506.306H1231.1C1226.09 506.306 1221.97 504.217 1221.97 501.612V456.536C1221.92 453.47 1217.06 451 1211.09 451H1068.64C1064.94 451 1061.93 452.547 1061.93 454.446V476.916C1061.93 478.816 1058.92 480.363 1055.23 480.363H1043.35C1039.65 480.363 1036.64 481.91 1036.64 483.809V890.873C1036.64 893.478 1032.52 895.622 1027.4 895.622H902V981.676H1512" fill="#1841BC" fill-opacity="0.1"/>
</g>
<g style="mix-blend-mode:hard-light">
<path d="M924.401 844.494V806.094C924.401 796.108 914.47 788.021 902.207 788.021H791.969C789.636 788.021 787.736 789.568 787.736 791.467V883.952C787.736 885.852 785.837 887.399 783.504 887.399H772.474C770.141 887.399 768.242 885.852 768.242 883.952V623.866C768.242 621.342 765.742 619.306 762.643 619.306H750.713C747.547 619.306 744.948 617.217 744.948 614.612V569.536C744.914 566.47 741.848 564 738.083 564H648.173C645.84 564 643.94 565.547 643.94 567.446V589.916C643.94 591.816 642.041 593.363 639.708 593.363H632.21C629.877 593.363 627.978 594.91 627.978 596.809V1003.87C627.978 1006.48 625.379 1008.62 622.146 1008.62H543V1094.68H928" fill="#1841BC" fill-opacity="0.1"/>
</g>
<g clip-path="url(#clip1_348_23135)">
<path d="M1024.05 62H1014.11C1009.51 62 1005.79 65.7253 1005.79 70.3207V155.749C1005.79 160.344 1009.51 164.069 1014.11 164.069H1024.05C1028.64 164.069 1032.37 160.344 1032.37 155.749V70.3207C1032.37 65.7253 1028.64 62 1024.05 62Z" fill="#FBCA47"/>
<path d="M1270.99 940.925C1246.77 892.623 1163.7 748.386 1108.42 540.016C1069.81 394.44 1061.21 217.202 1061.21 181.663C1061.49 172.637 1043.79 168.477 1024.4 168.159C1021.47 168.124 1016.68 168.124 1013.75 168.159C994.362 168.477 976.663 172.637 976.945 181.663C976.945 217.202 968.377 394.44 929.735 540.016C874.452 748.421 791.386 892.623 767.165 940.925C764.838 945.544 767.376 951.714 771.537 951.714H885.946C888.343 951.714 890.424 949.599 891.023 946.531C897.369 914.729 934.601 747.046 1017.31 739.36C1017.91 739.29 1018.48 739.36 1019.08 739.325C1019.68 739.325 1020.24 739.325 1020.84 739.36C1103.55 747.011 1140.82 914.729 1147.13 946.531C1147.73 949.599 1149.81 951.714 1152.21 951.714H1266.58C1270.78 951.714 1273.28 945.544 1270.95 940.925H1270.99Z" fill="#FBEB62"/>
<path d="M1173.4 946.531C1167.05 914.73 1129.82 747.046 1047.11 739.36C1046.51 739.29 1045.94 739.36 1045.34 739.325C1044.74 739.325 1044.18 739.325 1043.58 739.36C1039.7 739.713 1035.89 740.453 1032.19 741.476C1106.97 762.489 1141.07 916.21 1147.13 946.531C1147.73 949.599 1149.81 951.714 1152.21 951.714H1178.47C1176.08 951.714 1174 949.599 1173.4 946.531Z" fill="#FBCA47"/>
<path d="M797.803 940.925C822.025 892.623 924.517 746.059 965.945 580.033C1010.54 401.244 1003.21 217.202 1003.21 181.663C1002.96 173.871 1016.12 169.711 1032.19 168.512C1029.65 168.336 1027.05 168.195 1024.37 168.159C1021.44 168.124 1016.64 168.124 1013.72 168.159C994.327 168.477 976.628 172.637 976.91 181.663C976.91 217.202 968.342 394.44 929.7 540.016C874.417 748.421 791.351 892.623 767.13 940.925C764.803 945.544 767.341 951.714 771.501 951.714H802.14C797.944 951.714 795.441 945.544 797.768 940.925H797.803Z" fill="#FBCA47"/>
<path d="M987.873 188.15H1034.2C1042.03 188.15 1048.41 196.541 1048.41 206.942C1048.41 217.308 1042.06 225.734 1034.2 225.734H987.873C980.046 225.734 980.822 217.343 980.822 206.942C980.822 196.577 980.046 188.15 987.873 188.15Z" fill="#FBCA47"/>
<path d="M1036.6 271.146H997.463C987.63 271.146 979.658 279.117 979.658 288.95V290.89C979.658 300.723 987.63 308.694 997.463 308.694H1036.6C1046.43 308.694 1054.4 300.723 1054.4 290.89V288.95C1054.4 279.117 1046.43 271.146 1036.6 271.146Z" fill="#FBCA47"/>
<path d="M1043.02 352.484H1003.88C994.048 352.484 986.076 360.455 986.076 370.289V372.228C986.076 382.061 994.048 390.033 1003.88 390.033H1043.02C1052.85 390.033 1060.82 382.061 1060.82 372.228V370.289C1060.82 360.455 1052.85 352.484 1043.02 352.484Z" fill="#FBCA47"/>
<path d="M979.271 436.149H1051.65C1061.46 436.149 1069.46 444.117 1069.46 453.954V455.928C1069.46 465.73 1061.49 473.733 1051.65 473.733H979.271C974.158 473.733 969.998 469.573 969.998 464.46V445.457C969.998 440.345 974.158 436.184 979.271 436.184V436.149Z" fill="#FBCA47"/>
<path d="M901.213 684.042H1094.84C1103.59 684.042 1110.71 691.164 1110.71 699.908V705.76C1110.71 714.504 1103.59 721.626 1094.84 721.626H901.213C897.123 721.626 893.809 718.312 893.809 714.222V691.481C893.809 687.391 897.123 684.077 901.213 684.077V684.042Z" fill="#FBCA47"/>
<path d="M905.161 760.303H874.875C865.042 760.303 857.07 768.274 857.07 778.108V780.047C857.07 789.88 865.042 797.852 874.875 797.852H905.161C914.994 797.852 922.966 789.88 922.966 780.047V778.108C922.966 768.274 914.994 760.303 905.161 760.303Z" fill="#FBCA47"/>
<path d="M876.638 836.141H837.502C827.669 836.141 819.697 844.113 819.697 853.946V855.885C819.697 865.718 827.669 873.69 837.502 873.69H876.638C886.471 873.69 894.442 865.718 894.442 855.885V853.946C894.442 844.113 886.471 836.141 876.638 836.141Z" fill="#FBCA47"/>
<path d="M1061.56 127.049H976.628C968.216 127.049 961.396 133.869 961.396 142.28V176.233C961.396 184.645 968.216 191.464 976.628 191.464H1061.56C1069.97 191.464 1076.79 184.645 1076.79 176.233V142.28C1076.79 133.869 1069.97 127.049 1061.56 127.049Z" fill="#F79F23"/>
<path d="M986.359 171.015V147.498C986.359 136.216 993.269 127.049 1001.84 127.049H972.82C966.509 127.049 961.361 133.819 961.361 142.175V176.339C961.361 184.695 966.474 191.464 972.82 191.464H1001.84C993.304 191.464 986.359 182.297 986.359 171.015Z" fill="#CF6B13"/>
<path d="M1081.94 529.298H957.869V566.847H983.572L989.46 537.513C990.306 533.247 993.232 530.285 996.582 530.285H1041.22C1044.53 530.285 1047.46 533.247 1048.34 537.478L1054.33 566.847H1081.94C1089.77 566.847 1096.15 558.456 1096.15 548.055C1096.15 537.654 1089.8 529.263 1081.94 529.263V529.298Z" fill="#FBCA47"/>
<path d="M969.47 633.73L988.967 536.632C989.848 532.295 992.81 529.263 996.194 529.263H1041.61C1044.99 529.263 1047.95 532.26 1048.83 536.596L1068.68 633.695C1069.99 640.006 1066.39 646.176 1061.46 646.176H976.697C971.761 646.176 968.2 640.006 969.47 633.73Z" fill="url(#paint0_linear_348_23135)"/>
<path d="M928.006 491.432H1121.5C1126.22 491.432 1130.07 495.275 1130.07 500V520.696C1130.07 525.42 1126.22 529.263 1121.5 529.263H928.006C918.099 529.263 910.096 521.224 910.096 511.352V509.343C910.096 499.435 918.134 491.432 928.006 491.432Z" fill="#F79F23"/>
<path d="M884.465 646.176H1160.81C1165.54 646.176 1169.38 650.019 1169.38 654.743V675.439C1169.38 680.164 1165.54 684.007 1160.81 684.007H884.465C874.558 684.007 866.555 675.968 866.555 666.096V664.086C866.555 654.179 874.593 646.176 884.465 646.176Z" fill="#F79F23"/>
<path d="M927.55 665.109C927.55 654.673 933.966 646.176 941.864 646.176H880.869C872.971 646.176 866.555 654.637 866.555 665.109C866.555 675.545 872.971 684.042 880.869 684.042H941.864C933.966 684.042 927.55 675.58 927.55 665.109Z" fill="#CF6B13"/>
<path d="M971.091 510.365C971.091 499.929 977.507 491.432 985.405 491.432H924.41C916.513 491.432 910.096 499.894 910.096 510.365C910.096 520.801 916.513 529.298 924.41 529.298H985.405C977.507 529.298 971.091 520.837 971.091 510.365Z" fill="#CF6B13"/>
<path d="M1064.24 130.61H979.307C970.895 130.61 964.076 137.43 964.076 145.841V179.794C964.076 188.206 970.895 195.025 979.307 195.025H1064.24C1072.65 195.025 1079.47 188.206 1079.47 179.794V145.841C1079.47 137.43 1072.65 130.61 1064.24 130.61Z" stroke="#BF610C" stroke-width="0.6" stroke-linecap="round" stroke-linejoin="round"/>
<path d="M942.214 518.439C941.721 520.484 941.368 521.859 940.452 525.385C930.439 564.978 919.544 602.351 908.227 637.361" stroke="#BF610C" stroke-width="0.6" stroke-linecap="round" stroke-linejoin="round"/>
<path d="M978.46 297.2C972.96 351.179 964.569 413.373 952.053 474.015" stroke="#BF610C" stroke-width="0.6" stroke-linecap="round" stroke-linejoin="round"/>
<path d="M979.869 282.992C979.657 285.107 979.446 287.223 979.234 289.373" stroke="#BF610C" stroke-width="0.6" stroke-linecap="round" stroke-linejoin="round"/>
<path d="M984.03 233.173C983.184 244.879 982.197 257.36 980.998 270.546" stroke="#BF610C" stroke-width="0.6" stroke-linecap="round" stroke-linejoin="round"/>
<path d="M986.429 195.025C985.97 203.416 985.441 212.583 984.771 222.455" stroke="#BF610C" stroke-width="0.6" stroke-linecap="round" stroke-linejoin="round"/>
<path d="M1111.27 486.602C1087.37 375.33 1077.57 255.738 1074.32 190.512" stroke="#BF610C" stroke-width="0.6" stroke-linecap="round" stroke-linejoin="round"/>
<path d="M1226.04 828.913C1220.43 816.397 1214.65 803.105 1208.76 789.073C1179.18 718.735 1146.6 629.675 1120.33 525.42C1119.77 523.163 1119.21 520.907 1118.64 518.65" stroke="#BF610C" stroke-width="0.6" stroke-linecap="round" stroke-linejoin="round"/>
<path d="M1244.51 868.401C1241.83 862.725 1239.04 856.837 1236.19 850.702C1233.83 845.625 1231.43 840.407 1228.96 835.013" stroke="#CF6B13" stroke-width="0.6" stroke-linecap="round" stroke-linejoin="round"/>
<path d="M1248.85 877.321C1248.28 876.158 1247.72 874.959 1247.15 873.76" stroke="#CF6B13" stroke-width="0.6" stroke-linecap="round" stroke-linejoin="round"/>
<path d="M893.243 681.962C845.223 819.5 794.946 911.168 776.718 949.352C774.391 954.253 776.895 960.775 781.125 960.775H888.237C890.634 960.775 892.75 958.554 893.349 955.346C899.73 921.71 941.757 744.367 1025.03 736.293C1025.63 736.222 1026.23 736.293 1026.8 736.258C1027.4 736.258 1027.96 736.258 1028.56 736.328C1111.84 744.473 1152.81 921.816 1159.15 955.451C1159.75 958.695 1161.87 960.916 1164.26 960.916H1279.41C1283.65 960.916 1286.18 954.429 1283.82 949.528C1276.95 935.108 1265.35 912.614 1251 882.786" stroke="#BF610C" stroke-width="0.6" stroke-linecap="round" stroke-linejoin="round"/>
<path d="M1084.27 677.414L887.672 677.343C879.704 677.343 873.287 668.388 873.287 657.317C873.287 646.282 879.739 637.326 887.707 637.326H901.599" stroke="#BF610C" stroke-width="0.6" stroke-linecap="round" stroke-linejoin="round"/>
<path d="M1108 677.449H1094.6" stroke="#BF610C" stroke-width="0.6" stroke-linecap="round" stroke-linejoin="round"/>
<path d="M955.648 637.361L1171.25 637.432C1175.05 637.432 1178.12 641.733 1178.12 646.987V667.859C1178.12 673.147 1175.02 677.413 1171.21 677.413H1139.34H1114.94" stroke="#BF610C" stroke-width="0.6" stroke-linecap="round" stroke-linejoin="round"/>
<path d="M909.566 637.361H946.375" stroke="#BF610C" stroke-width="0.6" stroke-linecap="round" stroke-linejoin="round"/>
<path d="M1068.75 518.192H930.369C924.763 518.157 920.215 511.246 920.25 502.714C920.25 494.182 924.798 487.271 930.404 487.271H940.206" stroke="#BF610C" stroke-width="0.6" stroke-linecap="round" stroke-linejoin="round"/>
<path d="M1085.46 518.192H1076.02" stroke="#BF610C" stroke-width="0.6" stroke-linecap="round" stroke-linejoin="round"/>
<path d="M978.213 487.307H1129.96C1132.64 487.342 1134.79 490.656 1134.79 494.746V510.859C1134.79 514.948 1132.6 518.227 1129.92 518.227H1107.47H1090.3" stroke="#BF610C" stroke-width="0.6" stroke-linecap="round" stroke-linejoin="round"/>
<path d="M945.775 487.271L971.689 487.307" stroke="#BF610C" stroke-width="0.6" stroke-linecap="round" stroke-linejoin="round"/>
<path d="M917.395 944.522H741.85C736.962 944.522 733 948.484 733 953.371V973.15C733 978.038 736.962 982 741.85 982H917.395C922.282 982 926.244 978.038 926.244 973.15V953.371C926.244 948.484 922.282 944.522 917.395 944.522Z" fill="#CF6B13"/>
<path d="M1292.85 944.522H1117.3C1112.42 944.522 1108.45 948.484 1108.45 953.371V973.15C1108.45 978.038 1112.42 982 1117.3 982H1292.85C1297.74 982 1301.7 978.038 1301.7 973.15V953.371C1301.7 948.484 1297.74 944.522 1292.85 944.522Z" fill="#CF6B13"/>
<g clip-path="url(#clip2_348_23135)">
<path d="M1271.11 544.908C1268.55 554.413 1260.21 560.543 1250.55 559.961C1241.39 559.418 1233.59 552.279 1232.23 543.162C1230.8 533.502 1235.88 524.811 1244.92 521.436C1246.82 522.018 1246.16 523.647 1246.16 524.85C1246.16 533.269 1249.92 539.243 1257.41 542.968C1260.79 544.636 1264.36 544.636 1267.97 544.442C1269.05 544.404 1270.18 543.938 1271.11 544.869V544.908Z" fill="#184B90"/>
<path d="M1271.11 544.908C1267.35 545.257 1263.62 545.761 1259.9 544.714C1250.82 542.153 1245.11 533.618 1245.42 525.393C1245.46 524.074 1246.08 522.638 1244.96 521.435C1252.37 518.603 1259.16 520 1264.98 525.16C1270.88 530.398 1273.13 537.071 1271.11 544.908Z" fill="#78B2EE"/>
</g>
</g>
<g clip-path="url(#clip3_348_23135)">
<path d="M1324.83 316H1326.28C1326.62 316.218 1327.07 316.187 1327.37 316.499C1328.85 317.763 1329.52 319.495 1330.16 321.226C1331.77 325.47 1332.49 329.9 1333.14 334.362C1334.59 344.066 1334.47 353.832 1334.3 363.582C1334.24 367.466 1333.91 371.367 1333.35 375.236C1333.28 375.594 1333.25 375.953 1332.8 376.062C1331.68 375.75 1330.55 376.031 1329.45 376.156C1326.31 376.515 1323.19 376.359 1320.07 376C1319.46 375.938 1318.87 375.938 1318.28 376.062C1317.81 375.969 1317.78 375.61 1317.7 375.251C1317.14 370.368 1316.7 365.485 1316.7 360.571C1316.7 354.924 1316.51 349.261 1316.95 343.613C1317.5 336.53 1318.23 329.463 1320.37 322.63C1321.07 320.399 1321.82 318.153 1323.69 316.484C1324.02 316.187 1324.47 316.218 1324.83 316Z" fill="#E44C3C"/>
<path d="M1333.06 375.282C1333.33 371.835 1333.66 368.371 1333.84 364.924C1334.17 358.699 1334.14 352.459 1333.84 346.218C1333.66 342.287 1333.33 338.371 1332.78 334.471C1332.14 329.76 1331.3 325.095 1329.59 320.633C1328.99 319.105 1328.23 317.638 1326.98 316.484C1326.84 316.016 1327.37 316.203 1327.48 316H1327.96C1328.48 316.203 1329.06 316.14 1329.57 316.359C1332.27 316.64 1334.52 317.95 1336.62 319.463C1340.94 322.599 1343.99 326.733 1346.26 331.413C1349.02 337.045 1350.55 343.005 1351.19 349.183C1351.85 355.626 1351.49 362.022 1350.18 368.387C1350.1 368.637 1349.98 368.855 1349.82 369.058C1346.11 371.663 1341.99 373.457 1337.6 374.674C1336.53 374.97 1335.44 375.251 1334.33 375.423C1333.89 375.485 1333.45 375.641 1333.08 375.282H1333.06Z" fill="#EAEEEF"/>
<path d="M1324.11 316.484C1321.65 318.933 1320.83 322.147 1320.02 325.314C1318.65 330.68 1318.01 336.172 1317.53 341.679C1316.92 348.808 1316.95 355.938 1317.12 363.067C1317.22 366.874 1317.5 370.696 1318 374.487C1318.03 374.752 1318 375.033 1318.01 375.298C1317.54 375.719 1317.03 375.485 1316.53 375.392C1311.47 374.456 1306.83 372.505 1302.46 369.9C1302.05 369.651 1301.66 369.385 1301.24 369.151C1301.02 368.98 1300.9 368.761 1300.85 368.496C1299.96 363.52 1299.4 358.527 1299.6 353.473C1299.98 344.206 1302.02 335.36 1307.14 327.388C1309.98 322.958 1313.6 319.323 1318.59 317.123C1319.51 316.718 1320.48 316.484 1321.47 316.359C1321.94 316.234 1322.43 316.156 1322.89 316H1323.61C1323.72 316.203 1324.25 316.016 1324.11 316.484Z" fill="#EAEEEF"/>
<path d="M1329.43 316.437C1328.93 316.328 1328.39 316.374 1327.96 316H1329.42C1329.42 316 1329.43 316.125 1329.42 316.203C1329.49 316.25 1329.52 316.312 1329.49 316.359C1329.46 316.421 1329.45 316.437 1329.42 316.437H1329.43Z" fill="#E57D73"/>
<path d="M1322.89 316C1322.55 316.328 1322.13 316.406 1321.68 316.437C1321.6 316.39 1321.58 316.343 1321.6 316.296C1321.63 316.25 1321.66 316.234 1321.68 316.234C1321.69 316.156 1321.69 316.078 1321.68 316H1322.88H1322.89Z" fill="#E57D73"/>
<path d="M1324.11 316.484C1323.94 316.328 1323.78 316.156 1323.61 316C1324.02 316 1324.42 316 1324.81 316C1324.67 316.296 1324.36 316.343 1324.09 316.484H1324.11Z" fill="#E5D8D6"/>
<path d="M1327.48 316C1327.31 316.156 1327.15 316.328 1326.98 316.484C1326.73 316.343 1326.42 316.296 1326.26 316C1326.67 316 1327.07 316 1327.48 316Z" fill="#E5D8D7"/>
<path d="M1329.43 316.437C1329.43 316.359 1329.43 316.281 1329.43 316.203C1337.62 316.905 1344.89 319.853 1351.22 324.877C1358.32 330.509 1362.91 337.716 1365.05 346.374C1365.19 346.936 1365.25 347.513 1365.36 348.091C1364.47 350.883 1363.41 353.598 1361.97 356.172C1359.34 360.914 1355.79 364.877 1351.35 368.075C1350.94 368.371 1350.54 368.917 1349.88 368.465C1350.8 363.551 1351.35 358.59 1351.16 353.598C1350.79 343.956 1348.65 334.768 1343.05 326.624C1339.71 321.772 1335.48 317.966 1329.45 316.452L1329.43 316.437Z" fill="#E44C3C"/>
<path d="M1321.68 316.234C1321.68 316.234 1321.68 316.374 1321.68 316.452C1315.2 318.106 1310.85 322.334 1307.4 327.607C1303.7 333.286 1301.68 339.573 1300.65 346.187C1299.52 353.379 1299.73 360.555 1301.11 367.7C1301.16 367.966 1301.13 368.247 1301.15 368.512C1300.54 368.855 1300.15 368.387 1299.76 368.106C1295.37 364.939 1291.8 361.055 1289.23 356.359C1288.26 354.596 1287.36 352.817 1286.68 350.93C1286.31 349.853 1285.89 348.793 1285.89 347.638C1286.33 344.034 1287.65 340.696 1289.37 337.544C1295.67 325.984 1305.5 319.027 1318.7 316.53C1319.66 316.343 1320.66 316.14 1321.68 316.234Z" fill="#E44C3C"/>
<path d="M1332.08 411.133C1330.62 411.133 1329.17 411.133 1327.7 411.133C1327.25 410.54 1327.57 409.931 1327.72 409.339C1328.81 405.064 1329.92 400.805 1331.01 396.53C1331.35 395.189 1331.29 395.111 1329.9 395.111C1326.4 395.111 1322.91 395.111 1319.43 395.111C1318.5 395.251 1318.95 395.86 1319.06 396.265C1319.84 399.401 1320.65 402.521 1321.46 405.641C1321.8 406.999 1322.18 408.356 1322.5 409.713C1322.63 410.197 1322.83 410.696 1322.43 411.148C1321.29 411.148 1320.16 411.148 1319.03 411.148C1318.54 410.711 1318.48 410.119 1318.34 409.557C1317.2 405.204 1316.11 400.852 1314.99 396.515C1314.63 395.142 1314.56 395.111 1313.1 395.095C1312.21 395.095 1311.33 395.095 1310.45 395.095C1308.92 395.095 1308.92 395.095 1309.28 396.499C1310.4 400.852 1311.51 405.204 1312.63 409.541C1312.77 410.056 1313 410.587 1312.79 411.133C1311.58 411.257 1310.35 411.039 1309.15 411.382C1308.01 406.406 1306.64 401.476 1305.41 396.515C1305.23 395.813 1305 395.173 1304.31 394.783V394.768C1306.09 394.424 1307.9 394.612 1309.7 394.596C1321.63 394.565 1333.57 394.596 1345.5 394.596C1346.01 394.596 1346.53 394.518 1347.06 394.487C1347.01 394.58 1346.97 394.69 1346.9 394.783C1345.55 395.423 1344.1 395.017 1342.69 395.095C1341.13 395.095 1339.56 395.142 1337.98 395.064C1336.89 395.017 1336.4 395.47 1336.17 396.468C1335.09 400.836 1333.94 405.173 1332.82 409.526C1332.68 410.087 1332.6 410.68 1332.11 411.117L1332.08 411.133Z" fill="#F7E8AE"/>
<path d="M1342.41 394.783C1343.89 394.783 1345.38 394.783 1346.86 394.783C1345.59 399.775 1344.31 404.768 1343.05 409.76C1342.89 410.399 1342.77 411.039 1342.63 411.694C1341.27 410.945 1339.77 411.257 1338.32 411.133C1337.98 410.696 1338.18 410.228 1338.29 409.791C1339.48 405.173 1340.66 400.571 1341.85 395.953C1341.96 395.532 1342.07 395.111 1342.4 394.799L1342.41 394.783Z" fill="#F7E8AE"/>
<path d="M1304.28 394.768C1305.05 394.627 1305.34 395.002 1305.52 395.688C1306.73 400.509 1307.96 405.329 1309.23 410.15C1309.35 410.602 1309.37 410.977 1309.12 411.382C1308.9 411.491 1308.68 411.585 1308.45 411.694C1307.42 407.607 1306.37 403.519 1305.38 399.417C1305 397.872 1304.44 396.374 1304.28 394.783V394.768Z" fill="#F7E8AE"/>
<path d="M1319.32 394.783C1320.63 399.916 1321.94 405.064 1323.24 410.197C1323.31 410.493 1323.35 410.805 1323.39 411.101C1323.06 411.101 1322.74 411.101 1322.41 411.101C1321.93 408.247 1321.02 405.47 1320.33 402.661C1319.76 400.29 1319.16 397.934 1318.51 395.579C1318.26 394.721 1318.63 394.643 1319.32 394.752V394.783Z" fill="#F7E8AE"/>
<path d="M1340.48 429.666C1340.34 433.426 1337.7 435.969 1333.88 435.984C1328.32 436 1322.77 436 1317.22 435.984C1313.41 435.984 1310.74 433.41 1310.62 429.666C1311.04 429.463 1311.48 429.541 1311.91 429.541C1315.84 429.541 1319.77 429.541 1323.71 429.541C1324.47 429.541 1325.23 429.526 1325.97 429.276C1326.78 429.011 1327.26 428.465 1327.22 427.623C1327.17 426.827 1326.61 426.374 1325.86 426.156C1325.36 426.016 1324.83 426.047 1324.3 426.047C1320.37 426.047 1316.44 426.047 1312.5 426.047C1311.88 426.047 1311.19 426.187 1310.71 425.626C1310.66 423.8 1310.73 421.959 1310.68 420.134C1310.65 419.37 1311.01 419.073 1311.72 419.027C1312.13 418.995 1312.52 418.995 1312.93 418.995C1321.32 418.995 1329.73 418.995 1338.12 418.995C1338.4 418.995 1338.68 418.995 1338.96 418.995C1340.27 419.058 1340.4 419.183 1340.4 420.431C1340.4 422.1 1340.4 423.785 1340.4 425.454C1340.2 426.125 1339.59 426 1339.1 426.016C1337.73 426.062 1336.37 426.016 1335 426.031C1334.56 426.031 1334.11 426.031 1333.67 426.125C1332.94 426.328 1332.5 426.811 1332.41 427.529C1332.3 428.262 1332.65 428.824 1333.32 429.167C1334 429.541 1334.78 429.541 1335.55 429.573C1337.19 429.635 1338.84 429.432 1340.48 429.666Z" fill="#A36A43"/>
<path d="M1340.3 425.672C1340.3 423.909 1340.27 422.162 1340.3 420.399C1340.3 419.682 1340.16 419.354 1339.32 419.354C1330.15 419.385 1320.97 419.385 1311.8 419.354C1310.96 419.354 1310.8 419.697 1310.82 420.399C1310.85 422.162 1310.82 423.909 1310.82 425.672C1310.77 425.75 1310.71 425.75 1310.63 425.688C1310.63 423.863 1310.6 422.037 1310.6 420.212C1310.6 419.744 1310.54 419.448 1309.93 419.354C1308.13 419.073 1306.93 418.028 1306.53 416.328C1306.09 414.549 1306.64 413.036 1308.2 411.913C1308.29 411.85 1308.38 411.757 1308.46 411.679C1308.65 411.367 1308.9 411.164 1309.26 411.07C1310.43 410.633 1311.66 410.899 1312.88 410.805C1314.91 410.805 1316.95 410.758 1318.98 410.821C1320.1 410.789 1321.22 410.789 1322.33 410.821C1322.71 410.821 1323.08 410.805 1323.45 410.821C1324.89 410.774 1326.31 410.789 1327.74 410.821C1329.2 410.789 1330.63 410.789 1332.08 410.821C1334.14 410.789 1336.18 410.774 1338.24 410.821C1339.09 410.821 1339.93 410.774 1340.77 410.836C1341.5 410.883 1342.22 410.992 1342.66 411.679C1345.84 413.816 1344.98 417.56 1342.77 418.792C1342.57 418.902 1342.35 419.089 1342.13 419.104C1340.41 419.167 1340.48 420.29 1340.52 421.491C1340.58 422.88 1340.52 424.284 1340.51 425.688C1340.44 425.766 1340.38 425.75 1340.33 425.672H1340.3Z" fill="#C98152"/>
<path d="M1310.62 425.688C1310.62 425.688 1310.74 425.688 1310.8 425.672C1315.62 425.672 1320.45 425.688 1325.28 425.672C1326.33 425.672 1327.04 426.078 1327.53 426.936C1327.98 427.716 1327.62 428.387 1327.2 429.011C1326.67 429.775 1325.73 429.853 1324.94 429.869C1320.43 429.931 1315.94 429.9 1311.43 429.885C1311.16 429.885 1310.9 429.744 1310.63 429.666C1310.63 428.34 1310.63 427.014 1310.63 425.672L1310.62 425.688Z" fill="#805333"/>
<path d="M1340.3 425.672C1340.3 425.672 1340.43 425.688 1340.48 425.688C1340.48 427.014 1340.48 428.34 1340.48 429.682C1338.11 430.072 1335.72 430.072 1333.36 429.635C1332.46 429.463 1331.86 428.34 1332.02 427.451C1332.21 426.374 1332.91 425.719 1334.06 425.704C1336.14 425.672 1338.23 425.688 1340.3 425.672Z" fill="#805333"/>
<path d="M1304.27 394.752C1302.89 392.022 1301.52 389.292 1300.15 386.546C1300.57 386.125 1301.12 386.218 1301.63 386.218C1317.57 386.218 1333.53 386.218 1349.48 386.218C1349.99 386.218 1350.54 386.125 1350.96 386.546C1349.82 388.808 1348.68 391.055 1347.56 393.317C1347.37 393.691 1347.2 394.097 1347.03 394.471C1346.45 394.955 1345.73 394.83 1345.06 394.83C1336.73 394.861 1328.42 394.799 1320.09 394.845C1315.62 394.877 1311.16 394.752 1306.7 394.877C1305.91 394.908 1305.09 394.877 1304.3 394.736L1304.27 394.752Z" fill="#802F34"/>
<path d="M1285.91 347.623C1286.89 350.571 1287.97 353.488 1289.51 356.234C1292.18 360.945 1295.75 364.877 1300.23 368.044C1300.51 368.247 1300.77 368.527 1301.18 368.512C1301.24 368.668 1301.12 368.917 1301.4 368.995C1301.72 369.245 1301.88 369.588 1301.97 369.994C1303.19 375.423 1305.44 380.415 1308.73 384.97C1309.03 385.376 1309.57 385.797 1309.06 386.406C1306.03 386.421 1303.02 386.577 1300.01 386.328C1291.05 379.229 1286.11 370.134 1285.16 358.995C1284.83 355.173 1284.99 351.382 1285.91 347.623Z" fill="#BE3A2B"/>
<path d="M1349.85 368.465C1351.52 368.044 1352.61 366.78 1353.8 365.75C1358.85 361.351 1362.38 355.969 1364.47 349.713C1364.63 349.229 1364.77 348.746 1364.89 348.262C1364.97 347.981 1365.13 348.013 1365.33 348.091C1367.87 363.379 1363.46 376.234 1351.12 386.312C1348.11 386.546 1345.09 386.39 1342.08 386.39C1341.57 385.922 1341.99 385.532 1342.21 385.173C1342.88 384.112 1343.64 383.114 1344.3 382.038C1346.56 378.325 1348.11 374.331 1349.09 370.119C1349.2 369.682 1349.45 369.339 1349.63 368.964C1349.7 368.793 1349.77 368.637 1349.84 368.465H1349.85Z" fill="#BE3A2B"/>
<path d="M1320.05 385.891C1320.02 386.25 1319.79 386.312 1319.46 386.312C1316.2 386.312 1312.94 386.312 1309.68 386.312C1309.49 386.312 1309.31 386.187 1309.12 386.125C1305.27 380.961 1302.63 375.267 1301.35 368.995C1303.63 370.212 1305.86 371.523 1308.25 372.537C1311.38 373.863 1314.61 374.877 1318.01 375.298C1318.09 375.548 1318.17 375.797 1318.25 376.047C1318.54 376.25 1318.57 376.562 1318.62 376.874C1318.99 379.526 1319.52 382.162 1320.12 384.783C1320.2 385.158 1320.32 385.548 1320.05 385.906V385.891Z" fill="#CFD2CF"/>
<path d="M1341.96 386.109C1341.6 386.359 1341.19 386.312 1340.8 386.312C1337.9 386.312 1335.02 386.312 1332.11 386.312C1331.74 386.312 1331.18 386.562 1331.04 385.891C1330.8 385.579 1330.87 385.22 1330.94 384.877C1331.55 382.178 1332.1 379.479 1332.47 376.749C1332.5 376.484 1332.57 376.203 1332.83 376.047C1332.91 375.797 1332.99 375.548 1333.07 375.298C1336.45 374.846 1339.66 373.863 1342.8 372.568C1345.2 371.585 1347.4 370.243 1349.65 368.98C1348.57 374.846 1346.17 380.181 1342.68 385.064C1342.43 385.407 1342.19 385.766 1341.94 386.125L1341.96 386.109Z" fill="#CFD2CF"/>
<path d="M1332.83 376.031C1332.58 379.37 1331.85 382.63 1331.02 385.875C1330.74 386.296 1330.32 386.312 1329.87 386.312C1326.98 386.312 1324.09 386.312 1321.21 386.312C1320.76 386.312 1320.33 386.312 1320.05 385.875C1319.23 382.63 1318.51 379.37 1318.24 376.031C1318.43 375.282 1319.07 375.485 1319.52 375.548C1322.02 375.969 1324.53 376.062 1327.04 375.969C1328.48 375.922 1329.9 375.672 1331.32 375.579C1331.85 375.548 1332.55 375.173 1332.83 376.031Z" fill="#BE3A2B"/>
<path d="M1341.96 386.109C1342.33 386.437 1342.8 386.297 1343.22 386.312C1345.86 386.312 1348.49 386.312 1351.13 386.312C1351.07 386.39 1351.01 386.468 1350.94 386.546C1334.02 386.546 1317.07 386.546 1300.15 386.546C1300.09 386.468 1300.02 386.39 1299.96 386.312C1302.6 386.312 1305.23 386.312 1307.87 386.312C1308.29 386.312 1308.76 386.453 1309.13 386.125C1309.54 385.891 1309.99 385.969 1310.41 385.969C1313 385.969 1315.61 385.969 1318.2 385.969C1318.81 385.969 1319.38 385.891 1319.98 385.75C1323.69 386.109 1327.39 386.094 1331.1 385.75C1333.36 386.172 1335.64 385.86 1337.9 385.969C1339.24 386.031 1340.62 385.766 1341.94 386.125L1341.96 386.109Z" fill="#802F34"/>
</g>
<g clip-path="url(#clip4_348_23135)">
<path d="M599.411 134.831C596.717 129.736 595.757 126.295 589.781 117.385C582.312 106.315 569.348 93.004 558.864 89.5095C550.622 86.7619 539.391 84.7346 529.361 85.7483C521.332 86.5485 509.941 88.0423 497.831 90.1764C485.72 92.2838 483.479 96.7386 482.999 101.247C482.546 105.755 490.468 122.107 494.096 127.255C497.724 132.404 505.593 131.737 509.248 135.098C512.902 138.459 528.614 141.473 531.789 144.248C534.963 147.022 550.595 150.917 555.903 152.064C561.212 153.211 567.321 160.306 571.402 160.947C575.483 161.587 593.143 153.131 599.331 149.583C605.52 146.035 602.239 140.113 599.411 134.805V134.831Z" fill="#DF3133"/>
<path d="M559.799 84.7078C560.893 86.1216 558.865 89.5094 558.865 89.5094L560.946 90.0162C560.946 90.0162 563.107 86.6018 562.893 84.8145C562.68 83.0272 560.546 80.6798 559.665 81.0532C558.785 81.4 558.705 83.294 559.799 84.7345V84.7078Z" fill="#B5282B"/>
<path d="M581.033 146.969C576.392 141.393 577.405 138.432 572.764 136.245C568.149 134.058 559.266 144.781 549.689 142.914C540.113 141.047 543.047 126.775 533.604 123.334C526.428 120.72 518.532 128.589 510.956 124.801C501.487 120.08 508.662 112.504 505.008 111.437C501.353 110.37 500.633 115.251 494.151 112.29C487.695 109.329 492.017 97.8322 487.455 96.6318C485.988 96.2583 484.654 97.1653 483.507 98.6058C483.214 99.4861 483.054 100.366 482.974 101.273C482.52 105.781 490.443 122.134 494.071 127.282C497.699 132.43 502.927 132.457 511.277 136.885C518.079 140.486 521.253 143.074 530.456 147.155C537.419 150.223 544.861 152.277 552.624 152.891C561.64 153.611 564.308 160.52 571.35 160.973C575.458 161.24 593.09 153.157 599.279 149.609C599.279 149.609 585.621 152.517 580.98 146.969H581.033Z" fill="#9E2427"/>
<path d="M581.033 146.969C576.392 141.393 577.405 138.432 572.764 136.245C568.149 134.058 559.266 144.781 549.689 142.914C540.113 141.047 543.047 126.775 533.604 123.334C526.428 120.72 518.532 128.589 510.956 124.801C501.487 120.08 508.662 112.504 505.008 111.437C501.353 110.37 500.633 115.251 494.151 112.29C487.695 109.329 492.017 97.8322 487.455 96.6318C485.988 96.2583 484.654 97.1653 483.507 98.6058C483.214 99.4861 483.054 100.366 482.974 101.273C482.52 105.781 490.443 122.134 494.071 127.282C497.699 132.43 503.087 132.19 511.277 136.885C517.625 140.54 521.68 145.235 530.856 149.369C542.3 154.518 545.635 152.917 553.397 153.531C562.414 154.251 564.281 160.52 571.323 160.973C575.431 161.24 593.064 153.157 599.253 149.609C599.253 149.609 585.595 152.517 580.953 146.969H581.033Z" fill="#C4222A"/>
</g>
<g clip-path="url(#clip5_348_23135)">
<path d="M105.761 212H110.597C111.741 212.728 113.249 212.624 114.238 213.664C119.178 217.876 121.414 223.648 123.546 229.421C128.902 243.565 131.294 258.334 133.478 273.206C138.314 305.552 137.898 338.105 137.326 370.606C137.118 383.555 136.026 396.555 134.154 409.452C133.946 410.648 133.842 411.844 132.334 412.208C128.59 411.168 124.846 412.104 121.154 412.52C110.701 413.716 100.301 413.196 89.9005 412C87.8725 411.792 85.8964 411.792 83.9203 412.208C82.3602 411.896 82.2562 410.7 81.9962 409.504C80.1241 393.227 78.6681 376.951 78.6681 360.57C78.6681 341.745 78.0441 322.868 79.5001 304.044C81.3202 280.435 83.7643 256.878 90.8886 234.101C93.2287 226.665 95.7248 219.176 101.965 213.612C103.057 212.624 104.565 212.728 105.761 212Z" fill="#E44C3C"/>
<path d="M133.218 409.608C134.103 398.115 135.195 386.571 135.819 375.079C136.911 354.33 136.807 333.529 135.819 312.728C135.195 299.624 134.103 286.571 132.282 273.57C130.15 257.866 127.342 242.317 121.622 227.445C119.646 222.348 117.098 217.46 112.938 213.612C112.47 212.052 114.238 212.676 114.602 212H116.214C117.93 212.676 119.854 212.468 121.57 213.196C130.566 214.132 138.055 218.5 145.075 223.544C159.48 233.997 169.62 247.777 177.212 263.378C186.417 282.151 191.513 302.016 193.645 322.608C195.829 344.085 194.633 365.406 190.265 386.623C190.005 387.455 189.589 388.183 189.069 388.859C176.692 397.543 162.964 403.524 148.351 407.58C144.763 408.568 141.123 409.504 137.431 410.076C135.975 410.284 134.519 410.804 133.27 409.608H133.218Z" fill="#EAEEEF"/>
<path d="M103.369 213.612C95.1522 221.776 92.4481 232.489 89.744 243.045C85.1678 260.934 83.0357 279.239 81.4237 297.595C79.3956 321.36 79.4996 345.125 80.0716 368.89C80.3836 381.579 81.3197 394.319 82.9837 406.956C83.0877 407.84 82.9837 408.776 83.0357 409.66C81.4757 411.064 79.7596 410.284 78.0955 409.972C61.2469 406.852 45.7502 400.352 31.1897 391.667C29.8376 390.835 28.5376 389.951 27.1335 389.171C26.4055 388.599 25.9895 387.871 25.8334 386.987C22.8693 370.398 20.9973 353.758 21.6733 336.909C22.9213 306.02 29.7336 276.535 46.7903 249.962C56.2547 235.193 68.3191 223.076 84.9598 215.744C88.0279 214.392 91.2521 213.612 94.5802 213.196C96.1403 212.78 97.7523 212.52 99.3124 212H101.704C102.068 212.676 103.837 212.052 103.369 213.612Z" fill="#EAEEEF"/>
<path d="M121.101 213.456C119.437 213.092 117.617 213.248 116.213 212H121.049C121.049 212 121.101 212.416 121.049 212.676C121.309 212.832 121.413 213.04 121.309 213.196C121.205 213.404 121.153 213.456 121.049 213.456H121.101Z" fill="#E57D73"/>
<path d="M99.3128 212C98.1688 213.092 96.7647 213.352 95.2567 213.456C94.9966 213.3 94.9446 213.144 94.9966 212.988C95.1006 212.832 95.2047 212.78 95.2567 212.78C95.3087 212.52 95.3087 212.26 95.2567 212H99.2608H99.3128Z" fill="#E57D73"/>
<path d="M103.369 213.612C102.797 213.092 102.277 212.52 101.705 212C103.057 212 104.409 212 105.709 212C105.241 212.988 104.201 213.144 103.317 213.612H103.369Z" fill="#E5D8D6"/>
<path d="M114.601 212C114.029 212.52 113.509 213.092 112.937 213.612C112.105 213.144 111.065 212.988 110.545 212C111.897 212 113.249 212 114.601 212Z" fill="#E5D8D7"/>
<path d="M121.102 213.456C121.102 213.196 121.102 212.936 121.102 212.676C148.403 215.016 172.636 224.845 193.748 241.589C217.409 260.362 232.698 284.387 239.822 313.248C240.29 315.12 240.498 317.044 240.862 318.968C237.898 328.277 234.362 337.325 229.578 345.905C220.79 361.714 208.985 374.923 194.164 385.583C192.812 386.571 191.46 388.391 189.276 386.883C192.344 370.502 194.164 353.966 193.54 337.325C192.292 305.188 185.168 274.559 166.499 247.413C155.371 231.241 141.278 218.552 121.154 213.508L121.102 213.456Z" fill="#E44C3C"/>
<path d="M95.2576 212.78C95.2576 212.78 95.2576 213.248 95.2576 213.508C73.6768 219.02 59.1682 233.113 47.6757 250.69C35.3512 269.618 28.591 290.575 25.1588 312.624C21.4147 336.597 22.0907 360.518 26.7189 384.335C26.8749 385.219 26.7709 386.155 26.8229 387.039C24.7948 388.183 23.4948 386.623 22.1947 385.687C7.58212 375.131 -4.32636 362.182 -12.9067 346.529C-16.1308 340.653 -19.147 334.725 -21.383 328.433C-22.6311 324.845 -24.0352 321.308 -24.0352 317.46C-22.5791 305.448 -18.1589 294.319 -12.4387 283.815C8.57015 245.281 41.3315 222.088 85.3252 213.768C88.5494 213.144 91.8775 212.468 95.2576 212.78Z" fill="#E44C3C"/>
<path d="M129.943 529.109C125.054 529.109 120.218 529.109 115.33 529.109C113.822 527.133 114.914 525.105 115.382 523.129C119.022 508.88 122.714 494.683 126.354 480.435C127.499 475.963 127.291 475.703 122.662 475.703C111.014 475.703 99.3654 475.703 87.7689 475.703C84.6488 476.171 86.1569 478.199 86.5209 479.551C89.121 490.003 91.8251 500.404 94.5292 510.804C95.6732 515.328 96.9213 519.852 98.0133 524.377C98.4294 525.989 99.1054 527.653 97.7533 529.161C93.9572 529.161 90.213 529.161 86.4169 529.161C84.8048 527.705 84.5968 525.729 84.1288 523.857C80.3326 509.348 76.6925 494.839 72.9483 480.383C71.7523 475.807 71.5443 475.703 66.6561 475.651C63.692 475.651 60.7798 475.651 57.8157 475.651C52.7195 475.651 52.7195 475.651 53.9156 480.331C57.6597 494.839 61.3519 509.348 65.096 523.805C65.564 525.521 66.3441 527.289 65.616 529.109C61.6119 529.525 57.5037 528.797 53.4995 529.941C49.7034 513.352 45.1272 496.919 41.0191 480.383C40.447 478.043 39.667 475.911 37.3789 474.611V474.559C43.3071 473.415 49.3394 474.039 55.3196 473.987C95.1012 473.883 134.883 473.987 174.664 473.987C176.38 473.987 178.097 473.727 179.865 473.623C179.709 473.935 179.553 474.299 179.345 474.611C174.82 476.743 169.984 475.391 165.304 475.651C160.104 475.651 154.852 475.807 149.599 475.547C145.959 475.391 144.347 476.899 143.567 480.227C139.979 494.787 136.131 509.244 132.387 523.753C131.919 525.625 131.659 527.601 130.047 529.057L129.943 529.109Z" fill="#F7E8AE"/>
<path d="M164.368 474.611C169.308 474.611 174.249 474.611 179.189 474.611C174.977 491.251 170.713 507.892 166.5 524.533C165.98 526.665 165.564 528.797 165.096 530.981C160.572 528.485 155.58 529.525 150.744 529.109C149.6 527.653 150.276 526.093 150.64 524.637C154.592 509.244 158.544 493.903 162.496 478.511C162.86 477.107 163.224 475.703 164.316 474.663L164.368 474.611Z" fill="#F7E8AE"/>
<path d="M37.2754 474.558C39.8235 474.09 40.8115 475.338 41.3836 477.627C45.4397 493.695 49.5479 509.764 53.7601 525.832C54.1761 527.341 54.2281 528.589 53.396 529.941C52.668 530.305 51.94 530.617 51.1599 530.981C47.7278 517.356 44.2437 503.732 40.9155 490.055C39.6675 484.907 37.7954 479.915 37.2754 474.61V474.558Z" fill="#F7E8AE"/>
<path d="M87.4041 474.611C91.7723 491.719 96.1405 508.88 100.457 525.989C100.717 526.977 100.821 528.017 100.977 529.005C99.8846 529.005 98.7926 529.005 97.7006 529.005C96.0885 519.488 93.0724 510.232 90.7843 500.872C88.8602 492.967 86.8841 485.115 84.7 477.263C83.868 474.403 85.1161 474.143 87.4041 474.507V474.611Z" fill="#F7E8AE"/>
<path d="M157.919 590.887C157.451 603.42 148.662 611.896 135.922 611.948C117.409 612 98.8963 612 80.3836 611.948C67.6951 611.948 58.8027 603.368 58.3867 590.887C59.7908 590.211 61.2468 590.471 62.7029 590.471C75.8074 590.471 88.9119 590.471 102.016 590.471C104.565 590.471 107.113 590.419 109.557 589.587C112.261 588.703 113.873 586.883 113.717 584.075C113.561 581.423 111.689 579.915 109.193 579.187C107.529 578.719 105.761 578.823 103.993 578.823C90.888 578.823 77.7835 578.823 64.679 578.823C62.5989 578.823 60.3108 579.291 58.6987 577.419C58.5427 571.334 58.7507 565.198 58.5947 559.114C58.4907 556.566 59.6868 555.578 62.0789 555.422C63.4309 555.318 64.731 555.318 66.083 555.318C94.0602 555.318 122.089 555.318 150.066 555.318C151.002 555.318 151.938 555.318 152.875 555.318C157.243 555.526 157.659 555.942 157.659 560.102C157.659 565.666 157.659 571.282 157.659 576.847C156.983 579.083 154.955 578.667 153.343 578.719C148.766 578.875 144.242 578.719 139.666 578.771C138.21 578.771 136.702 578.771 135.246 579.083C132.802 579.759 131.346 581.371 131.034 583.763C130.67 586.207 131.814 588.079 134.05 589.223C136.338 590.471 138.938 590.471 141.486 590.575C146.946 590.783 152.459 590.107 157.919 590.887Z" fill="#A36A43"/>
<path d="M157.348 577.575C157.348 571.698 157.244 565.874 157.348 559.998C157.348 557.606 156.88 556.514 154.072 556.514C123.495 556.618 92.9174 556.618 62.3402 556.514C59.5321 556.514 59.0121 557.658 59.0641 559.998C59.1681 565.874 59.0641 571.698 59.0641 577.575C58.9081 577.835 58.7001 577.835 58.4401 577.627C58.4401 571.542 58.3361 565.458 58.3361 559.374C58.3361 557.814 58.128 556.826 56.1 556.514C50.1197 555.578 46.1156 552.094 44.7635 546.425C43.3075 540.497 45.1275 535.453 50.3277 531.709C50.6397 531.501 50.9518 531.189 51.2118 530.929C51.8358 529.889 52.6678 529.213 53.8639 528.901C57.764 527.445 61.8722 528.329 65.9284 528.017C72.6886 528.017 79.5009 527.861 86.2612 528.069C90.0053 527.965 93.7495 527.965 97.4416 528.069C98.6897 528.069 99.9377 528.017 101.186 528.069C105.97 527.913 110.702 527.965 115.486 528.069C120.323 527.965 125.107 527.965 129.943 528.069C136.807 527.965 143.619 527.913 150.484 528.069C153.292 528.069 156.1 527.913 158.908 528.121C161.352 528.277 163.744 528.641 165.2 530.929C175.809 538.053 172.949 550.534 165.564 554.642C164.888 555.006 164.16 555.63 163.432 555.682C157.712 555.89 157.92 559.634 158.076 563.638C158.284 568.266 158.076 572.946 158.024 577.627C157.816 577.887 157.608 577.835 157.452 577.575H157.348Z" fill="#C98152"/>
<path d="M58.3867 577.627C58.3867 577.627 58.8027 577.627 59.0107 577.575C75.0794 577.575 91.148 577.627 107.269 577.575C110.753 577.575 113.145 578.927 114.757 581.787C116.265 584.387 115.069 586.623 113.665 588.703C111.897 591.251 108.777 591.511 106.125 591.563C91.096 591.771 76.1194 591.667 61.0908 591.615C60.2068 591.615 59.3228 591.147 58.4387 590.887C58.4387 586.467 58.4387 582.047 58.4387 577.575L58.3867 577.627Z" fill="#805333"/>
<path d="M157.346 577.575C157.346 577.575 157.763 577.627 157.919 577.627C157.919 582.047 157.919 586.467 157.919 590.939C150.014 592.239 142.058 592.239 134.206 590.783C131.189 590.211 129.213 586.467 129.733 583.503C130.357 579.915 132.697 577.731 136.546 577.679C143.462 577.575 150.43 577.627 157.346 577.575Z" fill="#805333"/>
<path d="M37.2227 474.506C32.6465 465.406 28.0703 456.306 23.4941 447.153C24.8982 445.749 26.7183 446.061 28.4343 446.061C81.5805 446.061 134.779 446.061 187.925 446.061C189.641 446.061 191.461 445.749 192.865 447.153C189.069 454.694 185.273 462.182 181.528 469.722C180.904 470.97 180.332 472.322 179.76 473.57C177.836 475.182 175.444 474.766 173.208 474.766C145.439 474.87 117.722 474.662 89.9528 474.818C75.0802 474.922 60.2076 474.506 45.335 474.922C42.6829 475.026 39.9788 474.922 37.3267 474.454L37.2227 474.506Z" fill="#802F34"/>
<path d="M-23.9848 317.408C-20.7087 327.237 -17.1206 336.961 -11.9724 346.113C-3.08001 361.818 8.82848 374.923 23.7531 385.479C24.6891 386.155 25.5731 387.091 26.9252 387.039C27.1332 387.559 26.7172 388.391 27.6532 388.651C28.7453 389.483 29.2653 390.627 29.5773 391.979C33.6335 410.076 41.1218 426.717 52.0942 441.901C53.0822 443.253 54.9023 444.657 53.1863 446.685C43.0978 446.737 33.0614 447.257 23.025 446.425C-6.82416 422.764 -23.3088 392.447 -26.4809 355.318C-27.573 342.577 -27.053 329.941 -23.9848 317.408Z" fill="#BE3A2B"/>
<path d="M189.172 386.883C194.736 385.479 198.376 381.267 202.329 377.835C219.177 363.17 230.93 345.229 237.898 324.376C238.418 322.764 238.886 321.152 239.302 319.54C239.562 318.604 240.082 318.708 240.758 318.968C249.234 369.93 234.518 412.78 193.384 446.373C183.348 447.153 173.311 446.633 163.275 446.633C161.559 445.073 162.963 443.773 163.691 442.577C165.927 439.041 168.475 435.713 170.659 432.125C178.2 419.748 183.348 406.436 186.624 392.395C186.988 390.939 187.82 389.795 188.444 388.547C188.652 387.975 188.912 387.455 189.12 386.883H189.172Z" fill="#BE3A2B"/>
<path d="M89.8485 444.969C89.7445 446.165 88.9645 446.373 87.8725 446.373C77.004 446.373 66.1356 446.373 55.2672 446.373C54.6431 446.373 54.0191 445.957 53.3951 445.749C40.5506 428.537 31.7622 409.556 27.498 388.651C35.0904 392.707 42.5266 397.075 50.483 400.456C60.9354 404.876 71.6998 408.256 83.0363 409.66C83.2963 410.492 83.5563 411.324 83.8163 412.156C84.8043 412.832 84.9083 413.872 85.0644 414.912C86.3124 423.753 88.0805 432.541 90.0566 441.277C90.3166 442.525 90.7326 443.825 89.8485 445.021V444.969Z" fill="#CFD2CF"/>
<path d="M162.859 445.697C161.663 446.529 160.311 446.373 159.01 446.373C149.338 446.373 139.718 446.373 130.045 446.373C128.797 446.373 126.925 447.205 126.457 444.969C125.677 443.929 125.885 442.733 126.145 441.589C128.173 432.593 129.993 423.597 131.241 414.496C131.345 413.612 131.553 412.676 132.437 412.156C132.697 411.324 132.957 410.492 133.217 409.66C144.502 408.152 155.214 404.876 165.667 400.56C173.675 397.283 181.007 392.811 188.496 388.599C184.907 408.152 176.899 425.937 165.251 442.213C164.419 443.357 163.639 444.553 162.807 445.749L162.859 445.697Z" fill="#CFD2CF"/>
<path d="M132.438 412.104C131.606 423.233 129.162 434.101 126.406 444.917C125.47 446.321 124.066 446.373 122.558 446.373C112.938 446.373 103.317 446.373 93.6968 446.373C92.1887 446.373 90.7847 446.373 89.8486 444.917C87.0925 434.101 84.7004 423.233 83.8164 412.104C84.4404 409.608 86.5725 410.284 88.0806 410.492C96.4009 411.896 104.773 412.208 113.146 411.896C117.93 411.74 122.662 410.908 127.394 410.596C129.162 410.492 131.502 409.244 132.438 412.104Z" fill="#BE3A2B"/>
<path d="M162.859 445.697C164.107 446.789 165.667 446.321 167.071 446.373C175.859 446.373 184.648 446.373 193.436 446.373C193.228 446.633 193.02 446.893 192.812 447.153C136.39 447.153 79.9154 447.153 23.4932 447.153C23.2852 446.893 23.0771 446.633 22.8691 446.373C31.6575 446.373 40.4458 446.373 49.2342 446.373C50.6383 446.373 52.1983 446.841 53.4464 445.749C54.7984 444.969 56.3065 445.229 57.7105 445.229C66.3429 445.229 75.0272 445.229 83.6596 445.229C85.6877 445.229 87.6117 444.969 89.5878 444.501C101.964 445.697 114.289 445.645 126.665 444.501C134.206 445.905 141.798 444.865 149.338 445.229C153.81 445.437 158.387 444.553 162.807 445.749L162.859 445.697Z" fill="#802F34"/>
</g>
<path d="M402.412 920.618L407.073 927.173C407.073 927.173 414.199 931.623 430.736 919.897C447.935 907.719 446.521 900.653 445.499 899.21L439.906 891.333L402.442 920.618H402.412Z" fill="#C4222A"/>
<path d="M439.336 821.335C439.336 821.335 447.033 815.863 448.176 815.081C449.318 814.299 455.422 812.044 459.571 817.907L464.803 825.304C465.344 826.056 478.334 844.547 460.473 860.152C458.128 862.197 448.025 868.962 448.025 868.962L449.048 861.024C449.048 861.024 454.34 857.506 456.084 855.973C459.361 853.086 465.074 846.953 463.661 837.692C462.638 831.047 456.114 823.319 455.272 822.147C454.43 820.974 451.814 819.381 449.649 820.914C447.484 822.448 441.892 826.597 441.892 826.597L439.366 821.365L439.336 821.335Z" fill="#C4222A"/>
<path d="M327.545 894.339C327.545 894.339 340.053 914.966 365.971 921.009C390.657 926.782 411.313 920.648 422.769 911.748C435.578 901.796 443.636 893.918 449.83 876.389C455.994 858.859 454.821 838.113 445.38 821.395C442.914 817.035 440.689 813.908 440.689 813.908L327.545 894.339Z" fill="#FE4B34"/>
<path d="M440.719 813.908C443.425 817.697 420.063 839.346 388.943 861.415C357.793 883.485 329.92 897.647 327.214 893.858C324.508 890.07 347.81 869.413 378.96 847.344C410.08 825.274 438.013 810.12 440.719 813.908Z" fill="white"/>
<path d="M379.652 848.366C394.265 838.023 408.637 828.852 420.153 822.538C435.908 813.908 439.246 814.51 439.667 814.66C439.667 815.111 439.186 818.479 425.896 830.626C416.064 839.586 402.654 850.17 388.191 860.453C373.849 870.616 359.446 879.636 347.63 885.86C331.814 894.159 328.597 893.287 328.236 893.137C328.206 892.716 328.537 889.619 342.007 877.682C351.539 869.203 364.919 858.799 379.682 848.366M378.96 847.343C347.81 869.413 324.508 890.07 327.214 893.858C329.92 897.647 357.793 883.485 388.913 861.415C420.063 839.345 443.395 817.727 440.719 813.908C438.043 810.09 410.08 825.274 378.96 847.343Z" fill="#A81B29"/>
<path d="M327.694 894.249L327.574 894.339C327.574 894.339 340.082 914.966 366.001 921.009C390.686 926.782 411.343 920.648 422.798 911.748C431.157 905.254 437.502 899.631 442.643 891.633C383.891 910.095 351.809 894.7 343.179 889.468C335.151 893.347 329.559 895.151 327.694 894.219V894.249Z" fill="#C4222A"/>
<g style="mix-blend-mode:multiply">
<path d="M444.177 819.29C444.177 819.471 444.086 823.981 430.105 836.76C420.333 845.69 406.983 856.244 392.52 866.497C358.153 890.821 333.317 900.684 331.002 899.03C331.663 899.842 332.445 900.744 333.317 901.676C335.933 901.676 341.225 900.202 352.32 894.429C364.317 888.175 379.11 878.975 393.903 868.481C408.877 857.867 422.558 847.013 432.45 837.902C441.801 829.273 444.988 824.793 445.86 822.327C445.68 822.027 445.53 821.696 445.349 821.395C444.928 820.643 444.507 819.952 444.116 819.29H444.177Z" fill="#C4222A"/>
</g>
<path d="M335.964 891.332C335.964 891.332 332.206 889.017 358.575 871.337C384.163 854.199 400.309 848.666 414.922 819.17C425.596 797.672 443.967 812.074 434.616 822.027C430.317 826.597 423.07 834.114 404.518 848.336C388.222 860.814 359.207 881.651 335.934 891.332H335.964Z" fill="#D77D41"/>
<path d="M394.896 842.533C394.475 842.713 393.994 842.292 394.205 841.841C395.197 839.526 397.061 837.211 393.363 832.159C386.327 822.598 402.293 817.637 402.684 830.415C402.834 834.685 398.444 841.059 394.896 842.533Z" fill="#D77D41"/>
</g>
<defs>
<linearGradient id="paint0_linear_348_23135" x1="969.187" y1="587.719" x2="1068.93" y2="587.719" gradientUnits="userSpaceOnUse">
<stop stop-color="#BCFBFB"/>
<stop offset="0.26" stop-color="#A6F9FC"/>
<stop offset="1" stop-color="#66F4FF"/>
</linearGradient>
<clipPath id="clip0_348_23135">
<rect width="1512" height="982" fill="white"/>
</clipPath>
<clipPath id="clip1_348_23135">
<rect width="568.698" height="920" fill="white" transform="translate(733 62)"/>
</clipPath>
<clipPath id="clip2_348_23135">
<rect width="39.8448" height="40" fill="white" transform="translate(1232 520)"/>
</clipPath>
<clipPath id="clip3_348_23135">
<rect width="81.0296" height="120" fill="white" transform="translate(1285 316)"/>
</clipPath>
<clipPath id="clip4_348_23135">
<rect width="119.853" height="80" fill="white" transform="translate(483 81)"/>
</clipPath>
<clipPath id="clip5_348_23135">
<rect width="270.099" height="400" fill="white" transform="translate(-27 212)"/>
</clipPath>
</defs>
</svg>
