<svg width="140" height="140" viewBox="0 0 140 140" fill="none" xmlns="http://www.w3.org/2000/svg">
<rect width="140" height="140" rx="30" fill="white"/>
<g clip-path="url(#clip0_70_774)">
<path d="M77.1907 101.03C77.1907 101.03 81.0825 105.016 76.4691 105.845C71.8557 106.647 60.3093 104.136 56.5722 104.084C52.9639 104.033 48.8402 101.78 45.567 97.8198C45.4639 97.6903 45.3608 97.5609 45.2577 97.4315C41.933 93.2378 41.8557 93.4967 38.4536 90.6233C35.0515 87.7499 28.4794 83.0127 30.335 74.962C32.1907 66.9371 34.9227 64.7627 37.0876 62.4588C37.0876 62.4588 37.3196 55.4694 39.9484 49.1013C39.9484 49.1013 42.5 43.9758 43.9175 42.2414C45.3093 40.507 51.933 37.5559 57.1649 39.1609C57.1649 39.1609 61.701 31.3173 72.7062 33.2847C83.7113 35.252 90.1031 39.8081 93.2732 44.6747L95.4897 50.318C95.4897 50.318 102.68 50.3439 106.186 56.3237C106.186 56.3237 107.371 58.524 106.959 61.0868C106.959 61.0868 110.773 64.9957 109.51 69.241C108.247 73.5123 115.283 74.7549 99.5103 89.562C99.5103 89.562 90.9536 97.4574 86.1082 98.6481C81.2887 99.8389 77.1907 101.004 77.1907 101.004V101.03Z" fill="#C40000"/>
<path d="M50.4639 93.2639C50.4639 93.2639 58.8144 95.5936 61.7268 96.6291C64.6649 97.6646 71.0309 98.26 73.6598 99.6061C73.6598 99.6061 76.8299 101.004 77.4227 102.661C77.4227 102.661 78.5309 105.845 71.0051 105.042C63.5051 104.24 53.4278 103.826 51.6237 102.764C49.8196 101.703 43.2216 95.05 45.7474 94.2217C48.2732 93.3933 48.4278 92.6685 50.4639 93.238V93.2639Z" fill="#FF3131"/>
<path d="M37.6031 63.0026C37.6031 63.0026 38.8402 70.0955 46.5464 75.7646C46.5464 75.7646 52.9897 83.4011 54.0206 83.9448C55.0516 84.4884 56.9588 84.9802 56.9588 84.9802C56.9588 84.9802 47.9124 76.36 50.232 62.5884C50.232 62.5884 51.4949 59.7926 49.8969 56.1685C49.8969 56.1685 52.7835 53.4504 51.701 50.4735C51.701 50.4735 54.2784 43.4582 57.1134 40.5331C57.1134 40.5331 52.6289 38.3068 47.0361 41.3097C47.0361 41.3097 41.4691 44.1054 39.3041 52.8292C37.1392 61.527 37.3454 61.8894 37.6289 63.0026H37.6031Z" fill="#ED3535"/>
<path d="M43.299 73.0724C43.299 73.0724 44.3814 86.9734 46.2629 90.1316C48.6598 94.144 46.0309 94.1699 45.1804 94.0663C44.3041 93.9628 33.1186 86.3004 32.0619 77.9649C32.0619 77.9649 32.0619 68.5422 38.299 65.2805C38.299 65.2805 41.366 71.4415 43.299 73.0982V73.0724Z" fill="#E52C2C"/>
<path d="M44.4845 80.5275C44.4845 80.5275 44.6134 80.5793 44.8711 80.6829C46.8041 81.5112 55 84.0999 60.232 85.679C66.7268 87.6463 68.2732 89.4584 70.6959 89.1736C73.1443 88.9148 77.9381 90.9339 82.9124 86.5073C87.8866 82.0807 88.8917 78.3531 93.3247 74.9619C97.7577 71.5708 99.1495 67.4549 98.8917 65.591C98.634 63.7272 102.036 68.5421 101.392 72.1403C100.747 75.7127 99.2268 83.0385 98.634 84.9283C98.0412 86.818 96.0309 89.1478 93.4278 90.0538C90.8247 90.9598 84.9742 89.8467 82.0619 90.4421C79.1753 91.0375 72.8866 93.1861 69.6907 93.3673C66.4948 93.5485 60.2062 93.5744 55.8763 90.9598C51.5464 88.3453 45.1804 81.6924 44.433 80.5275H44.4845Z" fill="#E51515"/>
<path d="M84.9227 90.2609C84.9227 90.2609 77.3196 99.373 75.3608 100.227C75.3608 100.227 71.0567 98.5187 67.1134 97.8457C62.8093 97.1208 52.8093 93.7815 50.8505 93.3673C48.8917 92.9272 47.4485 93.4708 47.4485 93.4708C47.4485 93.4708 43.4536 82.8833 44.5103 80.5276C44.5103 80.5276 50.0258 87.0769 52.3454 88.8113C54.6649 90.5457 59.7423 95.1794 74.0722 92.5648C74.0722 92.5648 82.6546 90.0797 84.9484 90.235L84.9227 90.2609Z" fill="#B22222"/>
<path d="M91.0309 55.7024C91.0309 55.7024 99.7165 60.1808 98.9691 64.9957C98.2216 69.8105 97.8093 72.7875 86.366 78.1201C86.366 78.1201 93.3505 61.3974 91.0309 55.7024V55.7024Z" fill="#C40000"/>
<path d="M71.9588 46.5385C71.9588 46.5385 78.9691 42.2155 86.134 48.3247C92.0361 53.3467 94.9742 61.5009 86.9072 76.7222C86.9072 76.7222 83.7887 78.9485 82.5515 77.68C82.5515 77.68 82.6031 76.541 84.1495 74.5736C85.6959 72.5804 85.9536 63.2353 82.9639 58.7052C79.0979 52.829 71.933 46.5644 71.933 46.5644L71.9588 46.5385Z" fill="#FF3131"/>
<path d="M62.9897 46.8235C62.9897 46.8235 66.9072 42.7334 72.1134 46.3834C77.7577 50.3441 83.0154 58.6536 83.0154 58.6536L79.7423 58.5501C79.7423 58.5501 72.9381 50.0852 64.2526 54.1235C64.2526 54.1235 62.1392 50.4994 58.7629 53.3728C55.3608 56.2462 51.6752 62.1224 53.4278 69.7331C53.4278 69.7331 49.8196 70.1472 49.6392 68.4905C49.3814 66.1089 50.9794 61.2164 50.3866 57.9029L49.8196 56.2203L51.6752 52.7774C51.6752 52.7774 53.3505 50.7324 58.3247 49.7487C58.3247 49.7487 61.2113 48.3249 62.9897 46.8235V46.8235Z" fill="#C40000"/>
<path d="M57.1134 73.2277L64.4845 80.7865C66.8557 83.194 68.4278 83.66 69.9485 83.4787C72.6804 83.1681 75.1289 85.6273 75.1289 85.6273L67.3196 88.4231C67.3196 88.4231 65.9278 87.5688 64.2784 87.1029C62.6289 86.6369 56.6237 84.6436 56.6237 84.6436C56.6237 84.6436 51.6237 79.2334 50.8763 75.0915C50.2577 71.7004 49.7938 69.4224 49.7938 69.4224L53.5309 69.6812L57.1392 73.2536L57.1134 73.2277Z" fill="#FF3131"/>
<path d="M86.366 78.1203C86.366 78.1203 84.8454 80.7866 83.2732 82.3398C81.701 83.893 76.7526 85.9639 75.3866 86.2745C74.0206 86.5852 68.067 88.682 68.067 88.682C68.067 88.682 75.0515 90.4423 77.8093 89.5621C80.567 88.682 83.8144 87.5171 88.4536 80.9937C88.4536 80.9937 91.2887 76.4118 94.5361 74.5997C94.5361 74.5997 96.2887 72.6582 97.0876 71.105C97.8866 69.5518 97.3454 70.8462 97.3454 70.8462C97.3454 70.8462 92.5773 76.0235 86.366 78.0944V78.1203Z" fill="#B21F1F"/>
<path d="M64.1753 54.2011C64.1753 54.2011 54.8969 59.3007 56.5206 65.8759C56.5206 65.8759 53.2474 69.5777 53.4278 69.7589C53.6083 69.9401 52.3969 68.2833 53.4278 62.4848C54.4845 56.4014 61.2114 48.4284 64.201 54.227L64.1753 54.2011Z" fill="#FF3131"/>
<path d="M56.5206 65.876C56.5206 65.876 57.9639 66.5749 59.0979 69.7331C60.2319 72.8912 62.3196 74.7551 64.5876 76.1788C66.8814 77.6026 69.3299 77.3178 70.9278 76.593C72.5258 75.8423 73.2732 75.7129 74.3299 76.9036C75.3866 78.1203 78.1443 78.8451 79.4845 78.0944C80.8247 77.3696 82.5515 77.6802 82.5515 77.6802L84.2783 77.9909L86.9072 76.7224C86.9072 76.7224 86.4175 79.2593 81.5979 83.0387C80.2062 84.126 78.9175 84.566 78.9175 84.566L75.1031 85.6015C75.1031 85.6015 72.3969 83.3494 69.9227 83.4529C66.6237 83.6082 66.366 82.6504 65.1031 81.382C63.8402 80.1136 54.1752 71.0274 53.1959 69.6295" fill="#E53535"/>
<path d="M64.3299 54.0457C64.3299 54.0457 57.9897 60.6467 60.9794 66.3418C60.9794 66.3418 64.1237 71.4155 65.0515 73.6935L66.3917 76.9293C66.3917 76.9293 61.1082 75.1173 59.2526 70.0435C57.7577 66.0052 56.5464 65.8758 56.5464 65.8758C56.5464 65.8758 54.0206 60.4396 64.3557 54.0457H64.3299Z" fill="#CC1515"/>
<path d="M79.9484 58.5759C79.9484 59.3008 86.0825 65.1252 78.6856 71.338C78.6856 71.338 71.134 75.8164 65.0515 73.7195C65.0515 73.7195 65.5155 74.5738 65.9794 76.127C66.4433 77.7061 70.2577 76.9812 70.9278 76.5929C71.5979 76.2047 73.0412 75.1692 74.5361 77.1366C74.5876 77.2142 75.0515 77.499 75.1031 77.5766C76.5464 78.9227 77.3196 78.8192 79.4845 78.1203C81.6495 77.4213 82.5515 77.7061 82.5515 77.7061C82.5515 77.7061 82.6546 76.2823 84.1495 74.5997C84.1495 74.5997 86.701 70.3543 84.3041 61.6305L82.9639 58.7054L79.6907 58.6018" fill="#D12828"/>
<path d="M60.2577 63.0802C60.3866 63.4685 62.0361 65.5394 62.6804 63.2355C63.3248 60.9316 67.8351 56.0132 70.567 57.7476C70.567 57.7476 77.9639 60.5692 73.4794 68.7235C73.4794 68.7235 73.5309 69.7589 74.3815 69.293C75.2577 68.827 76.1083 68.0245 76.6495 67.0408C77.2165 66.0571 79.1753 65.3064 78.8402 66.9373C78.5052 68.594 77.6289 70.2508 77.8608 70.4837C78.0928 70.7167 78.7887 71.1827 78.7887 71.1827C78.7887 71.1827 84.201 67.455 81.8557 61.9671C79.5103 56.4791 75.8248 54.5376 73.2217 53.8387C70.5928 53.1398 68.4278 52.2855 64.1495 54.1752C64.1495 54.1752 59.3041 59.922 60.2577 63.0543V63.0802Z" fill="#E51515"/>
<path d="M64.0722 67.921C65.4897 69.1895 65.8763 69.966 66.7526 69.7331C67.6289 69.5001 70.4639 70.9238 71.8299 71.8299C73.1959 72.7359 75.0515 72.8136 75.2319 72.8395C75.567 72.8912 68.7371 76.7224 65.0258 73.6937C65.0258 73.6937 61.4433 67.8692 61.3144 65.9795C61.1598 64.1157 62.6289 66.6267 64.0464 67.8951L64.0722 67.921Z" fill="#ED3535"/>
<path d="M64.1495 67.2997C64.1495 67.2997 65.4897 65.4359 67.268 65.8501C68.6598 66.1866 69.8711 66.9373 70.7216 67.8951C71.5464 68.8529 72.2423 70.5873 73.299 70.3802C74.3557 70.1473 76.4948 70.1214 77.0618 70.432C77.0618 70.432 78.5051 70.7944 77.3454 71.8299C77.3454 71.8299 76.0825 72.7359 74.2268 72.4253C72.3711 72.1146 70.5412 70.1214 69.3299 70.0178C68.1185 69.9402 66.1856 69.3707 66.1856 69.3707L64.1495 67.2739V67.2997Z" fill="#D32626"/>
<path d="M64.1495 67.2996C64.1495 67.2996 61.8299 62.1741 67.1134 61.1127C72.3969 60.0773 72.7577 65.2287 71.2371 68.4127C71.2371 68.4127 66.7526 63.3131 64.1495 67.2996Z" fill="#910707"/>
<path d="M95.5412 51.457C95.5412 51.457 99.5619 60.7762 99.0722 64.1673C98.5825 67.5326 100.052 59.9996 91.3144 56.2201L91.0567 55.3918C91.0567 55.3918 87.2165 42.5262 73.8402 45.6843L71.933 46.5386C71.933 46.5386 67.8866 43.3545 64.0979 46.0209C60.3093 48.6872 60.9278 48.946 58.2732 49.7744C55.6186 50.6028 51.6237 52.8031 51.6237 52.8031C51.6237 52.8031 51.2371 50.0592 54.3557 44.3123C57.5 38.5655 62.3969 30.5925 74.5876 33.9836C86.7784 37.3748 93.2474 40.4553 95.4897 51.4829L95.5412 51.457Z" fill="#D32020"/>
<path d="M67.6804 65.9535C67.6804 65.9535 69.0979 62.5106 67.0876 61.7858C67.0876 61.7858 65.8247 61.294 64.3814 62.5883C64.3814 62.5883 62.6289 64.4262 64.1495 67.3255C64.1495 67.3255 65.232 65.3064 67.6804 65.9794V65.9535Z" fill="#770303"/>
</g>
<defs>
<clipPath id="clip0_70_774">
<rect width="80" height="73" fill="white" transform="translate(30 33)"/>
</clipPath>
</defs>
</svg>
