<svg width="516" height="239" viewBox="0 0 516 239" fill="none" xmlns="http://www.w3.org/2000/svg">
<path d="M112.075 104.221C112.075 98.6608 110.502 94.0579 107.358 90.4121C104.259 86.7207 99.9066 83.9408 94.3012 82.0723C88.6957 80.1582 82.2016 79.1328 74.8188 78.9961C80.5609 78.9049 85.9841 78.0846 91.0883 76.5352C96.1925 74.9401 100.34 72.5703 103.53 69.4258C106.765 66.2357 108.383 62.2025 108.383 57.3262C108.383 51.9941 106.424 47.6419 102.504 44.2695C98.6306 40.8516 93.0935 38.3451 85.893 36.75C78.738 35.1094 70.2615 34.2891 60.4633 34.2891H12.3383V36.4082C14.3891 36.9551 15.9841 37.6159 17.1234 38.3906C18.3083 39.1198 19.1287 40.1224 19.5844 41.3984C20.0857 42.6745 20.3363 44.3835 20.3363 46.5254V120.764C20.3363 122.906 20.0857 124.615 19.5844 125.891C19.1287 127.167 18.3083 128.192 17.1234 128.967C15.9841 129.696 14.3891 130.334 12.3383 130.881V133H60.4633C66.8891 133 73.1553 132.453 79.2621 131.359C85.4145 130.22 90.9516 128.488 95.8734 126.164C100.841 123.84 104.783 120.855 107.7 117.209C110.616 113.563 112.075 109.234 112.075 104.221ZM77.3481 105.246C77.3481 112.583 75.5023 118.553 71.8109 123.156C68.1195 127.759 62.5141 130.22 54.9945 130.539H53.4906V81.7305L58.3441 81.9355C62.5369 82.1634 66.0232 83.3711 68.8031 85.5586C71.6287 87.7005 73.7478 90.5033 75.1606 93.9668C76.6189 97.3848 77.3481 101.145 77.3481 105.246ZM75.0922 58.5566C75.0922 65.666 73.6111 70.8158 70.6488 74.0059C67.6866 77.196 63.585 78.9049 58.3441 79.1328L53.4906 79.3379V36.75H54.9945C59.5063 36.9323 63.2432 37.9805 66.2055 39.8945C69.2133 41.763 71.4464 44.3151 72.9047 47.5508C74.363 50.7409 75.0922 54.4095 75.0922 58.5566ZM119.804 98.8203C119.804 106.34 121.604 112.743 125.205 118.029C128.805 123.316 133.59 127.349 139.56 130.129C145.53 132.909 152.07 134.299 159.179 134.299C166.289 134.299 172.623 133.091 178.183 130.676C183.789 128.26 187.89 124.729 190.488 120.08L190.419 117.961C188.915 119.602 186.887 120.992 184.335 122.131C181.829 123.27 179.072 123.84 176.064 123.84C171.37 123.84 167.063 122.541 163.144 119.943C159.27 117.3 156.149 113.244 153.779 107.775C151.455 102.261 150.292 95.2201 150.292 86.6523C150.292 79.9076 150.999 74.7578 152.412 71.2031C153.87 67.6484 156.012 65.8711 158.837 65.8711C160.432 65.8711 161.708 66.623 162.665 68.127C163.622 69.5853 164.306 71.7956 164.716 74.7578C165.172 77.7201 165.4 81.4342 165.4 85.9004C165.4 87.9512 165.377 89.6829 165.331 91.0957C165.286 92.5085 165.218 93.7617 165.126 94.8555L166.289 93.9668L146.943 94.4453V96.9746H190.898C191.126 95.6074 191.24 93.9668 191.24 92.0527C191.24 86.3105 189.941 81.2747 187.343 76.9453C184.746 72.5703 181.009 69.1523 176.132 66.6914C171.302 64.2305 165.537 63 158.837 63C151.044 63 144.208 64.5267 138.33 67.5801C132.496 70.6335 127.939 74.849 124.658 80.2266C121.422 85.6042 119.804 91.8021 119.804 98.8203ZM218.11 134.299C222.303 134.299 226.108 133.775 229.526 132.727C232.944 131.678 235.724 130.174 237.866 128.215C240.053 126.255 241.352 123.885 241.762 121.105C242.127 124.113 243.312 126.574 245.317 128.488C247.368 130.357 249.874 131.747 252.836 132.658C255.844 133.57 258.92 134.025 262.065 134.025C265.665 134.025 269.038 133.661 272.182 132.932C275.372 132.157 277.81 131.2 279.497 130.061V128.01C278.904 128.192 278.198 128.283 277.377 128.283C275.691 128.283 274.278 127.668 273.139 126.438C272.045 125.161 271.499 123.179 271.499 120.49V87.6094C271.499 79.224 268.422 73.026 262.27 69.0156C256.163 65.0052 247.322 63 235.747 63C228.227 63 221.915 63.8659 216.811 65.5977C211.707 67.3294 207.856 69.6309 205.258 72.502C202.706 75.3275 201.43 78.4492 201.43 81.8672C201.43 85.2852 202.661 88.1562 205.122 90.4805C207.628 92.8047 210.636 93.9668 214.145 93.9668C217.517 93.9668 220.457 92.7819 222.963 90.4121C225.47 88.0423 226.723 85.1257 226.723 81.6621C226.723 78.2441 225.515 75.3503 223.1 72.9805C220.73 70.5651 217.791 69.3574 214.282 69.3574C211.183 69.3574 208.448 70.5879 206.079 73.0488C203.754 75.5098 202.547 78.4036 202.456 81.7305H204.165C204.301 79.0417 205.327 76.6491 207.241 74.5527C209.155 72.4108 211.639 70.7246 214.692 69.4941C217.745 68.2181 220.981 67.5801 224.399 67.5801C230.141 67.5801 234.425 68.9473 237.25 71.6816C240.076 74.3704 241.489 78.9277 241.489 85.3535V119.67C241.079 121.402 240.281 122.723 239.096 123.635C237.957 124.546 236.544 125.002 234.858 125.002C232.807 125.002 231.144 124.068 229.868 122.199C228.592 120.331 227.954 117.528 227.954 113.791C227.954 110.965 228.341 108.436 229.116 106.203C229.936 103.97 231.167 102.079 232.807 100.529C234.493 98.9798 236.658 97.8633 239.301 97.1797L244.36 95.9492V93.6934L229.252 96.4961C221.687 97.8177 215.603 99.5267 211 101.623C206.443 103.674 203.139 106.089 201.088 108.869C199.038 111.649 198.012 114.794 198.012 118.303C198.012 123.27 199.835 127.189 203.481 130.061C207.172 132.886 212.049 134.299 218.11 134.299ZM319.697 63.2051L281.962 67.9902V70.041L284.355 70.9297C286.315 71.7044 287.545 72.5703 288.046 73.5273C288.593 74.4844 288.867 76.3757 288.867 79.2012V111.672C288.867 119.556 290.94 125.298 295.087 128.898C299.235 132.499 304.703 134.299 311.494 134.299C317.828 134.299 323.092 133.068 327.285 130.607C331.523 128.146 334.417 124.751 335.966 120.422V133.957L373.564 130.061V128.01L371.171 127.121C369.257 126.346 368.027 125.48 367.48 124.523C366.933 123.566 366.66 121.675 366.66 118.85V63.2051L328.925 67.9902V70.041L331.318 70.9297C333.278 71.7044 334.508 72.5703 335.009 73.5273C335.556 74.4844 335.83 76.3757 335.83 79.2012V118.918C335.237 120.376 334.257 121.561 332.89 122.473C331.523 123.384 329.905 123.84 328.037 123.84C325.348 123.84 323.274 122.974 321.816 121.242C320.403 119.51 319.697 116.867 319.697 113.312V63.2051ZM385.053 111.877C385.053 117.027 386.033 121.265 387.993 124.592C389.952 127.873 392.641 130.311 396.059 131.906C399.523 133.501 403.533 134.299 408.09 134.299C413.24 134.299 417.752 133.296 421.626 131.291C425.545 129.286 428.211 126.962 429.624 124.318V122.199C428.94 122.883 428.074 123.452 427.026 123.908C425.978 124.364 424.816 124.592 423.54 124.592C421.215 124.592 419.324 123.749 417.866 122.062C416.453 120.376 415.747 117.642 415.747 113.859V68.4688L429.077 70.1094V64.3672L415.747 65.8027V43.5859H413.764L378.764 68.0586V70.1094H385.053V111.877ZM439.472 78.0391L466.748 140.383C465.061 142.753 462.851 145.396 460.117 148.312C457.428 151.275 454.58 154.146 451.572 156.926C448.61 159.751 445.807 162.189 443.164 164.24V164.445H461.757L470.986 139.426L484.589 108.049L496.211 80.4316C497.669 76.9681 498.968 74.3021 500.107 72.4336C501.246 70.5651 502.386 69.2207 503.525 68.4004C504.664 67.5345 506.032 66.8965 507.627 66.4863V64.3672H486.367V66.4863C488.645 66.8509 490.263 67.4889 491.22 68.4004C492.177 69.2663 492.565 70.6335 492.382 72.502C492.2 74.3249 491.608 76.877 490.605 80.1582L481.923 108.049H482.88L474.199 80.0898C472.741 75.168 472.216 71.7956 472.627 69.9727C473.037 68.1042 475.088 66.9421 478.779 66.4863V64.3672H429.765V66.4863C431.269 66.8509 432.5 67.3978 433.457 68.127C434.459 68.8561 435.416 69.9954 436.328 71.5449C437.239 73.0488 438.287 75.2135 439.472 78.0391Z" fill="#52719A"/>
<path d="M188.683 127.867C187.902 128.128 187.316 128.16 186.925 127.965C186.535 127.77 186.242 127.444 186.046 126.988C185.851 126.533 185.754 126.044 185.754 125.523C185.754 124.938 185.786 124.384 185.851 123.863C185.916 123.408 186.014 122.887 186.144 122.301C186.339 121.715 186.567 121.161 186.828 120.641C187.088 120.12 187.381 119.697 187.707 119.371C188.097 118.98 188.586 118.72 189.171 118.59C192.166 118.069 195.063 117.678 197.863 117.418C200.727 117.158 203.299 116.962 205.578 116.832C208.182 116.637 210.688 116.539 213.097 116.539C213.618 116.539 214.139 116.572 214.66 116.637C215.181 116.637 215.701 116.637 216.222 116.637C216.808 116.507 217.264 116.474 217.589 116.539C217.98 116.539 218.306 116.572 218.566 116.637C220.454 116.702 222.407 116.799 224.425 116.93C226.118 117.06 228.006 117.223 230.089 117.418C232.238 117.548 234.354 117.743 236.437 118.004C236.632 118.525 236.665 119.176 236.535 119.957C236.47 120.348 236.405 120.738 236.339 121.129C236.274 121.52 236.112 121.878 235.851 122.203C235.656 122.529 235.395 122.854 235.07 123.18C234.809 123.44 234.484 123.668 234.093 123.863C231.88 123.798 229.731 123.766 227.648 123.766C225.63 123.701 223.839 123.668 222.277 123.668H217.004C216.157 126.663 215.115 130.374 213.879 134.801C212.642 139.163 211.372 143.785 210.07 148.668C208.833 153.486 207.629 158.303 206.457 163.121C205.35 167.874 204.471 172.171 203.82 176.012C203.169 179.723 202.518 183.368 201.867 186.949C201.606 188.447 201.313 190.009 200.988 191.637C200.727 193.264 200.467 194.859 200.207 196.422C200.011 197.984 199.816 199.482 199.621 200.914C199.425 202.346 199.263 203.648 199.132 204.82C198.091 205.341 197.114 205.732 196.203 205.992C195.291 206.318 194.477 206.546 193.761 206.676C192.915 206.871 192.134 206.969 191.418 206.969C189.855 206.969 188.879 206.773 188.488 206.383C188.162 206.057 188.13 205.374 188.39 204.332C188.586 203.421 189.171 200.947 190.148 196.91C190.539 195.217 191.027 193.069 191.613 190.465C192.264 187.926 193.013 184.833 193.859 181.188C194.705 177.477 195.714 173.18 196.886 168.297C198.058 163.349 199.393 157.685 200.89 151.305L207.433 124.156C205.48 124.417 203.559 124.71 201.671 125.035C199.783 125.361 197.993 125.719 196.3 126.109C194.673 126.435 193.175 126.76 191.808 127.086C190.506 127.411 189.464 127.672 188.683 127.867ZM246.743 131.48C246.548 132.197 246.157 132.913 245.571 133.629C245.051 134.28 244.432 134.833 243.716 135.289C243.065 135.68 242.381 135.94 241.665 136.07C240.949 136.201 240.363 136.07 239.907 135.68C238.54 134.638 237.824 133.531 237.759 132.359C237.694 131.122 237.987 129.983 238.638 128.941C239.289 127.835 240.103 126.923 241.079 126.207C242.056 125.426 242.902 124.97 243.618 124.84C244.334 124.71 244.92 124.872 245.376 125.328C245.897 125.719 246.288 126.272 246.548 126.988C246.808 127.639 246.939 128.388 246.939 129.234C247.004 130.081 246.939 130.829 246.743 131.48ZM233.267 152.281C233.592 151.891 234.211 151.565 235.122 151.305C236.034 151.044 236.978 150.849 237.954 150.719C238.931 150.523 239.81 150.426 240.591 150.426C241.437 150.361 241.926 150.361 242.056 150.426C242.121 150.491 241.958 151.174 241.568 152.477C241.177 153.779 240.689 155.309 240.103 157.066C239.517 158.824 238.898 160.647 238.247 162.535C237.596 164.358 237.108 165.855 236.782 167.027C236.457 168.199 236.066 169.534 235.611 171.031C235.155 172.464 234.732 173.896 234.341 175.328C234.015 176.695 233.788 177.997 233.657 179.234C233.527 180.471 233.625 181.415 233.95 182.066C234.276 182.848 234.634 183.401 235.025 183.727C235.415 183.987 235.838 184.117 236.294 184.117C237.596 184.117 239.224 183.401 241.177 181.969C243.195 180.536 245.213 178.844 247.232 176.891C249.315 174.872 251.236 172.854 252.993 170.836C254.751 168.753 256.053 167.092 256.9 165.855C257.42 165.204 257.941 164.781 258.462 164.586C259.048 164.391 259.504 164.423 259.829 164.684C260.22 164.944 260.415 165.367 260.415 165.953C260.48 166.539 260.285 167.223 259.829 168.004C258.788 169.827 257.258 172.008 255.239 174.547C253.221 177.021 251.073 179.43 248.794 181.773C246.515 184.052 244.269 186.005 242.056 187.633C239.907 189.26 238.15 190.107 236.782 190.172C235.676 190.237 234.569 190.042 233.462 189.586C232.42 189.195 231.444 188.642 230.532 187.926C229.686 187.145 228.97 186.266 228.384 185.289C227.798 184.247 227.473 183.173 227.407 182.066C227.212 180.439 227.212 178.225 227.407 175.426C227.603 172.561 227.961 169.664 228.482 166.734C229.002 163.74 229.654 160.908 230.435 158.238C231.281 155.569 232.225 153.583 233.267 152.281ZM245.819 230.699C245.363 230.504 244.908 230.211 244.452 229.82C244.061 229.495 243.671 229.072 243.28 228.551C242.889 228.095 242.564 227.509 242.304 226.793C244.126 219.827 245.689 213.772 246.991 208.629C248.228 203.486 249.302 199.189 250.214 195.738C251.19 191.702 252.037 188.316 252.753 185.582C253.404 182.978 254.055 180.374 254.706 177.77C255.227 175.491 255.78 173.049 256.366 170.445C257.017 167.841 257.603 165.4 258.124 163.121C258.775 160.582 259.166 158.564 259.296 157.066C259.426 155.504 258.938 154.169 257.831 153.062C258.612 152.411 259.393 151.923 260.175 151.598C261.021 151.207 261.77 150.947 262.421 150.816C263.137 150.621 263.853 150.556 264.569 150.621C266.327 150.751 267.401 151.305 267.792 152.281C268.248 153.258 268.313 154.82 267.987 156.969C267.922 157.294 267.857 157.587 267.792 157.848C267.792 158.043 267.792 158.271 267.792 158.531C268.703 157.49 269.712 156.48 270.819 155.504C271.926 154.527 273.033 153.648 274.139 152.867C275.311 152.086 276.483 151.467 277.655 151.012C278.892 150.491 280.064 150.23 281.171 150.23C282.668 150.23 283.873 150.621 284.784 151.402C285.761 152.118 286.509 153.095 287.03 154.332C287.551 155.569 287.876 156.969 288.007 158.531C288.137 160.029 288.169 161.526 288.104 163.023C288.039 164.651 287.746 166.376 287.225 168.199C286.77 170.022 286.119 171.878 285.272 173.766C284.426 175.654 283.449 177.509 282.343 179.332C281.236 181.155 280.064 182.848 278.827 184.41C279.087 184.475 279.25 184.54 279.315 184.605C279.38 184.605 279.413 184.638 279.413 184.703C279.413 184.703 279.445 184.736 279.511 184.801C279.641 184.801 279.869 184.801 280.194 184.801C281.692 184.801 283.221 184.41 284.784 183.629C286.346 182.848 287.876 181.871 289.374 180.699C290.871 179.462 292.304 178.128 293.671 176.695C295.103 175.263 296.373 173.896 297.479 172.594C298.651 171.227 299.628 170.022 300.409 168.98C301.19 167.874 301.776 167.092 302.167 166.637C302.688 165.986 303.176 165.562 303.632 165.367C304.087 165.107 304.445 165.074 304.706 165.27C304.966 165.465 305.096 165.855 305.096 166.441C305.096 166.962 304.901 167.646 304.511 168.492C304.25 169.078 303.697 170.022 302.85 171.324C302.004 172.626 300.962 174.091 299.725 175.719C298.488 177.346 297.056 179.039 295.429 180.797C293.866 182.555 292.206 184.15 290.448 185.582C288.69 187.014 286.867 188.186 284.979 189.098C283.156 190.074 281.366 190.562 279.608 190.562C278.762 190.562 278.078 190.53 277.557 190.465C277.037 190.4 276.581 190.27 276.19 190.074C275.865 189.944 275.539 189.781 275.214 189.586C274.888 189.456 274.498 189.293 274.042 189.098C272.87 190.009 271.666 190.693 270.429 191.148C269.192 191.669 267.987 191.93 266.815 191.93C265.708 191.93 264.732 191.734 263.886 191.344C263.104 191.018 262.453 190.53 261.932 189.879C261.412 189.293 260.988 188.642 260.663 187.926C260.337 187.145 260.077 186.396 259.882 185.68C259.817 185.94 259.751 186.168 259.686 186.363C259.686 186.559 259.654 186.819 259.589 187.145C258.807 190.27 257.994 193.883 257.147 197.984C256.431 201.5 255.552 205.764 254.511 210.777C253.534 215.855 252.492 221.617 251.386 228.062C250.995 229.82 250.311 230.829 249.335 231.09C248.293 231.35 247.121 231.22 245.819 230.699ZM263.69 170.152C263.365 171.259 263.007 172.561 262.616 174.059C262.291 175.491 261.9 177.216 261.444 179.234C261.965 178.844 262.551 178.551 263.202 178.355C263.853 178.16 264.504 178.062 265.155 178.062C265.871 178.062 266.783 178.453 267.889 179.234C268.996 179.951 270.331 180.732 271.893 181.578C272.87 180.406 273.879 179.104 274.921 177.672C276.027 176.174 277.004 174.645 277.85 173.082C278.762 171.52 279.511 169.924 280.096 168.297C280.748 166.669 281.106 165.107 281.171 163.609C281.301 161.656 281.073 160.126 280.487 159.02C279.901 157.913 278.925 157.359 277.557 157.359C275.539 157.359 273.326 158.564 270.917 160.973C268.573 163.316 266.164 166.376 263.69 170.152ZM311.887 185.68C312.278 185.94 312.766 186.07 313.352 186.07C314.003 186.07 314.621 185.94 315.207 185.68C315.858 185.419 316.444 185.061 316.965 184.605C317.551 184.15 317.974 183.564 318.235 182.848C318.495 182.132 318.495 181.122 318.235 179.82C317.974 178.453 317.551 177.021 316.965 175.523C316.444 173.961 315.858 172.398 315.207 170.836C314.556 169.273 314.003 167.841 313.547 166.539C313.157 165.562 312.831 164.651 312.571 163.805C312.31 163.089 312.05 162.405 311.789 161.754C311.594 161.038 311.431 160.549 311.301 160.289C310.976 160.81 310.39 161.656 309.543 162.828C308.762 164 307.883 165.237 306.907 166.539C305.995 167.776 305.116 168.948 304.27 170.055C303.424 171.096 302.838 171.812 302.512 172.203C301.991 172.789 301.47 173.147 300.95 173.277C300.494 173.342 300.103 173.245 299.778 172.984C299.452 172.659 299.257 172.236 299.192 171.715C299.192 171.129 299.452 170.445 299.973 169.664C300.364 169.143 300.95 168.329 301.731 167.223C302.512 166.051 303.293 164.879 304.075 163.707C304.856 162.47 305.572 161.396 306.223 160.484C306.874 159.508 307.232 158.922 307.297 158.727C307.427 158.206 307.232 157.522 306.711 156.676C306.256 155.829 306.19 154.853 306.516 153.746C306.776 152.835 307.362 151.793 308.274 150.621C309.185 149.384 310.259 148.277 311.496 147.301C312.733 146.324 314.003 145.608 315.305 145.152C316.607 144.632 317.779 144.632 318.821 145.152C319.667 145.673 320.351 146.259 320.871 146.91C321.392 147.496 321.588 148.115 321.457 148.766C321.327 149.091 321.132 149.514 320.871 150.035C320.611 150.556 320.22 151.207 319.7 151.988C319.179 152.704 318.43 153.648 317.453 154.82C317.649 156.318 317.909 157.685 318.235 158.922C318.625 160.159 318.983 161.233 319.309 162.145C319.7 163.251 320.123 164.26 320.578 165.172C321.164 166.344 321.783 167.548 322.434 168.785C323.085 170.022 323.671 171.259 324.192 172.496C324.713 173.668 325.136 174.775 325.461 175.816C325.787 176.858 325.884 177.737 325.754 178.453C325.559 179.56 324.973 180.895 323.996 182.457C323.085 184.02 321.913 185.549 320.481 187.047C319.114 188.479 317.519 189.716 315.696 190.758C313.938 191.799 312.082 192.32 310.129 192.32C308.762 192.32 307.427 191.897 306.125 191.051C304.888 190.204 303.814 189.228 302.903 188.121C302.056 186.949 301.405 185.81 300.95 184.703C300.559 183.596 300.526 182.75 300.852 182.164C301.243 181.383 301.601 180.764 301.926 180.309C302.252 179.853 302.74 179.332 303.391 178.746C303.651 178.551 303.977 178.323 304.368 178.062C304.693 177.867 305.149 177.672 305.735 177.477C306.321 177.281 307.004 177.053 307.786 176.793C308.437 178.811 309.023 180.406 309.543 181.578C310.064 182.685 310.487 183.564 310.813 184.215C311.203 184.931 311.562 185.419 311.887 185.68Z" fill="#0F2F5A"/>
</svg>
