<svg width="410" height="214" viewBox="0 0 410 214" fill="none" xmlns="http://www.w3.org/2000/svg">
<path d="M116.807 82.0039C116.807 71.5677 114.186 62.8177 108.945 55.7539C103.704 48.6901 96.2532 43.3581 86.5917 39.7578C76.9758 36.112 65.5598 34.2891 52.3437 34.2891H7.77336V36.4082C9.82414 36.9551 11.4192 37.6159 12.5585 38.3906C13.7434 39.1198 14.5637 40.1224 15.0195 41.3984C15.5208 42.6745 15.7714 44.3835 15.7714 46.5254V120.764C15.7714 122.906 15.5208 124.615 15.0195 125.891C14.5637 127.167 13.7434 128.192 12.5585 128.967C11.4192 129.696 9.82414 130.334 7.77336 130.881V133H52.8222C61.7545 133 70.0943 131.883 77.8417 129.65C85.5891 127.417 92.3795 124.136 98.2128 119.807C104.046 115.477 108.603 110.145 111.885 103.811C115.166 97.4759 116.807 90.207 116.807 82.0039ZM80.3027 83.7812C80.3027 92.987 79.095 101.053 76.6796 107.98C74.2642 114.908 70.8235 120.354 66.3573 124.318C61.8912 128.238 56.5364 130.311 50.2929 130.539H48.9257V36.75H50.2929C56.8554 36.9323 62.3697 39.1426 66.8359 43.3809C71.302 47.5736 74.6516 53.2018 76.8847 60.2656C79.1633 67.2839 80.3027 75.1224 80.3027 83.7812ZM161.724 63.2051L123.989 67.9902V70.041L126.382 70.9297C128.341 71.7044 129.572 72.5703 130.073 73.5273C130.62 74.4844 130.894 76.3757 130.894 79.2012V122.473C130.894 125.07 130.438 126.962 129.526 128.146C128.66 129.286 126.815 130.197 123.989 130.881V133H168.628V130.881C165.802 130.197 163.934 129.286 163.022 128.146C162.157 126.962 161.724 125.07 161.724 122.473V63.2051ZM145.181 57.5996C149.1 57.5996 152.45 56.3691 155.229 53.9082C158.009 51.4473 159.399 48.3255 159.399 44.543C159.399 40.7148 158.009 37.5703 155.229 35.1094C152.45 32.6484 149.1 31.418 145.181 31.418C141.261 31.418 137.912 32.6484 135.132 35.1094C132.352 37.5703 130.962 40.7148 130.962 44.543C130.962 48.3255 132.352 51.4473 135.132 53.9082C137.912 56.3691 141.261 57.5996 145.181 57.5996ZM194.541 134.299C198.734 134.299 202.539 133.775 205.957 132.727C209.375 131.678 212.155 130.174 214.297 128.215C216.484 126.255 217.783 123.885 218.193 121.105C218.558 124.113 219.743 126.574 221.748 128.488C223.799 130.357 226.305 131.747 229.268 132.658C232.275 133.57 235.352 134.025 238.496 134.025C242.096 134.025 245.469 133.661 248.613 132.932C251.803 132.157 254.242 131.2 255.928 130.061V128.01C255.335 128.192 254.629 128.283 253.809 128.283C252.122 128.283 250.71 127.668 249.57 126.438C248.477 125.161 247.93 123.179 247.93 120.49V87.6094C247.93 79.224 244.854 73.026 238.701 69.0156C232.594 65.0052 223.753 63 212.178 63C204.658 63 198.346 63.8659 193.242 65.5977C188.138 67.3294 184.287 69.6309 181.689 72.502C179.137 75.3275 177.861 78.4492 177.861 81.8672C177.861 85.2852 179.092 88.1562 181.553 90.4805C184.059 92.8047 187.067 93.9668 190.576 93.9668C193.949 93.9668 196.888 92.7819 199.395 90.4121C201.901 88.0423 203.154 85.1257 203.154 81.6621C203.154 78.2441 201.947 75.3503 199.531 72.9805C197.161 70.5651 194.222 69.3574 190.713 69.3574C187.614 69.3574 184.88 70.5879 182.51 73.0488C180.186 75.5098 178.978 78.4036 178.887 81.7305H180.596C180.732 79.0417 181.758 76.6491 183.672 74.5527C185.586 72.4108 188.07 70.7246 191.123 69.4941C194.176 68.2181 197.412 67.5801 200.83 67.5801C206.572 67.5801 210.856 68.9473 213.682 71.6816C216.507 74.3704 217.92 78.9277 217.92 85.3535V119.67C217.51 121.402 216.712 122.723 215.527 123.635C214.388 124.546 212.975 125.002 211.289 125.002C209.238 125.002 207.575 124.068 206.299 122.199C205.023 120.331 204.385 117.528 204.385 113.791C204.385 110.965 204.772 108.436 205.547 106.203C206.367 103.97 207.598 102.079 209.238 100.529C210.924 98.9798 213.089 97.8633 215.732 97.1797L220.791 95.9492V93.6934L205.684 96.4961C198.118 97.8177 192.035 99.5267 187.432 101.623C182.874 103.674 179.57 106.089 177.52 108.869C175.469 111.649 174.443 114.794 174.443 118.303C174.443 123.27 176.266 127.189 179.912 130.061C183.604 132.886 188.48 134.299 194.541 134.299ZM297.222 63.2051L259.624 67.9902V70.041L262.017 70.9297C263.885 71.6589 265.093 72.5247 265.64 73.5273C266.232 74.4844 266.528 76.3757 266.528 79.2012V122.473C266.528 125.07 266.095 126.962 265.23 128.146C264.364 129.286 262.495 130.197 259.624 130.881V133H305.151V130.881C303.055 130.334 301.437 129.742 300.298 129.104C299.159 128.465 298.384 127.6 297.974 126.506C297.564 125.412 297.358 123.977 297.358 122.199L297.29 88.8398C298.566 87.974 300.571 87.2676 303.306 86.7207C306.086 86.1738 309.071 85.9004 312.261 85.9004C314.904 85.9004 317.388 86.1055 319.712 86.5156C322.036 86.8802 323.814 87.3132 325.044 87.8145C325.545 86.7207 325.955 85.3307 326.274 83.6445C326.593 81.9583 326.753 80.1582 326.753 78.2441C326.753 74.0514 325.842 70.5195 324.019 67.6484C322.196 64.7318 319.461 63.2734 315.815 63.2734C311.896 63.2734 308.433 65.1419 305.425 68.8789C302.417 72.5703 299.66 78.7682 297.153 87.4727L297.222 63.2051ZM338.037 78.0391L365.313 140.383C363.626 142.753 361.416 145.396 358.682 148.312C355.993 151.275 353.145 154.146 350.137 156.926C347.175 159.751 344.372 162.189 341.729 164.24V164.445H360.322L369.551 139.426L383.154 108.049L394.775 80.4316C396.234 76.9681 397.533 74.3021 398.672 72.4336C399.811 70.5651 400.951 69.2207 402.09 68.4004C403.229 67.5345 404.596 66.8965 406.191 66.4863V64.3672H384.932V66.4863C387.21 66.8509 388.828 67.4889 389.785 68.4004C390.742 69.2663 391.13 70.6335 390.947 72.502C390.765 74.3249 390.173 76.877 389.17 80.1582L380.488 108.049H381.445L372.764 80.0898C371.305 75.168 370.781 71.7956 371.191 69.9727C371.602 68.1042 373.652 66.9421 377.344 66.4863V64.3672H328.33V66.4863C329.834 66.8509 331.065 67.3978 332.022 68.127C333.024 68.8561 333.981 69.9954 334.893 71.5449C335.804 73.0488 336.852 75.2135 338.037 78.0391Z" fill="#7783EA"/>
<path d="M142.906 179.82C142.516 184.182 141.214 188.089 139 191.539C136.786 194.99 133.954 197.887 130.504 200.23C127.118 202.639 123.277 204.462 118.98 205.699C114.684 206.936 110.257 207.555 105.699 207.555C104.007 207.555 102.411 207.424 100.914 207.164C99.4818 206.969 98.1797 206.708 97.0078 206.383C95.8359 206.057 94.8268 205.732 93.9805 205.406C93.1992 205.146 92.6458 204.918 92.3203 204.723C91.7344 204.397 91.2461 203.974 90.8555 203.453C90.5299 202.997 90.3346 202.314 90.2695 201.402C90.2044 200.882 90.1719 200.458 90.1719 200.133C90.1719 199.872 90.2044 199.579 90.2695 199.254C90.3346 198.928 90.4648 198.473 90.6602 197.887C90.7904 197.366 90.9857 196.617 91.2461 195.641C91.3763 195.055 91.8646 193.199 92.7109 190.074C93.6224 187.014 94.6966 183.271 95.9336 178.844C97.1706 174.352 98.5052 169.501 99.9375 164.293C101.435 159.085 102.867 154.039 104.234 149.156C105.602 144.273 106.839 139.879 107.945 135.973C109.052 132.001 109.866 129.072 110.387 127.184C109.475 127.835 108.564 128.518 107.652 129.234C106.806 129.951 105.927 130.732 105.016 131.578C104.039 132.49 103.062 132.815 102.086 132.555C101.174 132.229 100.523 131.415 100.133 130.113C100.003 129.462 99.9049 128.779 99.8398 128.062C99.7747 127.477 99.7747 126.826 99.8398 126.109C99.9701 125.328 100.23 124.579 100.621 123.863C102.77 122.561 104.853 121.454 106.871 120.543C108.954 119.632 110.94 118.818 112.828 118.102C113.219 116.995 113.642 116.148 114.098 115.562C114.618 114.977 115.139 114.586 115.66 114.391C116.181 114.195 116.734 114.13 117.32 114.195C117.906 114.26 118.525 114.358 119.176 114.488C120.608 114.814 121.552 115.27 122.008 115.855C122.919 115.725 123.798 115.628 124.645 115.562C125.491 115.497 126.37 115.465 127.281 115.465C131.057 115.465 134.345 115.953 137.145 116.93C139.944 117.906 142.223 119.241 143.98 120.934C145.803 122.561 147.105 124.482 147.887 126.695C148.668 128.909 148.961 131.253 148.766 133.727C148.57 135.875 147.984 138.121 147.008 140.465C146.096 142.743 144.859 145.022 143.297 147.301C141.734 149.514 139.911 151.695 137.828 153.844C135.745 155.927 133.434 157.848 130.895 159.605C132.913 160.777 134.703 162.145 136.266 163.707C137.828 165.27 139.13 166.962 140.172 168.785C141.214 170.608 141.962 172.464 142.418 174.352C142.874 176.24 143.036 178.062 142.906 179.82ZM110.582 155.895C110.452 156.546 110.289 157.197 110.094 157.848C109.964 158.499 109.801 159.182 109.605 159.898C110.387 159.052 111.689 158.271 113.512 157.555C115.4 156.839 117.19 156.48 118.883 156.48C119.794 156.48 120.673 156.546 121.52 156.676C122.366 156.741 123.18 156.839 123.961 156.969C125.784 155.797 127.542 154.299 129.234 152.477C130.927 150.589 132.392 148.603 133.629 146.52C134.931 144.371 135.973 142.19 136.754 139.977C137.6 137.763 138.121 135.712 138.316 133.824C138.707 129.332 137.926 126.012 135.973 123.863C134.085 121.65 131.383 120.543 127.867 120.543C125.523 120.543 123.082 120.966 120.543 121.812C120.022 123.505 119.371 125.621 118.59 128.16C117.809 130.634 116.962 133.368 116.051 136.363C115.204 139.358 114.293 142.516 113.316 145.836C112.34 149.156 111.428 152.509 110.582 155.895ZM108.922 162.34C108.01 165.855 107.099 169.664 106.188 173.766C105.341 177.281 104.43 181.383 103.453 186.07C102.477 190.693 101.435 195.641 100.328 200.914C100.719 201.24 101.24 201.467 101.891 201.598C102.542 201.728 103.193 201.858 103.844 201.988C104.56 202.118 105.341 202.184 106.188 202.184C109.117 202.184 112.079 201.565 115.074 200.328C118.134 199.156 120.934 197.464 123.473 195.25C126.012 193.036 128.128 190.367 129.82 187.242C131.578 184.052 132.62 180.504 132.945 176.598C133.076 174.84 132.945 173.277 132.555 171.91C132.229 170.478 131.708 169.208 130.992 168.102C130.341 166.93 129.56 165.921 128.648 165.074C127.802 164.163 126.891 163.382 125.914 162.73C122.919 164.358 119.632 165.725 116.051 166.832C114.879 167.158 113.87 167.223 113.023 167.027C112.177 166.767 111.461 166.409 110.875 165.953C110.289 165.432 109.833 164.846 109.508 164.195C109.182 163.544 108.987 162.926 108.922 162.34ZM195.791 168.688C193.837 171.552 191.624 174.352 189.15 177.086C186.676 179.755 184.039 182.164 181.24 184.312C178.505 186.396 175.673 188.089 172.744 189.391C169.879 190.693 167.08 191.344 164.345 191.344C162.913 191.344 161.351 190.986 159.658 190.27C158.03 189.618 156.533 188.577 155.166 187.145C153.798 185.712 152.692 183.857 151.845 181.578C151.064 179.299 150.836 176.533 151.162 173.277C151.422 170.608 152.236 167.809 153.603 164.879C155.035 161.884 156.761 159.15 158.779 156.676C160.862 154.202 163.173 152.151 165.712 150.523C168.317 148.896 170.921 148.082 173.525 148.082C175.999 148.082 177.789 148.701 178.896 149.938C180.003 151.174 180.491 152.704 180.361 154.527C180.166 156.546 179.58 158.401 178.603 160.094C177.692 161.786 176.585 163.316 175.283 164.684C173.981 166.051 172.581 167.288 171.084 168.395C169.651 169.501 168.284 170.51 166.982 171.422C165.55 172.398 164.183 173.342 162.88 174.254C161.578 175.1 160.439 175.882 159.462 176.598C159.528 178.225 159.821 179.592 160.341 180.699C160.862 181.806 161.513 182.717 162.295 183.434C163.076 184.085 163.955 184.573 164.931 184.898C165.973 185.159 167.015 185.289 168.056 185.289C170.27 185.289 172.581 184.605 174.99 183.238C177.399 181.806 179.742 180.113 182.021 178.16C184.365 176.142 186.513 174.059 188.466 171.91C190.485 169.762 192.145 167.906 193.447 166.344C193.903 165.823 194.358 165.53 194.814 165.465C195.335 165.335 195.726 165.4 195.986 165.66C196.311 165.855 196.474 166.246 196.474 166.832C196.474 167.353 196.246 167.971 195.791 168.688ZM170.791 153.648C170.009 153.648 169.065 154.039 167.959 154.82C166.917 155.602 165.875 156.741 164.834 158.238C163.792 159.671 162.815 161.461 161.904 163.609C160.992 165.693 160.309 168.102 159.853 170.836C160.634 170.25 161.481 169.664 162.392 169.078C163.304 168.427 164.215 167.743 165.127 167.027C167.926 164.879 169.879 162.991 170.986 161.363C172.093 159.736 172.711 158.336 172.841 157.164C172.972 155.927 172.841 155.048 172.451 154.527C172.06 153.941 171.507 153.648 170.791 153.648ZM202.679 185.68C203.07 185.94 203.558 186.07 204.144 186.07C204.795 186.07 205.413 185.94 205.999 185.68C206.65 185.419 207.236 185.061 207.757 184.605C208.343 184.15 208.766 183.564 209.027 182.848C209.287 182.132 209.287 181.122 209.027 179.82C208.766 178.453 208.343 177.021 207.757 175.523C207.236 173.961 206.65 172.398 205.999 170.836C205.348 169.273 204.795 167.841 204.339 166.539C203.948 165.562 203.623 164.651 203.362 163.805C203.102 163.089 202.842 162.405 202.581 161.754C202.386 161.038 202.223 160.549 202.093 160.289C201.767 160.81 201.181 161.656 200.335 162.828C199.554 164 198.675 165.237 197.698 166.539C196.787 167.776 195.908 168.948 195.062 170.055C194.215 171.096 193.629 171.812 193.304 172.203C192.783 172.789 192.262 173.147 191.741 173.277C191.286 173.342 190.895 173.245 190.57 172.984C190.244 172.659 190.049 172.236 189.984 171.715C189.984 171.129 190.244 170.445 190.765 169.664C191.155 169.143 191.741 168.329 192.523 167.223C193.304 166.051 194.085 164.879 194.866 163.707C195.648 162.47 196.364 161.396 197.015 160.484C197.666 159.508 198.024 158.922 198.089 158.727C198.219 158.206 198.024 157.522 197.503 156.676C197.047 155.829 196.982 154.853 197.308 153.746C197.568 152.835 198.154 151.793 199.066 150.621C199.977 149.384 201.051 148.277 202.288 147.301C203.525 146.324 204.795 145.608 206.097 145.152C207.399 144.632 208.571 144.632 209.612 145.152C210.459 145.673 211.142 146.259 211.663 146.91C212.184 147.496 212.379 148.115 212.249 148.766C212.119 149.091 211.924 149.514 211.663 150.035C211.403 150.556 211.012 151.207 210.491 151.988C209.971 152.704 209.222 153.648 208.245 154.82C208.441 156.318 208.701 157.685 209.027 158.922C209.417 160.159 209.775 161.233 210.101 162.145C210.491 163.251 210.915 164.26 211.37 165.172C211.956 166.344 212.575 167.548 213.226 168.785C213.877 170.022 214.463 171.259 214.984 172.496C215.504 173.668 215.928 174.775 216.253 175.816C216.579 176.858 216.676 177.737 216.546 178.453C216.351 179.56 215.765 180.895 214.788 182.457C213.877 184.02 212.705 185.549 211.273 187.047C209.905 188.479 208.31 189.716 206.487 190.758C204.73 191.799 202.874 192.32 200.921 192.32C199.554 192.32 198.219 191.897 196.917 191.051C195.68 190.204 194.606 189.228 193.695 188.121C192.848 186.949 192.197 185.81 191.741 184.703C191.351 183.596 191.318 182.75 191.644 182.164C192.034 181.383 192.392 180.764 192.718 180.309C193.043 179.853 193.532 179.332 194.183 178.746C194.443 178.551 194.769 178.323 195.159 178.062C195.485 177.867 195.941 177.672 196.527 177.477C197.112 177.281 197.796 177.053 198.577 176.793C199.228 178.811 199.814 180.406 200.335 181.578C200.856 182.685 201.279 183.564 201.605 184.215C201.995 184.931 202.353 185.419 202.679 185.68ZM260.251 164.293C260.511 163.902 260.837 163.674 261.227 163.609C261.683 163.479 262.041 163.512 262.302 163.707C262.562 163.902 262.692 164.228 262.692 164.684C262.757 165.139 262.595 165.758 262.204 166.539C260.902 169.013 259.177 171.682 257.028 174.547C254.945 177.411 252.731 180.113 250.388 182.652C248.044 185.126 245.765 187.177 243.552 188.805C241.338 190.432 239.483 191.246 237.985 191.246C235.837 191.246 234.046 190.823 232.614 189.977C231.182 189.13 230.042 188.089 229.196 186.852C228.415 185.615 227.861 184.28 227.536 182.848C227.21 181.35 227.113 179.983 227.243 178.746C227.308 177.704 227.536 175.849 227.927 173.18C228.317 170.445 228.838 167.32 229.489 163.805C230.14 160.224 230.856 156.415 231.638 152.379C232.484 148.277 233.363 144.339 234.274 140.562C233.167 140.693 232.061 140.823 230.954 140.953C229.847 141.083 228.838 141.148 227.927 141.148C225.843 141.148 223.89 140.921 222.067 140.465C220.179 139.944 218.779 139.456 217.868 139C217.347 138.74 217.119 138.382 217.184 137.926C217.249 137.405 217.445 136.917 217.77 136.461C218.096 135.94 218.519 135.517 219.04 135.191C219.496 134.801 219.919 134.605 220.309 134.605C221.546 134.736 222.881 134.866 224.313 134.996C225.746 135.061 227.308 135.061 229.001 134.996C230.238 134.931 231.41 134.833 232.516 134.703C233.688 134.573 234.828 134.41 235.934 134.215C236.781 131.09 237.595 128.388 238.376 126.109C239.222 123.766 239.971 122.138 240.622 121.227C240.817 120.901 241.24 120.641 241.891 120.445C242.608 120.185 243.356 120.022 244.138 119.957C244.919 119.827 245.667 119.827 246.384 119.957C247.1 120.022 247.621 120.25 247.946 120.641C248.272 121.161 248.402 122.496 248.337 124.645C248.272 126.793 247.914 129.527 247.263 132.848C249.997 132.848 252.406 133.01 254.489 133.336C256.638 133.596 258.46 133.922 259.958 134.312C261.455 134.638 262.66 134.996 263.571 135.387C264.483 135.712 265.166 135.94 265.622 136.07C266.078 136.201 266.305 136.526 266.305 137.047C266.371 137.568 266.273 138.121 266.013 138.707C265.817 139.228 265.459 139.684 264.938 140.074C264.417 140.465 263.832 140.595 263.18 140.465C262.529 140.4 261.781 140.27 260.934 140.074C260.153 139.879 259.177 139.716 258.005 139.586C256.898 139.456 255.563 139.326 254.001 139.195C252.438 139.065 250.615 139 248.532 139C248.141 139 247.686 139.033 247.165 139.098C246.709 139.098 246.221 139.098 245.7 139.098C245.44 140.139 245.179 141.181 244.919 142.223C244.723 143.199 244.43 144.241 244.04 145.348C243.194 147.952 242.217 150.784 241.11 153.844C240.134 156.513 238.962 159.573 237.595 163.023C236.227 166.474 234.697 170.152 233.005 174.059C232.614 176.858 232.647 179.007 233.102 180.504C233.623 181.936 234.242 182.978 234.958 183.629C235.804 184.345 236.846 184.736 238.083 184.801C239.059 184.931 240.231 184.605 241.598 183.824C243.031 182.978 244.496 181.871 245.993 180.504C247.49 179.137 248.988 177.639 250.485 176.012C252.048 174.384 253.48 172.789 254.782 171.227C256.084 169.664 257.223 168.264 258.2 167.027C259.177 165.725 259.86 164.814 260.251 164.293ZM276.026 131.48C275.83 132.197 275.44 132.913 274.854 133.629C274.333 134.28 273.715 134.833 272.998 135.289C272.347 135.68 271.664 135.94 270.948 136.07C270.232 136.201 269.646 136.07 269.19 135.68C267.823 134.638 267.107 133.531 267.041 132.359C266.976 131.122 267.269 129.983 267.92 128.941C268.571 127.835 269.385 126.923 270.362 126.207C271.338 125.426 272.185 124.97 272.901 124.84C273.617 124.71 274.203 124.872 274.659 125.328C275.179 125.719 275.57 126.272 275.83 126.988C276.091 127.639 276.221 128.388 276.221 129.234C276.286 130.081 276.221 130.829 276.026 131.48ZM262.549 152.281C262.875 151.891 263.493 151.565 264.405 151.305C265.316 151.044 266.26 150.849 267.237 150.719C268.213 150.523 269.092 150.426 269.873 150.426C270.72 150.361 271.208 150.361 271.338 150.426C271.403 150.491 271.241 151.174 270.85 152.477C270.459 153.779 269.971 155.309 269.385 157.066C268.799 158.824 268.181 160.647 267.53 162.535C266.879 164.358 266.39 165.855 266.065 167.027C265.739 168.199 265.349 169.534 264.893 171.031C264.437 172.464 264.014 173.896 263.623 175.328C263.298 176.695 263.07 177.997 262.94 179.234C262.81 180.471 262.907 181.415 263.233 182.066C263.558 182.848 263.916 183.401 264.307 183.727C264.698 183.987 265.121 184.117 265.577 184.117C266.879 184.117 268.506 183.401 270.459 181.969C272.478 180.536 274.496 178.844 276.514 176.891C278.597 174.872 280.518 172.854 282.276 170.836C284.034 168.753 285.336 167.092 286.182 165.855C286.703 165.204 287.224 164.781 287.745 164.586C288.33 164.391 288.786 164.423 289.112 164.684C289.502 164.944 289.698 165.367 289.698 165.953C289.763 166.539 289.567 167.223 289.112 168.004C288.07 169.827 286.54 172.008 284.522 174.547C282.504 177.021 280.355 179.43 278.077 181.773C275.798 184.052 273.552 186.005 271.338 187.633C269.19 189.26 267.432 190.107 266.065 190.172C264.958 190.237 263.851 190.042 262.745 189.586C261.703 189.195 260.726 188.642 259.815 187.926C258.968 187.145 258.252 186.266 257.666 185.289C257.08 184.247 256.755 183.173 256.69 182.066C256.495 180.439 256.495 178.225 256.69 175.426C256.885 172.561 257.243 169.664 257.764 166.734C258.285 163.74 258.936 160.908 259.717 158.238C260.564 155.569 261.508 153.583 262.549 152.281ZM326.371 168.688C324.418 171.552 322.204 174.352 319.73 177.086C317.257 179.755 314.62 182.164 311.82 184.312C309.086 186.396 306.254 188.089 303.324 189.391C300.46 190.693 297.66 191.344 294.926 191.344C293.493 191.344 291.931 190.986 290.238 190.27C288.611 189.618 287.113 188.577 285.746 187.145C284.379 185.712 283.272 183.857 282.426 181.578C281.645 179.299 281.417 176.533 281.742 173.277C282.003 170.608 282.816 167.809 284.184 164.879C285.616 161.884 287.341 159.15 289.359 156.676C291.443 154.202 293.754 152.151 296.293 150.523C298.897 148.896 301.501 148.082 304.105 148.082C306.579 148.082 308.37 148.701 309.477 149.938C310.583 151.174 311.072 152.704 310.941 154.527C310.746 156.546 310.16 158.401 309.184 160.094C308.272 161.786 307.165 163.316 305.863 164.684C304.561 166.051 303.161 167.288 301.664 168.395C300.232 169.501 298.865 170.51 297.562 171.422C296.13 172.398 294.763 173.342 293.461 174.254C292.159 175.1 291.02 175.882 290.043 176.598C290.108 178.225 290.401 179.592 290.922 180.699C291.443 181.806 292.094 182.717 292.875 183.434C293.656 184.085 294.535 184.573 295.512 184.898C296.553 185.159 297.595 185.289 298.637 185.289C300.85 185.289 303.161 184.605 305.57 183.238C307.979 181.806 310.323 180.113 312.602 178.16C314.945 176.142 317.094 174.059 319.047 171.91C321.065 169.762 322.725 167.906 324.027 166.344C324.483 165.823 324.939 165.53 325.395 165.465C325.915 165.335 326.306 165.4 326.566 165.66C326.892 165.855 327.055 166.246 327.055 166.832C327.055 167.353 326.827 167.971 326.371 168.688ZM301.371 153.648C300.59 153.648 299.646 154.039 298.539 154.82C297.497 155.602 296.456 156.741 295.414 158.238C294.372 159.671 293.396 161.461 292.484 163.609C291.573 165.693 290.889 168.102 290.434 170.836C291.215 170.25 292.061 169.664 292.973 169.078C293.884 168.427 294.796 167.743 295.707 167.027C298.507 164.879 300.46 162.991 301.566 161.363C302.673 159.736 303.292 158.336 303.422 157.164C303.552 155.927 303.422 155.048 303.031 154.527C302.641 153.941 302.087 153.648 301.371 153.648Z" fill="#581E88"/>
<g clip-path="url(#clip0_50_674)">
<path d="M147.972 56.2766C147.972 56.2766 150.113 58.461 147.574 58.9149C145.035 59.3546 138.681 57.9787 136.624 57.9504C134.638 57.922 132.369 56.688 130.567 54.5178C130.511 54.4468 130.454 54.3759 130.397 54.305C128.567 52.0071 128.525 52.149 126.652 50.5745C124.78 49 121.163 46.4043 122.184 41.9929C123.206 37.5958 124.709 36.4043 125.901 35.1419C125.901 35.1419 126.028 31.3121 127.475 27.8227C127.475 27.8227 128.879 25.0142 129.66 24.0638C130.426 23.1135 134.071 21.4965 136.95 22.3759C136.95 22.3759 139.447 18.078 145.504 19.156C151.56 20.2341 155.078 22.7305 156.823 25.3972L158.043 28.4894C158.043 28.4894 162 28.5036 163.929 31.7802C163.929 31.7802 164.582 32.9858 164.355 34.3901C164.355 34.3901 166.454 36.5319 165.759 38.8582C165.064 41.1986 168.936 41.8795 160.255 49.9929C160.255 49.9929 155.546 54.3192 152.879 54.9717C150.227 55.6241 147.972 56.2624 147.972 56.2624V56.2766Z" fill="#C40000"/>
<path d="M133.262 52.0213C133.262 52.0213 137.858 53.2979 139.461 53.8653C141.078 54.4327 144.582 54.7589 146.028 55.4965C146.028 55.4965 147.773 56.2625 148.099 57.1703C148.099 57.1703 148.709 58.9149 144.567 58.4752C140.44 58.0355 134.894 57.8086 133.901 57.227C132.908 56.6454 129.277 53 130.667 52.5461C132.057 52.0922 132.142 51.6951 133.262 52.0071V52.0213Z" fill="#FF3131"/>
<path d="M126.184 35.4398C126.184 35.4398 126.865 39.3263 131.106 42.4327C131.106 42.4327 134.652 46.6171 135.22 46.915C135.787 47.2128 136.837 47.4823 136.837 47.4823C136.837 47.4823 131.858 42.7589 133.135 35.2128C133.135 35.2128 133.83 33.6809 132.95 31.6951C132.95 31.6951 134.539 30.2057 133.943 28.5745C133.943 28.5745 135.362 24.7306 136.922 23.1277C136.922 23.1277 134.454 21.9079 131.376 23.5533C131.376 23.5533 128.312 25.0852 127.121 29.8653C125.929 34.6313 126.043 34.8298 126.199 35.4398H126.184Z" fill="#ED3535"/>
<path d="M129.319 40.9575C129.319 40.9575 129.915 48.5745 130.95 50.305C132.27 52.5036 130.823 52.5178 130.355 52.461C129.872 52.4043 123.716 48.2057 123.135 43.6383C123.135 43.6383 123.135 38.4752 126.567 36.688C126.567 36.688 128.255 40.0639 129.319 40.9717V40.9575Z" fill="#E52C2C"/>
<path d="M129.972 45.0425C129.972 45.0425 130.043 45.0709 130.184 45.1276C131.248 45.5815 135.759 47 138.638 47.8652C142.213 48.9432 143.064 49.9361 144.397 49.7801C145.745 49.6383 148.383 50.7446 151.121 48.3191C153.858 45.8936 154.411 43.851 156.851 41.9929C159.291 40.1347 160.057 37.8794 159.915 36.8581C159.773 35.8368 161.645 38.4751 161.291 40.4468C160.936 42.4042 160.099 46.4184 159.773 47.4539C159.447 48.4893 158.34 49.7659 156.908 50.2624C155.475 50.7588 152.255 50.1489 150.652 50.4751C149.064 50.8014 145.603 51.9787 143.844 52.078C142.085 52.1773 138.624 52.1915 136.241 50.7588C133.858 49.3262 130.355 45.6808 129.943 45.0425H129.972Z" fill="#E51515"/>
<path d="M152.227 50.3759C152.227 50.3759 148.043 55.3688 146.965 55.8369C146.965 55.8369 144.596 54.9008 142.426 54.532C140.057 54.1348 134.553 52.305 133.475 52.0781C132.397 51.8369 131.603 52.1348 131.603 52.1348C131.603 52.1348 129.404 46.3334 129.986 45.0426C129.986 45.0426 133.021 48.6313 134.298 49.5816C135.574 50.532 138.369 53.071 146.255 51.6383C146.255 51.6383 150.979 50.2766 152.241 50.3618L152.227 50.3759Z" fill="#B22222"/>
<path d="M155.589 31.4397C155.589 31.4397 160.369 33.8936 159.957 36.5319C159.546 39.1702 159.319 40.8014 153.021 43.7234C153.021 43.7234 156.865 34.5603 155.589 31.4397V31.4397Z" fill="#C40000"/>
<path d="M145.092 26.4184C145.092 26.4184 148.95 24.0496 152.894 27.3972C156.142 30.1489 157.759 34.617 153.319 42.9574C153.319 42.9574 151.603 44.1773 150.922 43.4823C150.922 43.4823 150.95 42.8582 151.801 41.7801C152.652 40.6879 152.794 35.5674 151.149 33.0851C149.021 29.8652 145.078 26.4326 145.078 26.4326L145.092 26.4184Z" fill="#FF3131"/>
<path d="M140.156 26.5745C140.156 26.5745 142.312 24.3333 145.177 26.3333C148.284 28.5036 151.177 33.0567 151.177 33.0567L149.376 33C149.376 33 145.631 28.3617 140.851 30.5745C140.851 30.5745 139.688 28.5887 137.83 30.1631C135.957 31.7376 133.929 34.9574 134.894 39.1277C134.894 39.1277 132.908 39.3546 132.808 38.4468C132.667 37.1418 133.546 34.461 133.22 32.6454L132.908 31.7234L133.929 29.8369C133.929 29.8369 134.851 28.7163 137.589 28.1773C137.589 28.1773 139.177 27.3972 140.156 26.5745V26.5745Z" fill="#C40000"/>
<path d="M136.922 41.0425L140.979 45.1843C142.284 46.5035 143.149 46.7588 143.986 46.6595C145.489 46.4893 146.837 47.8368 146.837 47.8368L142.539 49.3687C142.539 49.3687 141.773 48.9007 140.865 48.6453C139.957 48.39 136.652 47.2978 136.652 47.2978C136.652 47.2978 133.901 44.3333 133.489 42.0638C133.149 40.2056 132.894 38.9574 132.894 38.9574L134.95 39.0992L136.936 41.0567L136.922 41.0425Z" fill="#FF3131"/>
<path d="M153.021 43.7234C153.021 43.7234 152.184 45.1844 151.319 46.0355C150.454 46.8865 147.73 48.0213 146.979 48.1915C146.227 48.3617 142.95 49.5107 142.95 49.5107C142.95 49.5107 146.794 50.4752 148.312 49.9929C149.83 49.5107 151.617 48.8724 154.17 45.2979C154.17 45.2979 155.73 42.7873 157.518 41.7943C157.518 41.7943 158.482 40.7305 158.922 39.8795C159.362 39.0284 159.064 39.7376 159.064 39.7376C159.064 39.7376 156.44 42.5745 153.021 43.7092V43.7234Z" fill="#B21F1F"/>
<path d="M140.809 30.617C140.809 30.617 135.702 33.4114 136.596 37.0142C136.596 37.0142 134.794 39.0426 134.894 39.1419C134.993 39.2412 134.326 38.3334 134.894 35.156C135.475 31.8227 139.177 27.4539 140.823 30.6312L140.809 30.617Z" fill="#FF3131"/>
<path d="M136.596 37.0142C136.596 37.0142 137.39 37.3971 138.014 39.1276C138.638 40.8581 139.787 41.8794 141.035 42.6596C142.298 43.4397 143.645 43.2837 144.525 42.8865C145.404 42.4752 145.816 42.4042 146.397 43.0567C146.979 43.7234 148.496 44.1205 149.234 43.7092C149.972 43.312 150.922 43.4822 150.922 43.4822L151.872 43.6525L153.319 42.9574C153.319 42.9574 153.05 44.3475 150.397 46.4184C149.631 47.0142 148.922 47.2553 148.922 47.2553L146.823 47.8227C146.823 47.8227 145.333 46.5886 143.972 46.6454C142.156 46.7305 142.014 46.2056 141.319 45.5106C140.624 44.8156 135.305 39.8369 134.766 39.0709" fill="#E53535"/>
<path d="M140.894 30.5319C140.894 30.5319 137.404 34.1489 139.05 37.2694C139.05 37.2694 140.78 40.0496 141.291 41.2978L142.028 43.0709C142.028 43.0709 139.121 42.078 138.099 39.2978C137.277 37.0851 136.61 37.0141 136.61 37.0141C136.61 37.0141 135.22 34.0354 140.908 30.5319H140.894Z" fill="#CC1515"/>
<path d="M149.489 33.0142C149.489 33.4113 152.865 36.6028 148.794 40.0071C148.794 40.0071 144.638 42.461 141.291 41.312C141.291 41.312 141.546 41.7801 141.801 42.6312C142.057 43.4964 144.156 43.0993 144.525 42.8865C144.894 42.6737 145.688 42.1064 146.511 43.1844C146.539 43.2269 146.794 43.383 146.823 43.4255C147.617 44.1631 148.043 44.1064 149.234 43.7234C150.426 43.3404 150.922 43.4964 150.922 43.4964C150.922 43.4964 150.979 42.7163 151.801 41.7943C151.801 41.7943 153.206 39.4681 151.887 34.6879L151.149 33.0851L149.348 33.0283" fill="#D12828"/>
<path d="M138.652 35.4823C138.723 35.6951 139.631 36.8298 139.986 35.5674C140.34 34.305 142.823 31.61 144.326 32.5603C144.326 32.5603 148.397 34.1064 145.929 38.5745C145.929 38.5745 145.957 39.1419 146.426 38.8866C146.908 38.6313 147.376 38.1915 147.674 37.6525C147.986 37.1135 149.064 36.7022 148.879 37.5958C148.695 38.5036 148.213 39.4114 148.34 39.5391C148.468 39.6667 148.851 39.922 148.851 39.922C148.851 39.922 151.83 37.8795 150.539 34.8724C149.248 31.8653 147.22 30.8015 145.787 30.4185C144.34 30.0355 143.149 29.5674 140.794 30.6029C140.794 30.6029 138.128 33.7518 138.652 35.4681V35.4823Z" fill="#E51515"/>
<path d="M140.752 38.1347C141.532 38.8297 141.745 39.2553 142.227 39.1276C142.709 38.9999 144.269 39.7801 145.021 40.2765C145.773 40.773 146.794 40.8155 146.894 40.8297C147.078 40.8581 143.319 42.9574 141.277 41.2978C141.277 41.2978 139.305 38.1063 139.234 37.0709C139.149 36.0496 139.957 37.4255 140.738 38.1205L140.752 38.1347Z" fill="#ED3535"/>
<path d="M140.794 37.7943C140.794 37.7943 141.532 36.773 142.511 36.9999C143.277 37.1843 143.943 37.5957 144.411 38.1205C144.865 38.6453 145.248 39.5957 145.83 39.4822C146.411 39.3546 147.589 39.3404 147.901 39.5106C147.901 39.5106 148.695 39.7092 148.057 40.2765C148.057 40.2765 147.362 40.773 146.34 40.6028C145.319 40.4326 144.312 39.3404 143.645 39.2836C142.979 39.2411 141.915 38.929 141.915 38.929L140.794 37.7801V37.7943Z" fill="#D32626"/>
<path d="M140.794 37.7944C140.794 37.7944 139.518 34.9858 142.426 34.4043C145.333 33.8369 145.532 36.6596 144.695 38.4043C144.695 38.4043 142.227 35.61 140.794 37.7944Z" fill="#910707"/>
<path d="M158.071 29.1135C158.071 29.1135 160.284 34.2199 160.014 36.078C159.745 37.922 160.553 33.7943 155.745 31.7234L155.603 31.2695C155.603 31.2695 153.489 24.2199 146.128 25.9504L145.078 26.4185C145.078 26.4185 142.851 24.6738 140.766 26.1348C138.681 27.5958 139.021 27.7376 137.56 28.1915C136.099 28.6454 133.901 29.8511 133.901 29.8511C133.901 29.8511 133.688 28.3475 135.404 25.1986C137.135 22.0497 139.83 17.6809 146.539 19.539C153.248 21.3972 156.809 23.0851 158.043 29.1277L158.071 29.1135Z" fill="#D32020"/>
<path d="M142.738 37.0567C142.738 37.0567 143.518 35.1702 142.411 34.773C142.411 34.773 141.716 34.5035 140.922 35.2127C140.922 35.2127 139.957 36.2198 140.794 37.8085C140.794 37.8085 141.39 36.7021 142.738 37.0709V37.0567Z" fill="#770303"/>
</g>
<defs>
<clipPath id="clip0_50_674">
<rect width="44.0284" height="40" fill="white" transform="translate(122 19)"/>
</clipPath>
</defs>
</svg>
