<svg width="435" height="264" viewBox="0 0 435 264" fill="none" xmlns="http://www.w3.org/2000/svg">
<path d="M79.499 108.918C79.499 116.392 80.7978 123.228 83.3955 129.426C86.0387 135.578 89.7985 140.887 94.6748 145.354C99.5966 149.82 105.43 153.283 112.175 155.744C118.965 158.205 126.53 159.436 134.87 159.436C143.028 159.436 150.456 158.16 157.155 155.607C163.854 153.01 169.597 149.387 174.382 144.738C179.213 140.09 182.927 134.667 185.524 128.469C188.122 122.271 189.421 115.549 189.421 108.303C189.421 100.829 188.099 94.0156 185.456 87.8633C182.813 81.7109 179.053 76.4017 174.177 71.9355C169.3 67.4238 163.467 63.9603 156.677 61.5449C149.886 59.084 142.344 57.8535 134.05 57.8535C125.892 57.8535 118.464 59.1523 111.765 61.75C105.111 64.3021 99.3688 67.9023 94.538 72.5508C89.7073 77.1536 85.9931 82.554 83.3955 88.752C80.7978 94.9043 79.499 101.626 79.499 108.918ZM116.003 108.166C116.003 98.14 116.618 89.5951 117.849 82.5312C119.125 75.4674 121.084 70.0898 123.727 66.3984C126.371 62.6615 129.811 60.793 134.05 60.793C136.966 60.793 139.587 61.8639 141.911 64.0059C144.235 66.1478 146.218 69.2923 147.858 73.4395C149.499 77.541 150.752 82.5768 151.618 88.5469C152.484 94.5169 152.917 101.33 152.917 108.986C152.917 119.012 152.302 127.58 151.071 134.689C149.841 141.753 147.881 147.154 145.192 150.891C142.549 154.628 139.131 156.496 134.938 156.496C131.976 156.496 129.31 155.425 126.94 153.283C124.616 151.096 122.634 147.928 120.993 143.781C119.398 139.634 118.168 134.576 117.302 128.605C116.436 122.59 116.003 115.777 116.003 108.166ZM233.518 88.2051L195.783 92.9902V95.041L198.176 95.9297C200.135 96.7044 201.366 97.5703 201.867 98.5273C202.414 99.4844 202.688 101.376 202.688 104.201V136.672C202.688 144.556 204.761 150.298 208.908 153.898C213.055 157.499 218.524 159.299 225.314 159.299C231.649 159.299 236.913 158.068 241.105 155.607C245.344 153.146 248.238 149.751 249.787 145.422V158.957L287.385 155.061V153.01L284.992 152.121C283.078 151.346 281.848 150.48 281.301 149.523C280.754 148.566 280.48 146.675 280.48 143.85V88.2051L242.746 92.9902V95.041L245.139 95.9297C247.098 96.7044 248.329 97.5703 248.83 98.5273C249.377 99.4844 249.65 101.376 249.65 104.201V143.918C249.058 145.376 248.078 146.561 246.711 147.473C245.344 148.384 243.726 148.84 241.857 148.84C239.169 148.84 237.095 147.974 235.637 146.242C234.224 144.51 233.518 141.867 233.518 138.312V88.2051ZM329.841 88.2051L292.243 92.9902V95.041L294.636 95.9297C296.504 96.6589 297.712 97.5247 298.259 98.5273C298.851 99.4844 299.147 101.376 299.147 104.201V147.473C299.147 150.07 298.715 151.962 297.849 153.146C296.983 154.286 295.114 155.197 292.243 155.881V158H337.771V155.881C335.674 155.334 334.056 154.742 332.917 154.104C331.778 153.465 331.003 152.6 330.593 151.506C330.183 150.412 329.978 148.977 329.978 147.199L329.909 113.84C331.185 112.974 333.19 112.268 335.925 111.721C338.705 111.174 341.69 110.9 344.88 110.9C347.523 110.9 350.007 111.105 352.331 111.516C354.655 111.88 356.433 112.313 357.663 112.814C358.164 111.721 358.575 110.331 358.894 108.645C359.213 106.958 359.372 105.158 359.372 103.244C359.372 99.0514 358.461 95.5195 356.638 92.6484C354.815 89.7318 352.08 88.2734 348.435 88.2734C344.515 88.2734 341.052 90.1419 338.044 93.8789C335.036 97.5703 332.279 103.768 329.772 112.473L329.841 88.2051Z" fill="#FCE5EF"/>
<path d="M64.0832 227.965C64.3436 227.77 64.7668 227.444 65.3527 226.988C65.8736 226.533 66.5246 225.686 67.3059 224.449C68.022 223.212 68.8358 221.422 69.7473 219.078C70.6587 216.734 71.6027 213.544 72.5793 209.508C73.1001 207.359 73.7837 204.625 74.6301 201.305C75.4764 197.984 76.3879 194.436 77.3645 190.66C78.4061 186.884 79.4478 183.01 80.4895 179.039C81.5311 175.003 82.5402 171.194 83.5168 167.613C84.4934 163.967 85.3723 160.68 86.1535 157.75C86.9348 154.82 87.5533 152.542 88.009 150.914C86.772 151.695 85.5676 152.574 84.3957 153.551C83.354 154.397 82.2473 155.374 81.0754 156.48C79.9035 157.522 78.7642 158.629 77.6574 159.801C76.8111 159.085 76.16 158.303 75.7043 157.457C75.4439 157.066 75.216 156.643 75.0207 156.188C74.6301 155.211 74.4348 154.202 74.4348 153.16C74.4348 152.118 75.2486 151.044 76.8762 149.938C77.7225 149.352 78.9921 148.505 80.6848 147.398C82.4426 146.292 84.591 145.217 87.1301 144.176C89.6691 143.069 92.6314 142.125 96.0168 141.344C99.4022 140.562 103.146 140.172 107.247 140.172C111.349 140.172 114.637 140.986 117.111 142.613C119.65 144.241 121.57 146.227 122.872 148.57C124.239 150.914 125.118 153.388 125.509 155.992C125.9 158.596 125.997 160.875 125.802 162.828C125.411 166.474 124.239 170.283 122.286 174.254C120.333 178.225 117.631 181.904 114.181 185.289C110.73 188.609 106.531 191.441 101.583 193.785C96.6353 196.129 90.9712 197.464 84.591 197.789C84.0702 200.263 83.5494 202.802 83.0285 205.406C82.5077 208.01 81.9543 210.582 81.3684 213.121C80.7824 215.595 80.1639 217.906 79.5129 220.055C78.927 222.268 78.3085 224.156 77.6574 225.719C77.0064 227.411 76.16 228.746 75.1184 229.723C74.0767 230.764 72.4165 231.285 70.1379 231.285C68.966 231.285 67.8918 230.992 66.9152 230.406C65.8736 229.82 64.9296 229.007 64.0832 227.965ZM87.2277 183.434C87.0324 184.475 86.772 185.842 86.4465 187.535C86.1861 189.163 85.8605 191.018 85.4699 193.102C87.2277 192.841 89.1809 192.385 91.3293 191.734C93.4777 191.018 95.6262 190.074 97.7746 188.902C99.923 187.73 102.006 186.331 104.025 184.703C106.108 183.01 107.996 181.09 109.689 178.941C111.381 176.728 112.781 174.254 113.888 171.52C115.06 168.72 115.808 165.628 116.134 162.242C116.46 158.987 116.264 156.285 115.548 154.137C114.897 151.923 113.92 150.165 112.618 148.863C111.316 147.496 109.819 146.552 108.126 146.031C106.433 145.445 104.741 145.152 103.048 145.152C101.42 145.152 99.8254 145.38 98.2629 145.836C96.7004 146.292 95.1379 146.878 93.5754 147.594C93.7707 147.659 93.9986 147.822 94.259 148.082C94.6496 148.473 94.9426 149.026 95.1379 149.742C93.5754 156.057 92.2733 161.331 91.2316 165.562C90.2551 169.794 89.4738 173.245 88.8879 175.914C88.1717 179.039 87.6184 181.546 87.2277 183.434ZM120.776 213.512C120.32 214.228 119.832 214.684 119.311 214.879C118.725 215.139 118.237 215.172 117.846 214.977C117.391 214.846 117.098 214.521 116.968 214C116.837 213.479 116.968 212.828 117.358 212.047C117.554 211.656 118.009 210.777 118.725 209.41C119.376 208.043 120.19 206.415 121.167 204.527C122.078 202.574 123.087 200.491 124.194 198.277C125.301 195.999 126.343 193.85 127.319 191.832C128.361 189.814 129.305 188.023 130.151 186.461C130.998 184.833 131.616 183.661 132.007 182.945C131.291 182.294 130.802 181.839 130.542 181.578C130.281 181.253 130.086 180.602 129.956 179.625C129.826 178.779 130.021 177.672 130.542 176.305C131.063 174.938 131.746 173.635 132.593 172.398C133.439 171.096 134.383 169.99 135.425 169.078C136.466 168.167 137.475 167.711 138.452 167.711C140.275 167.711 141.544 168.297 142.261 169.469C143.042 170.641 143.498 171.845 143.628 173.082C143.758 173.928 143.693 175.003 143.432 176.305C143.172 177.607 142.684 178.779 141.968 179.82C142.163 179.951 142.423 180.113 142.749 180.309C143.074 180.439 143.595 180.504 144.311 180.504C145.353 180.504 146.069 180.439 146.46 180.309C146.916 180.178 147.599 180.113 148.511 180.113C149.617 180.113 150.529 180.406 151.245 180.992C151.961 181.513 152.547 182.197 153.003 183.043C153.458 183.824 153.784 184.703 153.979 185.68C154.24 186.591 154.402 187.438 154.468 188.219C154.663 189.846 154.24 191.539 153.198 193.297C152.156 195.055 150.887 196.975 149.389 199.059C148.478 200.361 147.567 201.826 146.655 203.453C145.744 205.081 145.353 206.546 145.483 207.848C145.613 208.694 145.841 209.378 146.167 209.898C146.492 210.419 147.404 210.68 148.901 210.68C150.008 210.68 151.212 210.289 152.514 209.508C153.882 208.661 155.249 207.62 156.616 206.383C158.048 205.081 159.448 203.681 160.815 202.184C162.182 200.621 163.452 199.124 164.624 197.691C165.796 196.194 166.772 194.859 167.554 193.688C168.4 192.516 169.018 191.669 169.409 191.148C169.735 190.628 170.158 190.27 170.679 190.074C171.199 189.879 171.655 189.879 172.046 190.074C172.436 190.27 172.664 190.66 172.729 191.246C172.86 191.832 172.632 192.613 172.046 193.59C171.655 194.241 170.971 195.283 169.995 196.715C169.083 198.147 167.944 199.742 166.577 201.5C165.275 203.258 163.81 205.081 162.182 206.969C160.555 208.792 158.83 210.484 157.007 212.047C155.249 213.544 153.458 214.781 151.636 215.758C149.878 216.734 148.185 217.223 146.557 217.223C144.865 217.223 143.465 216.897 142.358 216.246C141.251 215.595 140.34 214.814 139.624 213.902C138.973 212.926 138.485 211.884 138.159 210.777C137.899 209.605 137.801 208.531 137.866 207.555C137.931 206.773 138.126 205.96 138.452 205.113C138.843 204.202 139.266 203.29 139.721 202.379C140.242 201.402 140.763 200.458 141.284 199.547C141.87 198.57 142.391 197.626 142.846 196.715C143.953 194.827 144.832 193.232 145.483 191.93C146.199 190.562 146.557 189.423 146.557 188.512C146.557 187.926 146.427 187.405 146.167 186.949C145.906 186.493 145.483 186.266 144.897 186.266C144.507 186.266 144.214 186.298 144.018 186.363C143.888 186.363 143.725 186.363 143.53 186.363C143.4 186.363 143.172 186.396 142.846 186.461C142.586 186.461 142.163 186.461 141.577 186.461C140.731 186.461 140.014 186.331 139.429 186.07C138.843 185.81 138.289 185.615 137.768 185.484C137.508 185.94 136.922 186.917 136.011 188.414C135.099 189.911 134.025 191.669 132.788 193.688C131.616 195.706 130.346 197.822 128.979 200.035C127.677 202.249 126.44 204.332 125.268 206.285C124.096 208.173 123.12 209.801 122.339 211.168C121.492 212.47 120.971 213.251 120.776 213.512ZM194.168 198.473C193.517 200.947 192.638 203.258 191.532 205.406C190.425 207.555 189.09 209.41 187.528 210.973C186.03 212.535 184.305 213.74 182.352 214.586C180.464 215.497 178.381 215.953 176.102 215.953C173.433 215.953 171.317 215.367 169.754 214.195C168.257 213.089 167.118 211.689 166.336 209.996C165.62 208.303 165.197 206.448 165.067 204.43C164.871 202.411 164.774 200.523 164.774 198.766C164.774 197.529 164.937 196.161 165.262 194.664C165.523 193.167 165.913 191.637 166.434 190.074C166.955 188.512 167.606 186.949 168.387 185.387C169.233 183.824 170.21 182.392 171.317 181.09C171.707 179.983 172.293 179.007 173.075 178.16C173.921 177.314 174.865 176.63 175.907 176.109C177.013 175.523 178.185 175.1 179.422 174.84C180.659 174.514 181.864 174.352 183.036 174.352C183.231 174.352 183.394 174.384 183.524 174.449C183.719 174.514 183.914 174.579 184.11 174.645C184.956 174.71 185.998 175.035 187.235 175.621C188.537 176.207 189.774 177.086 190.946 178.258C192.183 179.43 193.224 180.927 194.071 182.75C194.917 184.508 195.34 186.656 195.34 189.195C195.34 189.716 195.308 190.367 195.243 191.148C195.177 191.865 195.112 192.483 195.047 193.004C196.545 192.418 198.107 191.702 199.735 190.855C201.362 190.009 202.925 189.13 204.422 188.219C205.985 187.242 207.417 186.266 208.719 185.289C210.021 184.312 211.063 183.434 211.844 182.652C212.495 182.066 213.049 181.741 213.504 181.676C213.96 181.611 214.286 181.741 214.481 182.066C214.676 182.392 214.709 182.848 214.579 183.434C214.448 184.02 214.09 184.671 213.504 185.387C213.179 185.777 212.332 186.559 210.965 187.73C209.663 188.902 208.101 190.172 206.278 191.539C204.455 192.906 202.469 194.241 200.321 195.543C198.172 196.845 196.121 197.822 194.168 198.473ZM177.664 183.629C177.469 184.215 177.371 184.833 177.371 185.484C177.371 186.526 177.437 187.633 177.567 188.805C177.697 189.911 178.023 190.921 178.543 191.832C179.064 192.743 179.878 193.525 180.985 194.176C182.157 194.762 183.752 195.055 185.77 195.055C186.095 195.055 186.421 195.055 186.746 195.055C187.072 194.99 187.398 194.924 187.723 194.859C187.918 194.013 188.081 193.264 188.211 192.613C188.407 191.897 188.504 191.279 188.504 190.758C188.635 189.521 188.635 188.251 188.504 186.949C188.374 185.647 188.114 184.475 187.723 183.434C187.398 182.327 186.942 181.448 186.356 180.797C185.835 180.081 185.184 179.723 184.403 179.723C183.166 179.723 181.961 180.081 180.789 180.797C179.683 181.448 178.641 182.392 177.664 183.629ZM171.414 200.816C171.414 201.988 171.48 203.16 171.61 204.332C171.74 205.439 172 206.448 172.391 207.359C172.782 208.206 173.302 208.922 173.954 209.508C174.605 210.029 175.451 210.289 176.493 210.289C177.664 210.289 178.739 210.029 179.715 209.508C180.692 208.922 181.571 208.206 182.352 207.359C183.133 206.448 183.817 205.439 184.403 204.332C185.054 203.16 185.607 201.956 186.063 200.719C185.607 200.784 185.151 200.849 184.696 200.914C184.305 200.914 183.849 200.914 183.329 200.914C180.855 200.914 178.706 200.198 176.883 198.766C175.125 197.268 173.758 195.38 172.782 193.102C172.391 194.469 172.066 195.803 171.805 197.105C171.545 198.408 171.414 199.645 171.414 200.816ZM235.822 195.348C235.497 197.366 235.171 199.286 234.846 201.109C234.585 202.932 234.423 204.397 234.357 205.504C234.292 207.132 234.585 208.303 235.236 209.02C235.887 209.736 236.604 210.094 237.385 210.094C238.296 210.094 239.403 209.638 240.705 208.727C242.072 207.815 243.505 206.676 245.002 205.309C246.499 203.941 247.997 202.444 249.494 200.816C250.992 199.189 252.359 197.659 253.596 196.227C254.898 194.729 255.972 193.427 256.818 192.32C257.73 191.214 258.348 190.497 258.674 190.172C259.064 189.781 259.455 189.553 259.846 189.488C260.301 189.423 260.66 189.488 260.92 189.684C261.18 189.879 261.311 190.237 261.311 190.758C261.311 191.279 261.05 191.93 260.529 192.711C259.748 193.948 258.739 195.413 257.502 197.105C256.265 198.733 254.898 200.426 253.4 202.184C251.903 203.941 250.308 205.667 248.615 207.359C246.988 209.052 245.327 210.549 243.635 211.852C242.007 213.154 240.412 214.195 238.85 214.977C237.352 215.823 235.985 216.246 234.748 216.246C233.837 216.246 232.958 215.986 232.111 215.465C231.33 214.944 230.614 214.26 229.963 213.414C229.312 212.568 228.791 211.624 228.4 210.582C228.075 209.54 227.945 208.499 228.01 207.457C228.075 207.001 228.173 206.22 228.303 205.113C225.568 208.173 222.801 210.615 220.002 212.438C217.268 214.195 214.631 215.074 212.092 215.074C211.18 215.074 210.204 214.846 209.162 214.391C208.12 213.935 207.176 213.186 206.33 212.145C205.549 211.103 204.898 209.736 204.377 208.043C203.856 206.35 203.661 204.299 203.791 201.891C203.986 198.115 204.735 194.534 206.037 191.148C207.339 187.763 208.967 184.833 210.92 182.359C212.938 179.82 215.184 177.835 217.658 176.402C220.197 174.905 222.736 174.156 225.275 174.156C226.382 174.156 227.391 174.449 228.303 175.035C229.214 175.556 229.995 176.272 230.646 177.184C231.298 178.03 231.818 178.974 232.209 180.016C232.665 181.057 232.99 182.034 233.186 182.945C233.641 181.057 234.064 179.202 234.455 177.379C234.846 175.556 235.236 173.831 235.627 172.203C236.278 169.794 236.962 167.19 237.678 164.391C238.329 161.982 239.077 159.215 239.924 156.09C240.77 152.965 241.714 149.677 242.756 146.227C243.407 145.706 244.025 145.315 244.611 145.055C245.197 144.794 245.751 144.599 246.271 144.469C246.857 144.273 247.411 144.176 247.932 144.176C248.583 144.176 249.169 144.273 249.689 144.469C250.21 144.599 250.633 145.022 250.959 145.738C251.35 146.389 251.61 147.398 251.74 148.766C251.87 150.133 251.87 151.988 251.74 154.332C251.61 157.197 251.089 160.322 250.178 163.707C249.331 167.092 248.192 170.608 246.76 174.254C245.327 177.835 243.667 181.448 241.779 185.094C239.956 188.674 237.971 192.092 235.822 195.348ZM230.061 196.617C230.321 195.38 230.549 194.143 230.744 192.906C231.005 191.669 231.298 190.4 231.623 189.098C231.493 189.163 231.363 189.228 231.232 189.293C231.167 189.358 231.07 189.423 230.939 189.488C230.223 189.814 229.735 189.814 229.475 189.488C229.214 189.098 229.084 188.512 229.084 187.73C229.084 187.34 229.051 186.656 228.986 185.68C228.921 184.638 228.726 183.596 228.4 182.555C228.14 181.448 227.717 180.504 227.131 179.723C226.545 178.876 225.731 178.453 224.689 178.453C223.192 178.453 221.662 179.234 220.1 180.797C218.537 182.294 217.072 184.15 215.705 186.363C214.338 188.512 213.199 190.823 212.287 193.297C211.376 195.771 210.855 197.984 210.725 199.938C210.594 203.062 210.985 205.309 211.896 206.676C212.808 208.043 214.045 208.727 215.607 208.727C216.779 208.727 218.049 208.271 219.416 207.359C220.848 206.448 222.215 205.341 223.518 204.039C224.885 202.737 226.122 201.402 227.229 200.035C228.4 198.668 229.344 197.529 230.061 196.617ZM265.367 215.562C262.893 215.562 260.875 215.172 259.312 214.391C257.75 213.609 256.513 212.665 255.601 211.559C254.755 210.387 254.136 209.15 253.746 207.848C253.42 206.48 253.257 205.243 253.257 204.137C253.257 202.184 253.42 200.133 253.746 197.984C254.071 195.771 254.462 193.753 254.918 191.93C255.373 190.042 255.764 188.447 256.089 187.145C256.48 185.842 256.741 185.029 256.871 184.703C257.457 182.815 258.205 181.188 259.117 179.82C260.093 178.388 261.428 177.411 263.121 176.891C263.772 176.76 264.455 176.63 265.172 176.5C265.757 176.435 266.343 176.402 266.929 176.402C267.58 176.402 268.166 176.5 268.687 176.695C266.929 181.188 265.53 184.931 264.488 187.926C263.511 190.921 262.763 193.362 262.242 195.25C261.656 197.398 261.298 199.124 261.168 200.426C260.842 203.355 261.102 205.569 261.949 207.066C262.795 208.564 264.52 209.312 267.125 209.312C268.817 209.312 270.445 208.694 272.007 207.457C273.57 206.155 275.002 204.495 276.304 202.477C276.109 201.435 276.011 200.361 276.011 199.254C276.011 197.171 276.174 195.152 276.5 193.199C276.89 191.181 277.313 189.326 277.769 187.633C278.29 185.875 278.811 184.312 279.332 182.945C279.918 181.578 280.406 180.504 280.797 179.723C281.513 178.16 282.164 177.216 282.75 176.891C283.336 176.5 284.28 176.272 285.582 176.207C286.102 176.142 286.526 176.142 286.851 176.207C287.242 176.207 287.567 176.24 287.828 176.305C288.609 176.5 289 176.891 289 177.477C289 178.518 288.935 180.081 288.804 182.164C288.674 184.247 288.283 186.396 287.632 188.609C287.177 190.432 286.721 191.995 286.265 193.297C285.875 194.534 285.484 195.608 285.093 196.52C284.703 197.366 284.312 198.082 283.922 198.668C283.531 199.189 283.173 199.677 282.847 200.133C282.977 202.086 283.14 203.648 283.336 204.82C283.531 205.992 283.759 206.904 284.019 207.555C284.345 208.141 284.703 208.564 285.093 208.824C285.549 209.02 286.037 209.117 286.558 209.117C287.47 209.117 288.544 208.694 289.781 207.848C291.018 206.936 292.287 205.829 293.589 204.527C294.957 203.16 296.291 201.695 297.593 200.133C298.961 198.505 300.198 196.975 301.304 195.543C302.411 194.111 303.355 192.874 304.136 191.832C304.918 190.725 305.406 190.042 305.601 189.781C306.057 189.195 306.48 188.837 306.871 188.707C307.326 188.577 307.685 188.642 307.945 188.902C308.205 189.098 308.336 189.456 308.336 189.977C308.401 190.432 308.27 190.953 307.945 191.539C306.643 194.013 305.015 196.65 303.062 199.449C301.174 202.184 299.123 204.723 296.91 207.066C294.761 209.41 292.58 211.363 290.367 212.926C288.153 214.488 286.07 215.27 284.117 215.27C282.359 215.27 280.959 214.684 279.918 213.512C278.941 212.275 278.095 210.517 277.379 208.238C275.881 210.582 274.123 212.405 272.105 213.707C270.087 214.944 267.841 215.562 265.367 215.562ZM316.884 210.68C318.902 210.68 321.116 209.898 323.525 208.336C325.999 206.708 328.375 204.82 330.654 202.672C332.997 200.523 335.113 198.342 337.001 196.129C338.954 193.85 340.419 192.027 341.396 190.66C341.982 189.814 342.535 189.326 343.056 189.195C343.577 189 343.967 189.065 344.228 189.391C344.488 189.716 344.586 190.237 344.521 190.953C344.456 191.604 344.163 192.353 343.642 193.199C343.186 193.98 342.405 195.12 341.298 196.617C340.256 198.049 338.987 199.645 337.489 201.402C336.057 203.095 334.397 204.853 332.509 206.676C330.686 208.434 328.765 210.061 326.747 211.559C324.729 212.991 322.646 214.163 320.497 215.074C318.349 216.051 316.233 216.539 314.15 216.539C311.285 216.539 308.876 215.986 306.923 214.879C305.035 213.837 303.505 212.47 302.333 210.777C301.226 209.085 300.445 207.229 299.989 205.211C299.534 203.128 299.306 201.077 299.306 199.059C299.306 197.04 299.762 194.534 300.673 191.539C301.584 188.544 302.919 185.68 304.677 182.945C306.5 180.146 308.779 177.77 311.513 175.816C314.247 173.798 317.47 172.789 321.181 172.789C323.264 172.789 325.022 173.505 326.454 174.938C327.952 176.37 328.668 178.323 328.603 180.797C328.603 181.969 328.407 183.141 328.017 184.312C327.626 185.419 327.105 186.428 326.454 187.34C325.803 188.186 325.022 188.87 324.111 189.391C323.264 189.911 322.32 190.172 321.279 190.172C320.432 190.172 319.781 189.879 319.325 189.293C318.935 188.642 318.674 187.926 318.544 187.145C318.479 186.298 318.479 185.484 318.544 184.703C318.674 183.922 318.805 183.401 318.935 183.141C319.26 182.685 319.618 182.359 320.009 182.164C320.4 181.969 320.855 181.741 321.376 181.48C321.767 181.285 322.06 180.992 322.255 180.602C322.515 180.211 322.646 179.788 322.646 179.332C322.646 178.876 322.515 178.486 322.255 178.16C321.995 177.835 321.571 177.672 320.986 177.672C320.4 177.672 319.325 178.16 317.763 179.137C316.265 180.048 314.703 181.448 313.075 183.336C311.513 185.159 310.113 187.47 308.876 190.27C307.639 193.069 306.988 196.324 306.923 200.035C306.858 202.184 307.151 203.941 307.802 205.309C308.453 206.676 309.267 207.75 310.243 208.531C311.22 209.312 312.294 209.866 313.466 210.191C314.638 210.517 315.777 210.68 316.884 210.68ZM372.796 189.293C373.056 188.902 373.382 188.674 373.772 188.609C374.228 188.479 374.586 188.512 374.846 188.707C375.107 188.902 375.237 189.228 375.237 189.684C375.302 190.139 375.139 190.758 374.749 191.539C373.447 194.013 371.721 196.682 369.573 199.547C367.49 202.411 365.276 205.113 362.932 207.652C360.589 210.126 358.31 212.177 356.096 213.805C353.883 215.432 352.027 216.246 350.53 216.246C348.382 216.246 346.591 215.823 345.159 214.977C343.727 214.13 342.587 213.089 341.741 211.852C340.96 210.615 340.406 209.28 340.081 207.848C339.755 206.35 339.658 204.983 339.788 203.746C339.853 202.704 340.081 200.849 340.471 198.18C340.862 195.445 341.383 192.32 342.034 188.805C342.685 185.224 343.401 181.415 344.182 177.379C345.029 173.277 345.908 169.339 346.819 165.562C345.712 165.693 344.606 165.823 343.499 165.953C342.392 166.083 341.383 166.148 340.471 166.148C338.388 166.148 336.435 165.921 334.612 165.465C332.724 164.944 331.324 164.456 330.413 164C329.892 163.74 329.664 163.382 329.729 162.926C329.794 162.405 329.99 161.917 330.315 161.461C330.641 160.94 331.064 160.517 331.585 160.191C332.041 159.801 332.464 159.605 332.854 159.605C334.091 159.736 335.426 159.866 336.858 159.996C338.291 160.061 339.853 160.061 341.546 159.996C342.783 159.931 343.955 159.833 345.061 159.703C346.233 159.573 347.373 159.41 348.479 159.215C349.326 156.09 350.139 153.388 350.921 151.109C351.767 148.766 352.516 147.138 353.167 146.227C353.362 145.901 353.785 145.641 354.436 145.445C355.152 145.185 355.901 145.022 356.682 144.957C357.464 144.827 358.212 144.827 358.929 144.957C359.645 145.022 360.166 145.25 360.491 145.641C360.817 146.161 360.947 147.496 360.882 149.645C360.817 151.793 360.458 154.527 359.807 157.848C362.542 157.848 364.951 158.01 367.034 158.336C369.182 158.596 371.005 158.922 372.503 159.312C374 159.638 375.205 159.996 376.116 160.387C377.027 160.712 377.711 160.94 378.167 161.07C378.623 161.201 378.85 161.526 378.85 162.047C378.916 162.568 378.818 163.121 378.557 163.707C378.362 164.228 378.004 164.684 377.483 165.074C376.962 165.465 376.376 165.595 375.725 165.465C375.074 165.4 374.326 165.27 373.479 165.074C372.698 164.879 371.721 164.716 370.55 164.586C369.443 164.456 368.108 164.326 366.546 164.195C364.983 164.065 363.16 164 361.077 164C360.686 164 360.231 164.033 359.71 164.098C359.254 164.098 358.766 164.098 358.245 164.098C357.985 165.139 357.724 166.181 357.464 167.223C357.268 168.199 356.975 169.241 356.585 170.348C355.738 172.952 354.762 175.784 353.655 178.844C352.679 181.513 351.507 184.573 350.139 188.023C348.772 191.474 347.242 195.152 345.55 199.059C345.159 201.858 345.192 204.007 345.647 205.504C346.168 206.936 346.787 207.978 347.503 208.629C348.349 209.345 349.391 209.736 350.628 209.801C351.604 209.931 352.776 209.605 354.143 208.824C355.576 207.978 357.041 206.871 358.538 205.504C360.035 204.137 361.533 202.639 363.03 201.012C364.593 199.384 366.025 197.789 367.327 196.227C368.629 194.664 369.768 193.264 370.745 192.027C371.721 190.725 372.405 189.814 372.796 189.293Z" fill="#F05098"/>
<g clip-path="url(#clip0_270_2279)">
<path d="M60.7599 54.1599C55.0577 53.4931 49.5029 53.8706 44.6106 57.1766C36.6306 62.5511 32.3896 69.7973 34.0143 79.741C34.1872 80.8131 34.9738 86.1169 35.3249 87.4087C38.5416 99.6498 41.6798 111.142 51.865 119.409C54.7604 121.755 57.3963 121.082 58.7536 117.563C63.3901 105.457 63.7479 93.0837 60.7549 80.558C59.7412 76.3378 59.0643 72.37 58.0782 68.1241C57.6181 66.1889 57.0675 63.8241 57.1906 61.9641C57.2897 60.7424 57.6834 59.4786 57.9016 58.6344C58.1197 57.7901 58.6345 56.8505 59.8744 55.7516C60.866 54.8831 61.2081 54.2832 60.7343 54.1323L60.7599 54.1599Z" fill="black"/>
<path d="M100.022 2.38369C88.8988 2.07285 79.3423 11.8367 80.0951 23.7189C80.144 24.5465 80.2175 25.4283 81.2968 24.35C83.5855 22.2782 86.2822 22.113 89.1391 22.6465C93.5032 23.4762 97.4986 24.9047 101.77 26.0773C102.904 26.3862 103.349 26.5894 105.343 26.6908C115.217 29.0592 125.02 29.0541 134.78 25.9308C138.771 24.6421 139.517 22.5124 136.895 19.2707C134.858 16.7436 133.433 14.9852 130.01 12.486C126.588 9.98682 107.153 2.598 100.022 2.38369Z" fill="black"/>
<path d="M84.9901 86.3689C87.6679 80.316 91.0214 74.7147 96.0108 70.2402C105.713 61.574 117.132 58.2465 129.963 59.1808C130.681 59.2078 131.397 59.3145 132.173 59.2105C129.18 57.3401 125.829 56.4685 122.385 55.9663C116.186 55.0677 110.167 55.7475 104.33 57.9526C103.088 58.4121 102.634 58.4217 102.399 56.8945C100.963 47.5972 101.912 38.6292 106.093 30.1287C106.872 28.5596 106.602 27.9368 104.986 27.6897C102.59 26.9605 101.001 26.6878 100.053 26.4124C99.1255 26.9903 99.1171 27.9223 98.896 28.8464C96.8502 37.9331 96.7236 46.9853 99.0207 56.0485C99.1593 56.6131 99.2969 57.2043 99.4356 57.7689C99.6823 59.0035 99.1223 59.7284 98.0383 60.2205C96.7927 60.7598 96.2907 59.9418 95.7906 59.0706C91.7212 51.8055 88.6786 44.1528 87.1762 35.9185C86.5346 32.4315 85.8929 28.9445 85.1439 25.48C84.962 24.6474 85.2057 23.8308 84.1547 23.4451C82.9843 23.4011 82.1011 24.2204 81.8604 24.9572C80.6955 27.604 80.5405 30.3152 80.9923 33.1825C82.6965 43.8484 86.6986 53.6149 92.5948 62.6001C93.3755 63.8015 93.3485 64.5197 92.1491 65.2472C91.7136 65.4972 91.2996 65.8812 91.0176 66.2969C90.1205 67.4886 89.349 67.4596 88.1308 66.5615C83.6722 63.2775 78.9879 60.3314 73.9625 57.9585C70.1417 56.1369 66.2281 54.6581 61.8808 55.5073C60.859 55.7619 59.5396 56.1386 58.9723 57.7689C59.0248 59.2093 60.57 58.4948 61.4911 58.7957C69.4948 61.3071 77.0932 64.6822 84.0565 69.3654C84.9143 69.9304 86.2856 70.3015 85.4819 71.843C84.7649 73.2013 83.6537 72.9997 82.4165 72.607C75.8116 70.4412 68.9882 69.8389 62.1112 69.9537C61.1516 69.971 59.9586 69.8197 59.6141 71.1919C60.0626 72.7271 60.0625 74.8582 61.0986 75.6429C62.1859 76.4829 64.1215 75.3035 65.7019 75.0698C71.6195 74.253 77.4341 74.7642 83.3713 76.2656C82.3375 78.9705 80.9116 81.4743 80.5388 84.3106C81.2351 84.9227 82.2399 85.1203 82.735 86.1244C83.2055 87.0744 84.1701 86.9242 84.9901 86.3689Z" fill="black"/>
<path d="M59.6152 71.1653C60.2108 70.202 61.184 70.5315 62.0116 70.4827C69.1626 70.165 76.1572 71.1733 82.9769 73.2939C84.5303 73.7784 86.7133 72.3952 86.7702 70.879C86.8051 69.948 85.8515 69.8056 85.2792 69.4378C77.7949 64.4421 69.7317 60.6765 61.1458 58.0635C60.5399 57.8809 59.6947 57.6894 59.2389 57.0596C58.7151 58.2386 58.224 59.2591 58.2884 62.5114C58.3352 65.5232 59.0334 68.2132 59.6152 71.1653Z" fill="white"/>
<path d="M84.9904 86.3689C83.9264 86.329 82.879 86.556 82.593 84.947C82.4182 83.9282 81.283 84.3651 80.5392 84.3106C78.514 91.4268 78.7569 98.4418 81.4274 105.361C81.6499 105.823 81.9189 105.753 82.1722 105.389C81.9104 98.8798 82.9736 92.5532 84.9904 86.3689Z" fill="#030303"/>
<path d="M82.1716 105.389C81.9322 105.38 81.6662 105.37 81.4268 105.361C81.4018 106.026 81.7276 106.571 82.1805 107.281C82.4755 106.519 82.39 105.957 82.1716 105.389Z" fill="#424242"/>
<path d="M100.396 26.5052C96.6522 25.459 93.2105 24.1844 89.0797 23.5233C86.538 23.1083 84.8286 23.2306 84.1556 23.4184C85.3272 29.1097 86.4713 34.8265 87.6695 40.5187C89.141 47.4466 92.2355 53.7161 95.6276 59.8636C96.0272 60.5712 96.2363 62.0974 97.5797 61.0823C98.5949 60.2946 100.825 60.4849 100.094 57.98C97.9198 50.5996 97.2968 43.0643 98.3291 35.4313C98.7355 32.4098 98.9065 29.2729 100.397 26.4786L100.396 26.5052Z" fill="white"/>
</g>
<defs>
<clipPath id="clip0_270_2279">
<rect width="102.697" height="120" fill="white" transform="translate(36.5) rotate(2.14902)"/>
</clipPath>
</defs>
</svg>
