<svg width="958" height="163" viewBox="0 0 958 163" fill="none" xmlns="http://www.w3.org/2000/svg">
<mask id="mask0_88_781" style="mask-type:alpha" maskUnits="userSpaceOnUse" x="0" y="0" width="958" height="163">
<rect width="958" height="163" fill="#D9D9D9"/>
</mask>
<g mask="url(#mask0_88_781)">
<path d="M111.655 32.3848C111.655 23.0423 107.508 16.0241 99.2137 11.3301C90.965 6.63607 79.3211 4.28906 64.282 4.28906H14.1063V6.4082C16.157 6.95508 17.7521 7.61589 18.8914 8.39062C20.0763 9.11979 20.8966 10.1224 21.3524 11.3984C21.8537 12.6745 22.1043 14.3835 22.1043 16.5254V90.7637C22.1043 92.9056 21.8537 94.6146 21.3524 95.8906C20.8966 97.1667 20.0763 98.1921 18.8914 98.9668C17.7521 99.696 16.157 100.334 14.1063 100.881V103H63.9402V100.881C61.6616 100.471 59.8843 99.8327 58.6082 98.9668C57.3777 98.1009 56.5119 96.9388 56.0106 95.4805C55.5093 93.9766 55.2586 92.0397 55.2586 89.6699V62.3945H64.282C70.7534 62.3945 76.8374 61.7793 82.534 60.5488C88.2762 59.3184 93.312 57.4727 97.6414 55.0117C102.016 52.5052 105.434 49.3835 107.895 45.6465C110.402 41.8639 111.655 37.4434 111.655 32.3848ZM76.8602 33.6152C76.8602 38.7194 76.1082 43.1855 74.6043 47.0137C73.146 50.8418 71.0268 53.8724 68.2469 56.1055C65.5125 58.3385 62.254 59.569 58.4715 59.7969L55.2586 60.002V6.75L58.4715 6.88672C62.6186 7.20573 66.0594 8.52734 68.7938 10.8516C71.5281 13.1758 73.5561 16.2975 74.8777 20.2168C76.1994 24.1361 76.8602 28.6022 76.8602 33.6152ZM136.133 104.299C140.325 104.299 144.131 103.775 147.549 102.727C150.967 101.678 153.747 100.174 155.889 98.2148C158.076 96.2552 159.375 93.8854 159.785 91.1055C160.15 94.1133 161.334 96.5742 163.34 98.4883C165.39 100.357 167.897 101.747 170.859 102.658C173.867 103.57 176.943 104.025 180.088 104.025C183.688 104.025 187.06 103.661 190.205 102.932C193.395 102.157 195.833 101.2 197.519 100.061V98.0098C196.927 98.1921 196.221 98.2832 195.4 98.2832C193.714 98.2832 192.301 97.668 191.162 96.4375C190.068 95.1615 189.521 93.179 189.521 90.4902V57.6094C189.521 49.224 186.445 43.026 180.293 39.0156C174.186 35.0052 165.345 33 153.769 33C146.25 33 139.938 33.8659 134.834 35.5977C129.73 37.3294 125.879 39.6309 123.281 42.502C120.729 45.3275 119.453 48.4492 119.453 51.8672C119.453 55.2852 120.683 58.1562 123.144 60.4805C125.651 62.8047 128.659 63.9668 132.168 63.9668C135.54 63.9668 138.48 62.7819 140.986 60.4121C143.493 58.0423 144.746 55.1257 144.746 51.6621C144.746 48.2441 143.538 45.3503 141.123 42.9805C138.753 40.5651 135.814 39.3574 132.305 39.3574C129.206 39.3574 126.471 40.5879 124.101 43.0488C121.777 45.5098 120.57 48.4036 120.478 51.7305H122.187C122.324 49.0417 123.349 46.6491 125.264 44.5527C127.178 42.4108 129.661 40.7246 132.715 39.4941C135.768 38.2181 139.004 37.5801 142.422 37.5801C148.164 37.5801 152.448 38.9473 155.273 41.6816C158.099 44.3704 159.512 48.9277 159.512 55.3535V89.6699C159.101 91.4017 158.304 92.7233 157.119 93.6348C155.98 94.5462 154.567 95.002 152.881 95.002C150.83 95.002 149.167 94.0677 147.89 92.1992C146.614 90.3307 145.976 87.528 145.976 83.791C145.976 80.9655 146.364 78.4362 147.139 76.2031C147.959 73.9701 149.189 72.0788 150.83 70.5293C152.516 68.9798 154.681 67.8633 157.324 67.1797L162.383 65.9492V63.6934L147.275 66.4961C139.71 67.8177 133.626 69.5267 129.023 71.623C124.466 73.6738 121.162 76.0892 119.111 78.8691C117.06 81.6491 116.035 84.7936 116.035 88.3027C116.035 93.2702 117.858 97.1895 121.504 100.061C125.195 102.886 130.071 104.299 136.133 104.299ZM238.95 -0.496094L201.216 4.28906V6.33984L203.608 7.22852C205.568 8.00326 206.798 8.86914 207.3 9.82617C207.847 10.7832 208.12 12.6745 208.12 15.5V92.4727C208.12 95.0703 207.664 96.9616 206.753 98.1465C205.887 99.2858 204.041 100.197 201.216 100.881V103H244.761V100.881C242.345 100.243 240.773 99.4225 240.044 98.4199C239.315 97.3717 238.95 95.5488 238.95 92.9512V-0.496094ZM235.464 71.8965L244.487 72.1699V69.1621L235.464 69.5039V71.8965ZM256.177 103H292.475V100.949C291.336 100.402 290.174 99.582 288.989 98.4883C287.85 97.349 286.437 95.3893 284.751 92.6094C283.11 89.8294 280.991 85.7051 278.393 80.2363L263.286 49.3379L261.85 51.5938L264.311 49.4746C267.41 47.0592 270.259 45.0312 272.856 43.3906C275.454 41.7044 277.915 40.3145 280.239 39.2207C282.609 38.0814 285.002 37.1699 287.417 36.4863V34.3672H258.911V36.4863C262.785 37.3978 264.835 39.084 265.063 41.5449C265.291 43.9603 263.924 46.6035 260.962 49.4746L240.249 70.1875L256.177 103ZM291.25 68.8203C291.25 76.3398 293.05 82.7428 296.65 88.0293C300.251 93.3158 305.036 97.349 311.006 100.129C316.976 102.909 323.516 104.299 330.625 104.299C337.734 104.299 344.069 103.091 349.629 100.676C355.234 98.2604 359.336 94.7285 361.934 90.0801L361.865 87.9609C360.361 89.6016 358.333 90.9915 355.781 92.1309C353.275 93.2702 350.518 93.8398 347.51 93.8398C342.816 93.8398 338.509 92.541 334.59 89.9434C330.716 87.3001 327.594 83.2441 325.225 77.7754C322.9 72.2611 321.738 65.2201 321.738 56.6523C321.738 49.9076 322.445 44.7578 323.857 41.2031C325.316 37.6484 327.458 35.8711 330.283 35.8711C331.878 35.8711 333.154 36.623 334.111 38.127C335.068 39.5853 335.752 41.7956 336.162 44.7578C336.618 47.7201 336.846 51.4342 336.846 55.9004C336.846 57.9512 336.823 59.6829 336.777 61.0957C336.732 62.5085 336.663 63.7617 336.572 64.8555L337.734 63.9668L318.389 64.4453V66.9746H362.344C362.572 65.6074 362.685 63.9668 362.685 62.0527C362.685 56.3105 361.387 51.2747 358.789 46.9453C356.191 42.5703 352.454 39.1523 347.578 36.6914C342.747 34.2305 336.982 33 330.283 33C322.49 33 315.654 34.5267 309.775 37.5801C303.942 40.6335 299.385 44.849 296.103 50.2266C292.868 55.6042 291.25 61.8021 291.25 68.8203ZM375.063 81.877C375.063 87.0267 376.043 91.265 378.003 94.5918C379.963 97.873 382.651 100.311 386.069 101.906C389.533 103.501 393.543 104.299 398.101 104.299C403.25 104.299 407.762 103.296 411.636 101.291C415.555 99.2858 418.221 96.9616 419.634 94.3184V92.1992C418.95 92.8828 418.084 93.4525 417.036 93.9082C415.988 94.3639 414.826 94.5918 413.55 94.5918C411.226 94.5918 409.334 93.7487 407.876 92.0625C406.463 90.3763 405.757 87.6419 405.757 83.8594V38.4688L419.087 40.1094V34.3672L405.757 35.8027V13.5859H403.774L368.774 38.0586V40.1094H375.063V81.877ZM552.876 32.3848C552.876 23.0423 548.729 16.0241 540.435 11.3301C532.186 6.63607 520.542 4.28906 505.503 4.28906H455.327V6.4082C457.378 6.95508 458.973 7.61589 460.112 8.39062C461.297 9.11979 462.118 10.1224 462.573 11.3984C463.075 12.6745 463.325 14.3835 463.325 16.5254V90.7637C463.325 92.9056 463.075 94.6146 462.573 95.8906C462.118 97.1667 461.297 98.1921 460.112 98.9668C458.973 99.696 457.378 100.334 455.327 100.881V103H505.161V100.881C502.883 100.471 501.105 99.8327 499.829 98.9668C498.599 98.1009 497.733 96.9388 497.232 95.4805C496.73 93.9766 496.48 92.0397 496.48 89.6699V62.3945H505.503C511.974 62.3945 518.058 61.7793 523.755 60.5488C529.497 59.3184 534.533 57.4727 538.862 55.0117C543.237 52.5052 546.655 49.3835 549.116 45.6465C551.623 41.8639 552.876 37.4434 552.876 32.3848ZM518.081 33.6152C518.081 38.7194 517.329 43.1855 515.825 47.0137C514.367 50.8418 512.248 53.8724 509.468 56.1055C506.733 58.3385 503.475 59.569 499.692 59.7969L496.48 60.002V6.75L499.692 6.88672C503.84 7.20573 507.28 8.52734 510.015 10.8516C512.749 13.1758 514.777 16.2975 516.099 20.2168C517.42 24.1361 518.081 28.6022 518.081 33.6152ZM595.195 33.2051L557.598 37.9902V40.041L559.99 40.9297C561.859 41.6589 563.066 42.5247 563.613 43.5273C564.206 44.4844 564.502 46.3757 564.502 49.2012V92.4727C564.502 95.0703 564.069 96.9616 563.203 98.1465C562.337 99.2858 560.469 100.197 557.598 100.881V103H603.125V100.881C601.029 100.334 599.411 99.7415 598.272 99.1035C597.132 98.4655 596.357 97.5996 595.947 96.5059C595.537 95.4121 595.332 93.9766 595.332 92.1992L595.264 58.8398C596.54 57.974 598.545 57.2676 601.279 56.7207C604.059 56.1738 607.044 55.9004 610.234 55.9004C612.878 55.9004 615.361 56.1055 617.686 56.5156C620.01 56.8802 621.787 57.3132 623.018 57.8145C623.519 56.7207 623.929 55.3307 624.248 53.6445C624.567 51.9583 624.727 50.1582 624.727 48.2441C624.727 44.0514 623.815 40.5195 621.992 37.6484C620.169 34.7318 617.435 33.2734 613.789 33.2734C609.87 33.2734 606.406 35.1419 603.398 38.8789C600.391 42.5703 597.634 48.7682 595.127 57.4727L595.195 33.2051ZM669.37 104.299C677.437 104.299 684.637 102.795 690.972 99.7871C697.306 96.7337 702.274 92.5182 705.874 87.1406C709.52 81.7174 711.343 75.4512 711.343 68.3418C711.343 61.0046 709.497 54.6927 705.806 49.4062C702.16 44.1198 697.147 40.0638 690.767 37.2383C684.432 34.4128 677.232 33 669.165 33C661.053 33 653.83 34.5267 647.495 37.5801C641.161 40.6335 636.17 44.8717 632.525 50.2949C628.924 55.6725 627.124 61.8932 627.124 68.957C627.124 76.2943 628.947 82.6061 632.593 87.8926C636.284 93.179 641.32 97.235 647.7 100.061C654.081 102.886 661.304 104.299 669.37 104.299ZM669.507 101.496C667.274 101.496 665.405 100.266 663.901 97.8047C662.443 95.2982 661.327 91.584 660.552 86.6621C659.823 81.7402 659.458 75.6335 659.458 68.3418C659.458 61.4147 659.777 55.5358 660.415 50.7051C661.053 45.8743 662.056 42.2057 663.423 39.6992C664.79 37.1471 666.636 35.8711 668.96 35.8711C671.193 35.8711 673.062 37.1016 674.566 39.5625C676.069 42.0234 677.186 45.7148 677.915 50.6367C678.644 55.5586 679.009 61.6882 679.009 69.0254C679.009 75.9525 678.69 81.8314 678.052 86.6621C677.459 91.4928 676.457 95.1842 675.044 97.7363C673.677 100.243 671.831 101.496 669.507 101.496ZM755.235 33.2051L717.569 37.9902V40.041L719.961 40.9297C721.921 41.7044 723.151 42.5703 723.653 43.5273C724.199 44.4844 724.473 46.3757 724.473 49.2012V92.4727C724.473 95.0703 724.017 96.9616 723.106 98.1465C722.24 99.2858 720.394 100.197 717.569 100.881V103H761.113V100.881C758.698 100.243 757.126 99.4225 756.397 98.4199C755.668 97.3717 755.303 95.5488 755.303 92.9512V47.6289L755.235 47.5605V33.2051ZM779.57 33C773.373 33 768.132 34.276 763.848 36.8281C759.564 39.3346 756.647 42.8438 755.098 47.3555V48.9961C755.827 47.3099 756.875 45.9883 758.242 45.0312C759.655 44.0286 761.387 43.5273 763.438 43.5273C765.853 43.5273 767.744 44.3249 769.112 45.9199C770.479 47.515 771.162 49.9531 771.162 53.2344V92.9512C771.162 95.5488 770.798 97.3717 770.069 98.4199C769.385 99.4225 767.835 100.243 765.42 100.881V103H807.735V100.881C805.365 100.243 803.815 99.4225 803.086 98.4199C802.357 97.3717 801.992 95.5488 801.992 92.9512V54.3965C801.992 47.2871 799.987 41.9551 795.977 38.4004C792.012 34.8001 786.543 33 779.57 33ZM825.918 33C819.584 33 814.229 34.2988 809.854 36.8965C805.479 39.4486 802.539 43.026 801.035 47.6289V49.2695C801.765 47.4466 802.881 46.0339 804.385 45.0312C805.889 44.0286 807.735 43.5273 809.922 43.5273C812.429 43.5273 814.365 44.3249 815.733 45.9199C817.145 47.515 817.852 49.9531 817.852 53.2344V92.9512C817.852 95.5488 817.487 97.3717 816.758 98.4199C816.074 99.4225 814.525 100.243 812.11 100.881V103H855.586V100.881C852.761 100.197 850.892 99.2858 849.981 98.1465C849.115 96.9616 848.682 95.0703 848.682 92.4727V54.8066C848.682 47.515 846.631 42.069 842.529 38.4688C838.473 34.8229 832.936 33 825.918 33ZM903.716 104.299C911.782 104.299 918.983 102.795 925.318 99.7871C931.652 96.7337 936.62 92.5182 940.22 87.1406C943.866 81.7174 945.689 75.4512 945.689 68.3418C945.689 61.0046 943.843 54.6927 940.152 49.4062C936.506 44.1198 931.493 40.0638 925.113 37.2383C918.778 34.4128 911.577 33 903.511 33C895.399 33 888.176 34.5267 881.841 37.5801C875.506 40.6335 870.516 44.8717 866.87 50.2949C863.27 55.6725 861.47 61.8932 861.47 68.957C861.47 76.2943 863.293 82.6061 866.939 87.8926C870.63 93.179 875.666 97.235 882.046 100.061C888.426 102.886 895.65 104.299 903.716 104.299ZM903.853 101.496C901.62 101.496 899.751 100.266 898.247 97.8047C896.789 95.2982 895.672 91.584 894.898 86.6621C894.169 81.7402 893.804 75.6335 893.804 68.3418C893.804 61.4147 894.123 55.5358 894.761 50.7051C895.399 45.8743 896.402 42.2057 897.769 39.6992C899.136 37.1471 900.982 35.8711 903.306 35.8711C905.539 35.8711 907.407 37.1016 908.911 39.5625C910.415 42.0234 911.532 45.7148 912.261 50.6367C912.99 55.5586 913.355 61.6882 913.355 69.0254C913.355 75.9525 913.036 81.8314 912.398 86.6621C911.805 91.4928 910.803 95.1842 909.39 97.7363C908.023 100.243 906.177 101.496 903.853 101.496Z" fill="#EDC1A4"/>
<path d="M226.873 155.238C224.985 155.238 223.13 154.848 221.307 154.066C219.484 153.35 217.857 152.309 216.424 150.941C214.992 149.574 213.853 147.882 213.006 145.863C212.16 143.91 211.802 141.664 211.932 139.125C212.127 134.698 213.006 130.596 214.569 126.82C216.131 123.044 217.954 119.789 220.038 117.055C222.121 114.32 224.237 112.204 226.385 110.707C228.534 109.145 230.324 108.363 231.756 108.363C232.668 108.363 233.482 108.689 234.198 109.34C234.979 109.926 235.565 110.707 235.955 111.684C236.411 112.595 236.672 113.637 236.737 114.809C236.867 115.915 236.737 116.99 236.346 118.031C235.695 117.576 234.491 117.738 232.733 118.52C230.975 119.301 229.152 120.635 227.264 122.523C225.376 124.346 223.683 126.625 222.186 129.359C220.689 132.094 219.842 135.154 219.647 138.539C219.517 140.753 219.614 142.641 219.94 144.203C220.33 145.766 220.851 147.035 221.502 148.012C222.218 148.988 223 149.704 223.846 150.16C224.758 150.616 225.702 150.844 226.678 150.844C229.022 150.844 231.17 149.965 233.123 148.207C235.077 146.449 236.867 143.975 238.495 140.785C240.122 137.66 241.652 133.917 243.084 129.555C244.517 125.128 245.884 120.245 247.186 114.906C247.577 113.279 248.065 111.26 248.651 108.852C249.302 106.443 249.985 103.839 250.702 101.039C251.418 98.1745 252.166 95.2448 252.948 92.25C253.794 89.1901 254.575 86.293 255.291 83.5586C256.008 80.7591 256.691 78.1875 257.342 75.8438C257.993 73.4349 258.514 71.4818 258.905 69.9844C256.756 69.9844 254.608 70.1146 252.459 70.375C250.636 70.5703 248.748 70.8633 246.795 71.2539C244.842 71.5794 243.215 72.0352 241.913 72.6211C241.782 72.556 241.685 72.3932 241.62 72.1328C241.554 71.8073 241.489 71.4818 241.424 71.1562C241.359 70.7656 241.294 70.3424 241.229 69.8867C241.164 69.3659 241.164 68.8451 241.229 68.3242C241.294 67.8685 241.359 67.3802 241.424 66.8594C241.489 66.2734 241.62 65.6875 241.815 65.1016C243.508 64.5807 245.461 64.1901 247.674 63.9297C249.953 63.6042 252.069 63.3763 254.022 63.2461C256.301 63.0508 258.644 62.9531 261.053 62.9531C262.811 62.9531 264.634 63.0508 266.522 63.2461C268.149 63.3763 269.972 63.5716 271.991 63.832C274.009 64.0924 276.027 64.4831 278.045 65.0039C278.501 65.4596 278.794 65.9805 278.924 66.5664C278.989 66.8268 279.022 67.1198 279.022 67.4453C279.022 67.9661 278.924 68.4544 278.729 68.9102C278.599 69.3008 278.371 69.724 278.045 70.1797C277.785 70.5703 277.427 70.8958 276.971 71.1562C276.255 70.9609 275.343 70.8307 274.237 70.7656C273.195 70.6354 272.153 70.5052 271.112 70.375C269.94 70.2448 268.703 70.1471 267.401 70.082L257.049 116.176C256.789 117.283 256.333 119.04 255.682 121.449C255.031 123.793 254.12 126.43 252.948 129.359C251.841 132.224 250.474 135.186 248.846 138.246C247.284 141.306 245.428 144.073 243.28 146.547C241.131 149.086 238.69 151.169 235.955 152.797C233.221 154.424 230.194 155.238 226.873 155.238ZM299.094 120.473C298.443 122.947 297.564 125.258 296.457 127.406C295.35 129.555 294.016 131.41 292.453 132.973C290.956 134.535 289.23 135.74 287.277 136.586C285.389 137.497 283.306 137.953 281.027 137.953C278.358 137.953 276.242 137.367 274.68 136.195C273.182 135.089 272.043 133.689 271.262 131.996C270.546 130.303 270.122 128.448 269.992 126.43C269.797 124.411 269.699 122.523 269.699 120.766C269.699 119.529 269.862 118.161 270.188 116.664C270.448 115.167 270.839 113.637 271.359 112.074C271.88 110.512 272.531 108.949 273.312 107.387C274.159 105.824 275.135 104.392 276.242 103.09C276.633 101.983 277.219 101.007 278 100.16C278.846 99.3138 279.79 98.6302 280.832 98.1094C281.939 97.5234 283.111 97.1003 284.348 96.8398C285.585 96.5143 286.789 96.3516 287.961 96.3516C288.156 96.3516 288.319 96.3841 288.449 96.4492C288.645 96.5143 288.84 96.5794 289.035 96.6445C289.882 96.7096 290.923 97.0352 292.16 97.6211C293.462 98.207 294.699 99.0859 295.871 100.258C297.108 101.43 298.15 102.927 298.996 104.75C299.842 106.508 300.266 108.656 300.266 111.195C300.266 111.716 300.233 112.367 300.168 113.148C300.103 113.865 300.038 114.483 299.973 115.004C301.47 114.418 303.033 113.702 304.66 112.855C306.288 112.009 307.85 111.13 309.348 110.219C310.91 109.242 312.342 108.266 313.645 107.289C314.947 106.312 315.988 105.434 316.77 104.652C317.421 104.066 317.974 103.741 318.43 103.676C318.885 103.611 319.211 103.741 319.406 104.066C319.602 104.392 319.634 104.848 319.504 105.434C319.374 106.02 319.016 106.671 318.43 107.387C318.104 107.777 317.258 108.559 315.891 109.73C314.589 110.902 313.026 112.172 311.203 113.539C309.38 114.906 307.395 116.241 305.246 117.543C303.098 118.845 301.047 119.822 299.094 120.473ZM282.59 105.629C282.395 106.215 282.297 106.833 282.297 107.484C282.297 108.526 282.362 109.633 282.492 110.805C282.622 111.911 282.948 112.921 283.469 113.832C283.99 114.743 284.803 115.525 285.91 116.176C287.082 116.762 288.677 117.055 290.695 117.055C291.021 117.055 291.346 117.055 291.672 117.055C291.997 116.99 292.323 116.924 292.648 116.859C292.844 116.013 293.007 115.264 293.137 114.613C293.332 113.897 293.43 113.279 293.43 112.758C293.56 111.521 293.56 110.251 293.43 108.949C293.299 107.647 293.039 106.475 292.648 105.434C292.323 104.327 291.867 103.448 291.281 102.797C290.76 102.081 290.109 101.723 289.328 101.723C288.091 101.723 286.887 102.081 285.715 102.797C284.608 103.448 283.566 104.392 282.59 105.629ZM276.34 122.816C276.34 123.988 276.405 125.16 276.535 126.332C276.665 127.439 276.926 128.448 277.316 129.359C277.707 130.206 278.228 130.922 278.879 131.508C279.53 132.029 280.376 132.289 281.418 132.289C282.59 132.289 283.664 132.029 284.641 131.508C285.617 130.922 286.496 130.206 287.277 129.359C288.059 128.448 288.742 127.439 289.328 126.332C289.979 125.16 290.533 123.956 290.988 122.719C290.533 122.784 290.077 122.849 289.621 122.914C289.23 122.914 288.775 122.914 288.254 122.914C285.78 122.914 283.632 122.198 281.809 120.766C280.051 119.268 278.684 117.38 277.707 115.102C277.316 116.469 276.991 117.803 276.73 119.105C276.47 120.408 276.34 121.645 276.34 122.816ZM331.177 78.4805C330.982 79.1966 330.591 79.9128 330.005 80.6289C329.485 81.2799 328.866 81.8333 328.15 82.2891C327.499 82.6797 326.815 82.9401 326.099 83.0703C325.383 83.2005 324.797 83.0703 324.341 82.6797C322.974 81.638 322.258 80.5312 322.193 79.3594C322.128 78.1224 322.421 76.9831 323.072 75.9414C323.723 74.8346 324.537 73.9232 325.513 73.207C326.49 72.4258 327.336 71.9701 328.052 71.8398C328.768 71.7096 329.354 71.8724 329.81 72.3281C330.331 72.7188 330.722 73.2721 330.982 73.9883C331.242 74.6393 331.373 75.388 331.373 76.2344C331.438 77.0807 331.373 77.8294 331.177 78.4805ZM317.701 99.2812C318.026 98.8906 318.645 98.5651 319.556 98.3047C320.468 98.0443 321.412 97.849 322.388 97.7188C323.365 97.5234 324.244 97.4258 325.025 97.4258C325.871 97.3607 326.36 97.3607 326.49 97.4258C326.555 97.4909 326.392 98.1745 326.002 99.4766C325.611 100.779 325.123 102.309 324.537 104.066C323.951 105.824 323.332 107.647 322.681 109.535C322.03 111.358 321.542 112.855 321.216 114.027C320.891 115.199 320.5 116.534 320.045 118.031C319.589 119.464 319.166 120.896 318.775 122.328C318.449 123.695 318.222 124.997 318.091 126.234C317.961 127.471 318.059 128.415 318.384 129.066C318.71 129.848 319.068 130.401 319.459 130.727C319.849 130.987 320.272 131.117 320.728 131.117C322.03 131.117 323.658 130.401 325.611 128.969C327.629 127.536 329.647 125.844 331.666 123.891C333.749 121.872 335.67 119.854 337.427 117.836C339.185 115.753 340.487 114.092 341.334 112.855C341.854 112.204 342.375 111.781 342.896 111.586C343.482 111.391 343.938 111.423 344.263 111.684C344.654 111.944 344.849 112.367 344.849 112.953C344.914 113.539 344.719 114.223 344.263 115.004C343.222 116.827 341.692 119.008 339.673 121.547C337.655 124.021 335.507 126.43 333.228 128.773C330.949 131.052 328.703 133.005 326.49 134.633C324.341 136.26 322.584 137.107 321.216 137.172C320.11 137.237 319.003 137.042 317.896 136.586C316.854 136.195 315.878 135.642 314.966 134.926C314.12 134.145 313.404 133.266 312.818 132.289C312.232 131.247 311.907 130.173 311.841 129.066C311.646 127.439 311.646 125.225 311.841 122.426C312.037 119.561 312.395 116.664 312.916 113.734C313.436 110.74 314.088 107.908 314.869 105.238C315.715 102.569 316.659 100.583 317.701 99.2812ZM366.288 138.441C364.791 138.441 363.489 138.148 362.382 137.562C361.34 137.042 360.494 136.326 359.843 135.414C359.192 134.503 358.769 133.461 358.573 132.289C358.378 131.052 358.443 129.75 358.769 128.383C358.964 127.471 359.29 126.267 359.745 124.77C360.201 123.207 360.657 121.547 361.113 119.789C361.633 117.966 362.089 116.176 362.48 114.418C362.935 112.595 363.228 110.967 363.359 109.535C363.489 108.038 363.424 106.833 363.163 105.922C362.903 104.945 362.349 104.457 361.503 104.457C360.461 104.457 359.387 104.815 358.28 105.531C357.174 106.182 356.034 107.094 354.863 108.266C353.756 109.438 352.616 110.805 351.445 112.367C350.338 113.865 349.231 115.427 348.124 117.055C347.538 119.268 347.05 121.221 346.659 122.914C346.269 124.542 345.911 126.039 345.585 127.406C345.325 128.708 345.064 129.88 344.804 130.922C344.543 131.898 344.316 132.842 344.12 133.754C343.925 134.405 343.339 135.056 342.363 135.707C341.386 136.293 340.344 136.781 339.238 137.172C338.131 137.562 337.187 137.758 336.405 137.758C335.559 137.758 335.201 137.465 335.331 136.879C335.396 136.488 335.624 135.609 336.015 134.242C336.34 132.875 336.764 131.28 337.284 129.457C337.74 127.569 338.228 125.583 338.749 123.5C339.27 121.417 339.758 119.431 340.214 117.543C340.54 116.046 340.898 114.385 341.288 112.562C341.614 111 342.004 109.177 342.46 107.094C342.981 105.01 343.567 102.732 344.218 100.258C344.674 99.8672 345.129 99.5742 345.585 99.3789C346.106 99.1185 346.627 98.9232 347.148 98.793C347.668 98.5977 348.222 98.4674 348.808 98.4023C349.329 98.4023 349.849 98.4349 350.37 98.5C350.826 98.5651 351.282 98.6953 351.738 98.8906C352.258 99.0208 352.714 99.2487 353.105 99.5742C352.909 100.03 352.682 100.681 352.421 101.527C352.161 102.309 351.9 103.155 351.64 104.066C351.379 105.108 351.054 106.182 350.663 107.289C351.51 106.117 352.454 104.945 353.495 103.773C354.602 102.536 355.774 101.43 357.011 100.453C358.313 99.4766 359.68 98.6953 361.113 98.1094C362.545 97.4583 364.01 97.1328 365.507 97.1328C366.744 97.1328 367.851 97.4909 368.827 98.207C369.804 98.9232 370.553 99.9323 371.073 101.234C371.659 102.471 371.985 103.969 372.05 105.727C372.18 107.484 371.952 109.405 371.366 111.488L370.292 115.785C369.967 117.152 369.543 118.78 369.023 120.668C368.567 122.491 367.981 124.509 367.265 126.723C366.874 128.155 366.711 129.392 366.777 130.434C366.907 131.475 367.558 131.996 368.73 131.996C369.902 131.996 371.366 131.28 373.124 129.848C374.947 128.415 376.77 126.69 378.593 124.672C380.416 122.654 382.141 120.603 383.769 118.52C385.396 116.371 386.633 114.646 387.48 113.344C388.066 112.497 388.619 111.944 389.14 111.684C389.661 111.423 390.051 111.391 390.312 111.586C390.637 111.781 390.8 112.237 390.8 112.953C390.8 113.604 390.54 114.451 390.019 115.492C389.563 116.404 388.847 117.608 387.87 119.105C386.959 120.603 385.852 122.198 384.55 123.891C383.248 125.583 381.848 127.309 380.351 129.066C378.853 130.759 377.291 132.322 375.663 133.754C374.036 135.121 372.408 136.228 370.78 137.074C369.218 137.986 367.721 138.441 366.288 138.441ZM429.381 114.906C430.163 114.776 430.944 114.646 431.725 114.516C432.506 114.32 433.353 114.092 434.264 113.832C433.157 112.79 431.692 112.139 429.87 111.879C429.674 112.921 429.511 113.93 429.381 114.906ZM469.323 84.7305C469.062 87.5299 468.314 90.4596 467.077 93.5195C465.905 96.5794 464.245 99.5417 462.096 102.406C459.948 105.271 457.343 107.94 454.284 110.414C451.224 112.888 447.741 114.906 443.834 116.469C444.42 117.576 444.974 118.747 445.495 119.984C446.015 121.221 446.471 122.621 446.862 124.184C447.448 126.267 447.936 128.415 448.327 130.629C448.782 132.842 449.14 134.991 449.401 137.074C449.726 139.158 449.987 141.078 450.182 142.836C450.442 144.659 450.638 146.156 450.768 147.328C451.028 149.281 451.647 150.648 452.623 151.43C453.665 152.276 454.804 152.732 456.041 152.797C457.343 152.927 458.613 152.797 459.85 152.406C461.152 152.016 462.161 151.592 462.877 151.137C462.812 151.202 462.454 151.755 461.803 152.797C461.152 153.904 460.273 155.043 459.166 156.215C458.06 157.452 456.725 158.493 455.163 159.34C453.665 160.251 451.972 160.544 450.084 160.219C448.782 160.023 447.61 159.568 446.569 158.852C445.592 158.201 444.713 157.191 443.932 155.824C443.216 154.522 442.63 152.829 442.174 150.746C441.718 148.663 441.426 146.124 441.295 143.129C441.165 139.092 441.002 135.251 440.807 131.605C440.677 127.895 439.993 124.477 438.756 121.352C438.561 120.831 438.366 120.342 438.17 119.887C437.975 119.366 437.747 118.91 437.487 118.52C434.817 119.171 431.823 119.594 428.502 119.789C428.047 122.263 427.558 124.802 427.038 127.406C426.517 130.01 425.963 132.549 425.377 135.023C424.857 137.497 424.271 139.809 423.62 141.957C423.034 144.171 422.448 146.059 421.862 147.621C421.211 149.249 420.364 150.551 419.323 151.527C418.346 152.569 416.751 153.09 414.538 153.09C413.235 153.09 412.096 152.797 411.12 152.211C410.143 151.625 409.199 150.811 408.288 149.77C408.548 149.574 408.971 149.249 409.557 148.793C410.078 148.402 410.729 147.556 411.51 146.254C412.226 145.017 413.008 143.227 413.854 140.883C414.765 138.539 415.677 135.382 416.588 131.41C416.914 129.783 417.337 127.895 417.858 125.746C418.444 123.533 419.062 121.124 419.713 118.52C417.109 117.087 415.905 115.167 416.1 112.758C416.23 111.26 416.914 109.991 418.151 108.949C419.388 107.908 420.885 107.191 422.643 106.801C423.489 103.415 424.336 99.9974 425.182 96.5469C426.093 93.0964 426.94 89.8737 427.721 86.8789C428.502 83.819 429.218 81.0846 429.87 78.6758C430.521 76.2018 431.041 74.2487 431.432 72.8164C430.26 73.5977 429.088 74.4766 427.916 75.4531C426.875 76.2995 425.735 77.276 424.498 78.3828C423.327 79.4245 422.22 80.5312 421.178 81.7031C420.657 81.3125 420.234 80.8893 419.909 80.4336C419.583 79.9779 419.323 79.5872 419.127 79.2617C418.867 78.8711 418.672 78.4479 418.541 77.9922C418.086 77.0807 417.858 76.1042 417.858 75.0625C417.858 73.9557 418.639 72.849 420.202 71.7422C421.048 71.1562 422.317 70.3099 424.01 69.2031C425.768 68.0964 427.916 67.0221 430.455 65.9805C432.995 64.9388 435.924 64.0273 439.245 63.2461C442.63 62.4648 446.373 62.0742 450.475 62.0742C454.577 62.0742 457.897 62.888 460.436 64.5156C462.975 66.1432 464.928 68.1289 466.295 70.4727C467.663 72.8164 468.541 75.2904 468.932 77.8945C469.388 80.4987 469.518 82.7773 469.323 84.7305ZM439.83 111.586C442.109 110.479 444.355 109.112 446.569 107.484C448.847 105.857 450.898 103.904 452.721 101.625C454.544 99.3464 456.074 96.7747 457.311 93.9102C458.548 90.9805 459.329 87.6927 459.655 84.0469C459.915 80.7917 459.687 78.0898 458.971 75.9414C458.32 73.7279 457.311 71.9701 455.944 70.668C454.642 69.3659 453.144 68.4544 451.452 67.9336C449.759 67.3477 448.066 67.0547 446.373 67.0547C444.811 67.0547 443.216 67.2826 441.588 67.7383C440.026 68.194 438.496 68.7799 436.998 69.4961C437.194 69.5612 437.422 69.724 437.682 69.9844C437.812 70.1797 437.942 70.4401 438.073 70.7656C438.268 71.026 438.398 71.319 438.463 71.6445C436.966 77.9596 435.761 83.2331 434.85 87.4648C433.939 91.6966 433.19 95.1471 432.604 97.8164C431.888 100.941 431.367 103.448 431.041 105.336C430.976 105.596 430.911 105.857 430.846 106.117C430.846 106.378 430.814 106.671 430.748 106.996C432.181 107.322 433.678 107.842 435.241 108.559C436.803 109.21 438.333 110.219 439.83 111.586ZM512.246 115.688C510.293 118.552 508.079 121.352 505.605 124.086C503.132 126.755 500.495 129.164 497.695 131.312C494.961 133.396 492.129 135.089 489.199 136.391C486.335 137.693 483.535 138.344 480.801 138.344C479.368 138.344 477.806 137.986 476.113 137.27C474.486 136.618 472.988 135.577 471.621 134.145C470.254 132.712 469.147 130.857 468.301 128.578C467.52 126.299 467.292 123.533 467.617 120.277C467.878 117.608 468.691 114.809 470.059 111.879C471.491 108.884 473.216 106.15 475.234 103.676C477.318 101.202 479.629 99.151 482.168 97.5234C484.772 95.8958 487.376 95.082 489.98 95.082C492.454 95.082 494.245 95.7005 495.352 96.9375C496.458 98.1745 496.947 99.7044 496.816 101.527C496.621 103.546 496.035 105.401 495.059 107.094C494.147 108.786 493.04 110.316 491.738 111.684C490.436 113.051 489.036 114.288 487.539 115.395C486.107 116.501 484.74 117.51 483.438 118.422C482.005 119.398 480.638 120.342 479.336 121.254C478.034 122.1 476.895 122.882 475.918 123.598C475.983 125.225 476.276 126.592 476.797 127.699C477.318 128.806 477.969 129.717 478.75 130.434C479.531 131.085 480.41 131.573 481.387 131.898C482.428 132.159 483.47 132.289 484.512 132.289C486.725 132.289 489.036 131.605 491.445 130.238C493.854 128.806 496.198 127.113 498.477 125.16C500.82 123.142 502.969 121.059 504.922 118.91C506.94 116.762 508.6 114.906 509.902 113.344C510.358 112.823 510.814 112.53 511.27 112.465C511.79 112.335 512.181 112.4 512.441 112.66C512.767 112.855 512.93 113.246 512.93 113.832C512.93 114.353 512.702 114.971 512.246 115.688ZM487.246 100.648C486.465 100.648 485.521 101.039 484.414 101.82C483.372 102.602 482.331 103.741 481.289 105.238C480.247 106.671 479.271 108.461 478.359 110.609C477.448 112.693 476.764 115.102 476.309 117.836C477.09 117.25 477.936 116.664 478.848 116.078C479.759 115.427 480.671 114.743 481.582 114.027C484.382 111.879 486.335 109.991 487.441 108.363C488.548 106.736 489.167 105.336 489.297 104.164C489.427 102.927 489.297 102.048 488.906 101.527C488.516 100.941 487.962 100.648 487.246 100.648ZM519.134 132.68C519.525 132.94 520.013 133.07 520.599 133.07C521.25 133.07 521.869 132.94 522.455 132.68C523.106 132.419 523.692 132.061 524.212 131.605C524.798 131.15 525.222 130.564 525.482 129.848C525.742 129.132 525.742 128.122 525.482 126.82C525.222 125.453 524.798 124.021 524.212 122.523C523.692 120.961 523.106 119.398 522.455 117.836C521.804 116.273 521.25 114.841 520.795 113.539C520.404 112.562 520.078 111.651 519.818 110.805C519.558 110.089 519.297 109.405 519.037 108.754C518.841 108.038 518.679 107.549 518.548 107.289C518.223 107.81 517.637 108.656 516.791 109.828C516.009 111 515.13 112.237 514.154 113.539C513.242 114.776 512.364 115.948 511.517 117.055C510.671 118.096 510.085 118.812 509.759 119.203C509.239 119.789 508.718 120.147 508.197 120.277C507.741 120.342 507.351 120.245 507.025 119.984C506.699 119.659 506.504 119.236 506.439 118.715C506.439 118.129 506.699 117.445 507.22 116.664C507.611 116.143 508.197 115.329 508.978 114.223C509.759 113.051 510.541 111.879 511.322 110.707C512.103 109.47 512.819 108.396 513.47 107.484C514.121 106.508 514.479 105.922 514.545 105.727C514.675 105.206 514.479 104.522 513.959 103.676C513.503 102.829 513.438 101.853 513.763 100.746C514.024 99.8346 514.61 98.793 515.521 97.6211C516.433 96.3841 517.507 95.2773 518.744 94.3008C519.981 93.3242 521.25 92.6081 522.552 92.1523C523.854 91.6315 525.026 91.6315 526.068 92.1523C526.914 92.6732 527.598 93.2591 528.119 93.9102C528.64 94.4961 528.835 95.1146 528.705 95.7656C528.574 96.0911 528.379 96.5143 528.119 97.0352C527.858 97.556 527.468 98.207 526.947 98.9883C526.426 99.7044 525.677 100.648 524.701 101.82C524.896 103.318 525.157 104.685 525.482 105.922C525.873 107.159 526.231 108.233 526.556 109.145C526.947 110.251 527.37 111.26 527.826 112.172C528.412 113.344 529.03 114.548 529.681 115.785C530.332 117.022 530.918 118.259 531.439 119.496C531.96 120.668 532.383 121.775 532.709 122.816C533.034 123.858 533.132 124.737 533.002 125.453C532.806 126.56 532.22 127.895 531.244 129.457C530.332 131.02 529.16 132.549 527.728 134.047C526.361 135.479 524.766 136.716 522.943 137.758C521.185 138.799 519.33 139.32 517.377 139.32C516.009 139.32 514.675 138.897 513.373 138.051C512.136 137.204 511.061 136.228 510.15 135.121C509.304 133.949 508.653 132.81 508.197 131.703C507.806 130.596 507.774 129.75 508.099 129.164C508.49 128.383 508.848 127.764 509.173 127.309C509.499 126.853 509.987 126.332 510.638 125.746C510.899 125.551 511.224 125.323 511.615 125.062C511.94 124.867 512.396 124.672 512.982 124.477C513.568 124.281 514.252 124.053 515.033 123.793C515.684 125.811 516.27 127.406 516.791 128.578C517.311 129.685 517.735 130.564 518.06 131.215C518.451 131.931 518.809 132.419 519.134 132.68ZM584.909 115.688C582.956 118.552 580.743 121.352 578.269 124.086C575.795 126.755 573.158 129.164 570.359 131.312C567.624 133.396 564.792 135.089 561.863 136.391C558.998 137.693 556.198 138.344 553.464 138.344C552.032 138.344 550.469 137.986 548.777 137.27C547.149 136.618 545.652 135.577 544.284 134.145C542.917 132.712 541.81 130.857 540.964 128.578C540.183 126.299 539.955 123.533 540.28 120.277C540.541 117.608 541.355 114.809 542.722 111.879C544.154 108.884 545.879 106.15 547.898 103.676C549.981 101.202 552.292 99.151 554.831 97.5234C557.435 95.8958 560.04 95.082 562.644 95.082C565.118 95.082 566.908 95.7005 568.015 96.9375C569.122 98.1745 569.61 99.7044 569.48 101.527C569.284 103.546 568.698 105.401 567.722 107.094C566.81 108.786 565.704 110.316 564.402 111.684C563.099 113.051 561.7 114.288 560.202 115.395C558.77 116.501 557.403 117.51 556.101 118.422C554.669 119.398 553.301 120.342 551.999 121.254C550.697 122.1 549.558 122.882 548.581 123.598C548.646 125.225 548.939 126.592 549.46 127.699C549.981 128.806 550.632 129.717 551.413 130.434C552.195 131.085 553.073 131.573 554.05 131.898C555.092 132.159 556.133 132.289 557.175 132.289C559.389 132.289 561.7 131.605 564.109 130.238C566.517 128.806 568.861 127.113 571.14 125.16C573.484 123.142 575.632 121.059 577.585 118.91C579.603 116.762 581.264 114.906 582.566 113.344C583.021 112.823 583.477 112.53 583.933 112.465C584.454 112.335 584.844 112.4 585.105 112.66C585.43 112.855 585.593 113.246 585.593 113.832C585.593 114.353 585.365 114.971 584.909 115.688ZM559.909 100.648C559.128 100.648 558.184 101.039 557.077 101.82C556.036 102.602 554.994 103.741 553.952 105.238C552.911 106.671 551.934 108.461 551.023 110.609C550.111 112.693 549.428 115.102 548.972 117.836C549.753 117.25 550.599 116.664 551.511 116.078C552.422 115.427 553.334 114.743 554.245 114.027C557.045 111.879 558.998 109.991 560.105 108.363C561.211 106.736 561.83 105.336 561.96 104.164C562.09 102.927 561.96 102.048 561.57 101.527C561.179 100.941 560.626 100.648 559.909 100.648ZM576.563 134.438C579.428 122.393 581.707 112.725 583.399 105.434C585.157 98.1419 586.492 92.5755 587.403 88.7344C588.445 84.1771 589.161 81.0195 589.552 79.2617C589.747 78.0247 589.91 76.8203 590.04 75.6484C590.17 74.6068 590.235 73.5326 590.235 72.4258C590.235 71.319 590.138 70.3099 589.942 69.3984C590.463 69.0729 591.016 68.8125 591.602 68.6172C592.253 68.4219 592.872 68.2591 593.458 68.1289C594.174 67.9336 594.89 67.7708 595.606 67.6406C596.322 67.5104 596.973 67.4453 597.559 67.4453C598.08 67.4453 598.569 67.5104 599.024 67.6406C599.48 67.7057 599.773 67.901 599.903 68.2266C600.294 68.5521 600.457 69.2031 600.391 70.1797C600.391 71.1562 600.326 72.1654 600.196 73.207C599.936 74.444 599.643 75.7786 599.317 77.2109C598.536 80.0104 597.462 84.0469 596.095 89.3203C594.923 93.8125 593.328 99.9323 591.309 107.68C589.356 115.427 586.882 125.193 583.888 136.977C583.562 137.302 583.171 137.53 582.716 137.66C582.26 137.79 581.837 137.855 581.446 137.855C580.99 137.855 580.502 137.823 579.981 137.758C579.526 137.628 579.07 137.432 578.614 137.172C578.223 136.911 577.833 136.553 577.442 136.098C577.052 135.707 576.759 135.154 576.563 134.438ZM598.588 134.438C601.453 122.393 603.732 112.725 605.424 105.434C607.182 98.1419 608.517 92.5755 609.428 88.7344C610.47 84.1771 611.186 81.0195 611.577 79.2617C611.772 78.0247 611.935 76.8203 612.065 75.6484C612.195 74.6068 612.26 73.5326 612.26 72.4258C612.26 71.319 612.163 70.3099 611.967 69.3984C612.488 69.0729 613.041 68.8125 613.627 68.6172C614.278 68.4219 614.897 68.2591 615.483 68.1289C616.199 67.9336 616.915 67.7708 617.631 67.6406C618.347 67.5104 618.998 67.4453 619.584 67.4453C620.105 67.4453 620.593 67.5104 621.049 67.6406C621.505 67.7057 621.798 67.901 621.928 68.2266C622.319 68.5521 622.482 69.2031 622.416 70.1797C622.416 71.1562 622.351 72.1654 622.221 73.207C621.961 74.444 621.668 75.7786 621.342 77.2109C620.561 80.0104 619.487 84.0469 618.12 89.3203C616.948 93.8125 615.353 99.9323 613.334 107.68C611.381 115.427 608.907 125.193 605.913 136.977C605.587 137.302 605.196 137.53 604.741 137.66C604.285 137.79 603.862 137.855 603.471 137.855C603.015 137.855 602.527 137.823 602.006 137.758C601.551 137.628 601.095 137.432 600.639 137.172C600.248 136.911 599.858 136.553 599.467 136.098C599.077 135.707 598.784 135.154 598.588 134.438ZM666.316 115.688C664.363 118.552 662.15 121.352 659.676 124.086C657.202 126.755 654.565 129.164 651.766 131.312C649.031 133.396 646.199 135.089 643.27 136.391C640.405 137.693 637.605 138.344 634.871 138.344C633.439 138.344 631.876 137.986 630.184 137.27C628.556 136.618 627.059 135.577 625.691 134.145C624.324 132.712 623.217 130.857 622.371 128.578C621.59 126.299 621.362 123.533 621.688 120.277C621.948 117.608 622.762 114.809 624.129 111.879C625.561 108.884 627.286 106.15 629.305 103.676C631.388 101.202 633.699 99.151 636.238 97.5234C638.842 95.8958 641.447 95.082 644.051 95.082C646.525 95.082 648.315 95.7005 649.422 96.9375C650.529 98.1745 651.017 99.7044 650.887 101.527C650.691 103.546 650.105 105.401 649.129 107.094C648.217 108.786 647.111 110.316 645.809 111.684C644.507 113.051 643.107 114.288 641.609 115.395C640.177 116.501 638.81 117.51 637.508 118.422C636.076 119.398 634.708 120.342 633.406 121.254C632.104 122.1 630.965 122.882 629.988 123.598C630.053 125.225 630.346 126.592 630.867 127.699C631.388 128.806 632.039 129.717 632.82 130.434C633.602 131.085 634.48 131.573 635.457 131.898C636.499 132.159 637.54 132.289 638.582 132.289C640.796 132.289 643.107 131.605 645.516 130.238C647.924 128.806 650.268 127.113 652.547 125.16C654.891 123.142 657.039 121.059 658.992 118.91C661.01 116.762 662.671 114.906 663.973 113.344C664.428 112.823 664.884 112.53 665.34 112.465C665.861 112.335 666.251 112.4 666.512 112.66C666.837 112.855 667 113.246 667 113.832C667 114.353 666.772 114.971 666.316 115.688ZM641.316 100.648C640.535 100.648 639.591 101.039 638.484 101.82C637.443 102.602 636.401 103.741 635.359 105.238C634.318 106.671 633.341 108.461 632.43 110.609C631.518 112.693 630.835 115.102 630.379 117.836C631.16 117.25 632.007 116.664 632.918 116.078C633.829 115.427 634.741 114.743 635.652 114.027C638.452 111.879 640.405 109.991 641.512 108.363C642.618 106.736 643.237 105.336 643.367 104.164C643.497 102.927 643.367 102.048 642.977 101.527C642.586 100.941 642.033 100.648 641.316 100.648ZM655.724 135.512C655.268 136.228 654.78 136.684 654.259 136.879C653.673 137.139 653.185 137.172 652.794 136.977C652.339 136.846 652.046 136.521 651.916 136C651.785 135.479 651.916 134.828 652.306 134.047C652.502 133.656 652.957 132.777 653.673 131.41C654.324 130.043 655.138 128.415 656.115 126.527C657.026 124.574 658.035 122.491 659.142 120.277C660.249 117.999 661.291 115.85 662.267 113.832C663.309 111.814 664.253 110.023 665.099 108.461C665.946 106.833 666.564 105.661 666.955 104.945C666.239 104.294 665.75 103.839 665.49 103.578C665.229 103.253 665.034 102.602 664.904 101.625C664.774 100.779 664.969 99.6719 665.49 98.3047C666.011 96.9375 666.694 95.6354 667.541 94.3984C668.387 93.0964 669.331 91.9896 670.373 91.0781C671.414 90.1667 672.423 89.7109 673.4 89.7109C675.223 89.7109 676.492 90.2969 677.209 91.4688C677.99 92.6406 678.446 93.8451 678.576 95.082C678.706 95.9284 678.641 97.0026 678.38 98.3047C678.12 99.6068 677.632 100.779 676.916 101.82C677.111 101.951 677.371 102.113 677.697 102.309C678.022 102.439 678.543 102.504 679.259 102.504C680.301 102.504 681.017 102.439 681.408 102.309C681.864 102.178 682.547 102.113 683.459 102.113C684.565 102.113 685.477 102.406 686.193 102.992C686.909 103.513 687.495 104.197 687.951 105.043C688.406 105.824 688.732 106.703 688.927 107.68C689.188 108.591 689.35 109.438 689.416 110.219C689.611 111.846 689.188 113.539 688.146 115.297C687.104 117.055 685.835 118.975 684.337 121.059C683.426 122.361 682.515 123.826 681.603 125.453C680.692 127.081 680.301 128.546 680.431 129.848C680.561 130.694 680.789 131.378 681.115 131.898C681.44 132.419 682.352 132.68 683.849 132.68C684.956 132.68 686.16 132.289 687.462 131.508C688.83 130.661 690.197 129.62 691.564 128.383C692.996 127.081 694.396 125.681 695.763 124.184C697.13 122.621 698.4 121.124 699.572 119.691C700.744 118.194 701.72 116.859 702.502 115.688C703.348 114.516 703.966 113.669 704.357 113.148C704.683 112.628 705.106 112.27 705.627 112.074C706.147 111.879 706.603 111.879 706.994 112.074C707.384 112.27 707.612 112.66 707.677 113.246C707.808 113.832 707.58 114.613 706.994 115.59C706.603 116.241 705.919 117.283 704.943 118.715C704.031 120.147 702.892 121.742 701.525 123.5C700.223 125.258 698.758 127.081 697.13 128.969C695.503 130.792 693.778 132.484 691.955 134.047C690.197 135.544 688.406 136.781 686.584 137.758C684.826 138.734 683.133 139.223 681.505 139.223C679.813 139.223 678.413 138.897 677.306 138.246C676.199 137.595 675.288 136.814 674.572 135.902C673.921 134.926 673.433 133.884 673.107 132.777C672.847 131.605 672.749 130.531 672.814 129.555C672.879 128.773 673.074 127.96 673.4 127.113C673.791 126.202 674.214 125.29 674.669 124.379C675.19 123.402 675.711 122.458 676.232 121.547C676.818 120.57 677.339 119.626 677.794 118.715C678.901 116.827 679.78 115.232 680.431 113.93C681.147 112.562 681.505 111.423 681.505 110.512C681.505 109.926 681.375 109.405 681.115 108.949C680.854 108.493 680.431 108.266 679.845 108.266C679.455 108.266 679.162 108.298 678.966 108.363C678.836 108.363 678.673 108.363 678.478 108.363C678.348 108.363 678.12 108.396 677.794 108.461C677.534 108.461 677.111 108.461 676.525 108.461C675.679 108.461 674.962 108.331 674.377 108.07C673.791 107.81 673.237 107.615 672.716 107.484C672.456 107.94 671.87 108.917 670.959 110.414C670.047 111.911 668.973 113.669 667.736 115.688C666.564 117.706 665.294 119.822 663.927 122.035C662.625 124.249 661.388 126.332 660.216 128.285C659.044 130.173 658.068 131.801 657.287 133.168C656.44 134.47 655.919 135.251 655.724 135.512Z" fill="#D8834B"/>
</g>
</svg>
